<?xml version="1.0" encoding="UTF-8" standalone="no"?>
<svg
   xmlns:dc="http://purl.org/dc/elements/1.1/"
   xmlns:cc="http://creativecommons.org/ns#"
   xmlns:rdf="http://www.w3.org/1999/02/22-rdf-syntax-ns#"
   xmlns:svg="http://www.w3.org/2000/svg"
   xmlns="http://www.w3.org/2000/svg"
   xmlns:sodipodi="http://sodipodi.sourceforge.net/DTD/sodipodi-0.dtd"
   xmlns:inkscape="http://www.inkscape.org/namespaces/inkscape"
   version="1.1"
   id="svg2"
   viewBox="0 0 287 388"
   height="388"
   width="287"
   inkscape:version="0.91 r13725"
   sodipodi:docname="ESRB 2013 Adults Only.svg">
  <sodipodi:namedview
     pagecolor="#ffffff"
     bordercolor="#666666"
     borderopacity="1"
     objecttolerance="10"
     gridtolerance="10"
     guidetolerance="10"
     inkscape:pageopacity="0"
     inkscape:pageshadow="2"
     inkscape:window-width="1680"
     inkscape:window-height="987"
     id="namedview4182"
     showgrid="false"
     inkscape:zoom="3.5582879"
     inkscape:cx="143.5"
     inkscape:cy="409.54712"
     inkscape:window-x="-8"
     inkscape:window-y="-8"
     inkscape:window-maximized="1"
     inkscape:current-layer="svg2" />
  <defs
     id="defs4" />
  <metadata
     id="metadata7">
    <rdf:RDF>
      <cc:Work
         rdf:about="">
        <dc:format>image/svg+xml</dc:format>
        <dc:type
           rdf:resource="http://purl.org/dc/dcmitype/StillImage" />
        <dc:title />
      </cc:Work>
    </rdf:RDF>
  </metadata>
  <g
     transform="translate(0,-664.36216)"
     id="layer1">
    <path
       transform="translate(0,664.36216)"
       id="path4419"
       d="m 164.56918,345.91942 c -0.37844,-0.37843 -0.42644,-0.71073 -0.42644,-2.95203 0,-2.62673 0.1045,-2.94781 1.06609,-3.27551 0.17591,-0.06 3.05438,-0.0384 6.39659,0.0479 6.03526,0.15585 6.0868,0.16109 7.54623,0.76651 1.4893,0.61781 2.36006,1.50014 2.50142,2.53465 0.0973,0.71218 -0.59979,1.73305 -1.5728,2.30327 -1.33629,0.78312 -3.44432,1.00163 -9.66298,1.00163 -5.13738,0 -5.44404,-0.0224 -5.84811,-0.42644 z"
       style="opacity:1;fill:#0d0d0d;fill-opacity:1" />
    <path
       transform="translate(0,664.36216)"
       id="path4421"
       d="m 233.11928,357.79281 c -0.37511,-0.28529 -0.43511,-0.62346 -0.49848,-2.80977 -0.10377,-3.57996 -0.6355,-3.30764 6.44837,-3.30246 6.77808,0.005 8.23012,0.16432 9.69183,1.06371 1.55763,0.95843 1.73711,2.08197 0.54361,3.40303 -0.53616,0.59347 -0.99947,0.88494 -1.54584,0.97249 -0.42912,0.0688 -1.16401,0.27036 -1.63309,0.44798 -1.30275,0.4933 -12.40119,0.68531 -13.0064,0.22502 z"
       style="opacity:1;fill:#0d0d0d;fill-opacity:1" />
    <path
       transform="translate(0,664.36216)"
       id="path4423"
       d="m 232.80695,344.86734 c -0.31892,-0.59592 -0.28298,-4.329 0.0458,-4.75736 0.47425,-0.61789 11.04545,-0.55207 13.10235,0.0816 0.76704,0.23629 1.98367,1.49941 1.98153,2.05724 -0.004,1.11598 -1.81621,2.54035 -3.60415,2.83324 -0.65554,0.10739 -3.46729,0.19581 -6.24835,0.19649 -4.78164,0.001 -5.06846,-0.0212 -5.27719,-0.41119 z"
       style="opacity:1;fill:#0d0d0d;fill-opacity:1" />
    <path
       transform="translate(0,664.36216)"
       id="path4427"
       d="m 145.11789,68.301205 c -1.88485,-0.545467 -2.96692,-1.511597 -4.08502,-3.647318 -0.68287,-1.304369 -0.99762,-2.229249 -1.21941,-3.583211 -0.16442,-1.003765 -0.38874,-2.304772 -0.49849,-2.891126 -0.24862,-1.328385 -0.25498,-18.550093 -0.007,-20.149253 0.42006,-2.71359 0.83099,-4.733923 1.01104,-4.9707 0.10588,-0.13925 0.32517,-0.589002 0.4873,-0.99945 0.4952,-1.253653 1.48649,-2.557426 2.50824,-3.298914 1.9417,-1.409089 5.82324,-1.504723 8.05232,-0.198393 2.4746,1.45021 3.80575,4.73097 4.36046,10.746774 0.22992,2.493579 0.23206,15.216683 0.003,17.697229 -0.50842,5.505004 -1.69879,8.704317 -3.81865,10.263281 -1.03134,0.758458 -3.24677,1.464979 -4.50562,1.436878 -0.52771,-0.01179 -1.55718,-0.194388 -2.28769,-0.405797 z m 3.1479,-6.607452 c 0.22315,-0.119429 0.65728,-0.646375 0.96473,-1.170994 0.48389,-0.825705 0.58398,-1.319309 0.74503,-3.674117 0.2403,-3.513571 0.23978,-14.08797 -8.7e-4,-17.607369 -0.16455,-2.406508 -0.25285,-2.833216 -0.73794,-3.56625 -1.19929,-1.81224 -2.33522,-1.863626 -3.39496,-0.153576 -0.51715,0.834488 -0.63513,1.324141 -0.8179,3.394454 -0.26066,2.952537 -0.0936,19.354878 0.20883,20.500605 0.25338,0.959985 1.08208,2.234224 1.53321,2.357514 0.59896,0.16369 1.09348,0.137226 1.49987,-0.08027 z"
       style="opacity:1;fill:#0d0d0d;fill-opacity:1" />
    <path
       transform="translate(0,664.36216)"
       id="path4429"
       d="m 160.48116,67.941205 c -0.37239,-0.04665 -0.80416,-0.2379 -0.95948,-0.425006 -0.22859,-0.275361 -0.29392,-3.879344 -0.34281,-18.910916 -0.0332,-10.213897 -0.007,-18.789047 0.0587,-19.055889 0.0655,-0.266843 0.30859,-0.674625 0.54014,-0.906184 0.37413,-0.37413 0.71671,-0.421016 3.07623,-0.421016 3.11145,0 3.66237,0.176199 3.94314,1.261133 0.47445,1.833314 0.93781,3.850199 1.17981,5.135456 0.14353,0.76226 0.41721,1.913646 0.60817,2.558635 0.32459,1.096269 0.4979,1.861802 1.31539,5.810235 0.17603,0.850213 0.45504,1.977612 0.62004,2.50533 0.16499,0.527719 0.41337,1.654777 0.55196,2.504575 0.13859,0.849797 0.32844,1.592344 0.4219,1.650103 0.55862,0.345248 0.63448,-0.809537 0.69183,-10.531359 l 0.0595,-10.079157 0.50336,-0.407475 c 0.39839,-0.322498 0.84306,-0.406795 2.1322,-0.404211 1.83754,0.0037 2.04348,0.084 2.36176,0.921139 0.24615,0.647411 0.33095,36.262106 0.0898,37.720914 -0.11535,0.697872 -0.22958,0.824631 -0.90383,1.002953 -0.9771,0.258416 -4.39534,0.245471 -5.28068,-0.02 -0.73811,-0.221311 -1.00255,-0.704889 -1.32418,-2.421448 -0.20817,-1.111046 -0.65255,-3.073548 -1.23116,-5.4371 -0.18661,-0.76226 -0.42654,-1.865671 -0.53319,-2.452025 -0.10664,-0.586354 -0.37828,-1.785715 -0.60362,-2.665246 -0.49148,-1.918228 -0.98642,-4.188757 -1.41761,-6.503198 -0.1769,-0.949549 -0.51611,-1.980927 -0.76514,-2.32645 -0.24604,-0.341382 -0.51642,-1.156947 -0.60084,-1.812367 -0.0844,-0.65542 -0.16713,3.989563 -0.1838,10.322186 -0.0167,6.332623 -0.0896,11.872576 -0.16207,12.311004 -0.11459,0.693237 -0.23241,0.825103 -0.90383,1.011606 -0.76126,0.211454 -1.61497,0.229964 -2.9417,0.06378 z"
       style="opacity:1;fill:#0d0d0d;fill-opacity:1" />
    <path
       transform="translate(0,664.36216)"
       id="path4431"
       d="m 181.94716,67.90628 -0.74627,-0.131847 -0.0507,-19.402985 c -0.0313,-11.97994 0.0268,-19.525343 0.15186,-19.722814 0.15192,-0.239899 0.72581,-0.337782 2.29629,-0.391662 1.83973,-0.06312 2.1576,-0.02014 2.62,0.354236 l 0.52624,0.426069 0.10661,15.850454 0.10661,15.850455 3.24154,0.10661 c 1.88713,0.06207 3.3373,0.202622 3.47073,0.336401 0.1485,0.148893 0.20834,1.349272 0.16998,3.409661 l -0.0592,3.179872 -0.63966,0.136539 c -0.81778,0.174561 -10.20508,0.173731 -11.19403,-0.0011 l 0,7.7e-5 z"
       style="opacity:1;fill:#0d0d0d;fill-opacity:1" />
    <path
       transform="translate(0,664.36216)"
       id="path4433"
       d="m 198.2009,67.746721 c -0.48093,-0.396205 -0.484,-0.434542 -0.48557,-6.057953 -8.8e-4,-3.112574 -0.0858,-6.134962 -0.18876,-6.716418 -0.41984,-2.371294 -0.88349,-4.500318 -1.09288,-5.018394 -0.20635,-0.510525 -0.37292,-1.215843 -1.46356,-6.197106 -0.22191,-1.013509 -0.49793,-2.020972 -0.61339,-2.238806 -0.11546,-0.217834 -0.31886,-1.102865 -0.452,-1.966733 -0.13314,-0.863869 -0.33861,-1.751058 -0.45661,-1.971532 -0.11799,-0.220473 -0.31179,-0.952904 -0.43067,-1.627623 -0.11888,-0.67472 -0.39232,-1.850431 -0.60766,-2.612691 -0.21533,-0.76226 -0.50988,-2.03762 -0.65456,-2.834133 -0.23801,-1.310367 -0.22709,-1.48794 0.11475,-1.865672 0.32801,-0.362445 0.66416,-0.417466 2.55052,-0.417466 1.81542,0 2.2294,0.06264 2.51746,0.380938 0.55153,0.609443 0.94195,1.75318 1.10727,3.243796 0.0845,0.76226 0.27952,1.691487 0.43329,2.064948 0.15376,0.373462 0.38847,1.428899 0.52157,2.345416 0.1331,0.916517 0.37674,2.098165 0.54143,2.625883 0.16468,0.527719 0.40897,1.607143 0.54286,2.398721 0.13389,0.791578 0.31769,1.439232 0.40845,1.439232 0.18779,0 0.97006,-2.95357 1.40796,-5.316004 0.16156,-0.871564 0.4336,-2.02295 0.60455,-2.558636 0.17094,-0.535686 0.4086,-1.597641 0.52813,-2.359901 0.11953,-0.76226 0.43733,-2.009595 0.70623,-2.771855 l 0.4889,-1.385928 2.02559,-0.06251 c 1.11407,-0.03438 2.23,-0.01144 2.47985,0.05097 0.83563,0.208755 0.80634,1.109715 -0.13904,4.275931 -0.21009,0.703624 -0.44455,1.663113 -0.52102,2.132196 -0.0765,0.469083 -0.325,1.476546 -0.55228,2.238806 -0.58602,1.96539 -1.03103,3.711871 -1.38541,5.4371 -0.16862,0.820895 -0.44768,1.828358 -0.62014,2.238806 -0.17245,0.410448 -0.40957,1.298312 -0.52693,1.973031 -0.11735,0.67472 -0.30672,1.401194 -0.42082,1.614387 -0.1141,0.213194 -0.32074,1.052408 -0.45921,1.864923 -0.13847,0.812512 -0.406,1.813117 -0.59451,2.223565 -0.28531,0.621213 -0.3614,1.950446 -0.45407,7.932139 -0.0786,5.073106 -0.18474,7.259172 -0.36102,7.435189 -0.13733,0.137128 -1.09681,0.297201 -2.13219,0.355717 -1.62299,0.09172 -1.94923,0.05142 -2.36651,-0.292335 z"
       style="opacity:1;fill:#0d0d0d;fill-opacity:1" />
    <path
       transform="translate(0,664.36216)"
       id="path4435"
       d="m 223.85219,67.935324 c -0.69957,-0.04307 -1.3952,-0.180594 -1.54584,-0.30562 -0.21797,-0.180893 -0.2739,-3.087083 -0.2739,-14.231058 0,-9.368729 -0.0731,-14.076798 -0.22072,-14.224462 -0.15214,-0.152146 -0.68856,0.238848 -1.72658,1.258497 -1.13541,1.115329 -1.5663,1.418916 -1.75156,1.234094 -0.15875,-0.158376 -0.26977,-1.449502 -0.31371,-3.648392 -0.0756,-3.783078 -0.17098,-3.461599 1.62724,-5.48375 1.0012,-1.125878 1.93048,-2.486604 2.29661,-3.362874 0.39693,-0.949985 0.95921,-1.162784 3.07244,-1.162784 1.23994,0 1.76392,0.08727 2.01171,0.335059 0.29966,0.299659 0.33506,2.372184 0.33506,19.616205 0,18.996853 -0.006,19.287433 -0.42644,19.707584 -0.27674,0.27674 -0.6697,0.412286 -1.1194,0.386124 -0.38113,-0.02217 -1.26534,-0.07555 -1.96491,-0.118623 z"
       style="opacity:1;fill:#0d0d0d;fill-opacity:1" />
    <path
       transform="translate(0,664.36216)"
       id="path4437"
       d="m 236.17441,68.113461 c -1.04044,-0.265196 -3.26413,-2.370299 -3.26413,-3.090053 0,-0.132201 -0.1889,-0.592819 -0.41978,-1.023595 -1.00245,-1.870346 -1.02547,-11.592506 -0.0321,-13.561687 0.21845,-0.433049 0.46824,-1.027232 0.5551,-1.320409 0.0869,-0.293177 0.374,-0.772921 0.63809,-1.066098 0.77577,-0.861195 0.81666,-1.465019 0.1379,-2.036163 -0.33131,-0.278781 -0.85894,-1.170334 -1.2126,-2.048967 -0.61933,-1.53867 -0.626,-1.600325 -0.61873,-5.718098 0.007,-3.940412 0.0376,-4.250043 0.57293,-5.799393 1.01262,-2.93047 2.21213,-4.198921 4.41691,-4.670786 1.30161,-0.278571 3.28369,-0.138702 4.32986,0.305546 0.89352,0.379424 2.40655,1.921479 2.72552,2.777802 0.13635,0.366046 0.40674,1.046454 0.60087,1.512018 0.29462,0.706572 0.35295,1.679136 0.35295,5.884237 0,3.397227 -0.0777,5.135168 -0.23873,5.336889 -0.13131,0.164523 -0.34941,0.643114 -0.48468,1.063536 -0.13526,0.420422 -0.52062,1.027576 -0.85636,1.349229 -0.66781,0.639801 -0.67138,1.187029 -0.0127,1.93754 0.20586,0.234541 0.68742,1.098081 1.07013,1.918976 l 0.69585,1.492538 0.0982,4.371002 c 0.056,2.494554 -3.2e-4,5.168164 -0.13127,6.227915 -0.33581,2.717567 -1.40673,4.609763 -3.20563,5.663985 -0.84617,0.495891 -1.23746,0.576467 -3.00501,0.618801 -1.11769,0.02677 -2.33836,-0.02937 -2.7126,-0.124765 z m 2.80308,-6.335015 c 0.18984,-0.07285 0.50949,-0.432655 0.71033,-0.799574 0.31017,-0.566631 0.36184,-1.261324 0.34303,-4.611688 -0.0236,-4.212305 -0.16695,-4.969766 -1.01314,-5.355314 -0.40415,-0.184143 -0.62486,-0.158164 -1.05594,0.124292 -0.73772,0.483369 -1.00031,1.823548 -1.00031,5.105148 0,3.435441 0.15541,4.478837 0.76509,5.136695 0.51989,0.56097 0.69038,0.615548 1.25094,0.400441 z m 0.93561,-22.32279 c 0.0754,-2.918176 -0.13534,-4.335527 -0.7337,-4.933888 -0.49586,-0.495856 -0.85771,-0.402151 -1.40385,0.363539 -0.44681,0.626428 -0.50101,0.966575 -0.56454,3.542586 -0.0807,3.271463 -0.0281,3.59044 0.74265,4.506449 l 0.56589,0.67252 0.66019,-0.659949 0.66018,-0.65995 0.0732,-2.831307 z"
       style="opacity:1;fill:#0d0d0d;fill-opacity:1" />
    <path
       transform="translate(0,664.36216)"
       id="path4439"
       d="m 252.1763,63.456736 c -0.10043,-0.205224 -0.23063,-2.579957 -0.28934,-5.277186 l -0.10674,-4.904051 -2.47312,-0.10661 c -1.64556,-0.07094 -2.59092,-0.20453 -2.82516,-0.399242 -0.29058,-0.241542 -0.35204,-0.72901 -0.35204,-2.792113 0,-3.272217 0.0114,-3.284322 3.19999,-3.38348 2.15176,-0.06692 2.31173,-0.102046 2.42735,-0.533049 0.0681,-0.253776 0.12508,-2.529109 0.12668,-5.056295 0.002,-3.286087 0.0758,-4.667762 0.25877,-4.850746 0.34185,-0.341848 3.41082,-0.341848 3.75267,0 0.18367,0.183673 0.25678,1.612447 0.25913,5.063966 0.002,2.644456 0.0738,4.918672 0.15991,5.053812 0.0968,0.151821 1.02022,0.274031 2.41665,0.319829 1.507,0.04942 2.37725,0.17162 2.61194,0.366752 0.29359,0.244113 0.35194,0.7458 0.35194,3.025796 0,1.952386 -0.0761,2.782441 -0.26652,2.905662 -0.14659,0.09487 -1.36994,0.220473 -2.71855,0.279108 l -2.45203,0.10661 -0.10661,4.925173 c -0.0809,3.735853 -0.17727,5.010177 -0.39924,5.277186 -0.43611,0.524609 -3.31695,0.507592 -3.57568,-0.02113 l 0,9e-6 z"
       style="opacity:1;fill:#0d0d0d;fill-opacity:1" />
    <path
       transform="translate(0,664.36216)"
       id="path4441"
       d="m 119.17944,68.524179 c -0.29318,-0.10655 -0.92462,-0.294174 -1.4032,-0.416944 -1.03875,-0.266473 -2.3939,-1.572819 -3.17547,-3.061113 -0.76983,-1.465955 -1.24552,-3.744847 -1.33834,-6.411749 -0.0753,-2.164257 -0.0492,-2.350533 0.39671,-2.825159 0.43192,-0.459762 0.65374,-0.508128 2.33042,-0.508128 2.69009,0 2.88787,0.193004 3.02051,2.947635 0.0913,1.89526 0.16164,2.18796 0.69382,2.885687 0.46878,0.61459 0.73788,0.776486 1.29067,0.776486 1.70705,0 2.7875,-2.380395 2.25934,-4.977644 -0.14677,-0.721785 -0.40498,-1.504233 -0.57379,-1.738774 -0.16881,-0.234542 -0.54675,-0.785894 -0.83988,-1.225224 -0.29312,-0.439333 -1.46747,-1.734642 -2.60966,-2.878465 -1.1422,-1.143825 -2.24149,-2.319552 -2.44287,-2.612729 -0.20138,-0.293177 -0.64706,-0.929449 -0.9904,-1.413938 -0.34333,-0.48449 -0.69324,-1.108157 -0.77756,-1.385928 -0.0843,-0.277771 -0.33558,-0.806324 -0.55835,-1.174561 -0.75217,-1.243355 -1.05118,-5.858652 -0.60837,-9.390195 0.36737,-2.929839 1.83039,-5.455746 3.83388,-6.619222 1.2926,-0.750646 3.37947,-1.035307 5.2839,-0.720756 1.38416,0.22862 1.79789,0.399531 2.60301,1.075319 2.0449,1.716406 2.70916,3.254591 3.22427,7.466211 0.25566,2.090279 0.1222,3.11473 -0.44536,3.418474 -0.22178,0.118696 -1.27309,0.215811 -2.33624,0.215811 -2.45275,0 -2.6611,-0.169295 -2.86146,-2.32505 -0.16815,-1.809236 -0.56486,-2.876751 -1.19425,-3.213588 -0.36929,-0.197639 -0.58882,-0.158571 -1.18726,0.211286 -1.30391,0.805861 -1.59432,1.364794 -1.59199,3.063996 0.002,1.515836 0.5956,3.30679 1.3838,4.175634 0.16293,0.179591 1.47692,1.5481 2.91999,3.041133 1.44307,1.493032 2.76856,2.88516 2.94553,3.093619 1.34795,1.587791 2.45419,4.738655 2.6395,7.518002 0.33264,4.989239 -0.77105,9.394787 -2.78286,11.108175 -0.95652,0.814631 -2.57575,1.545915 -3.78827,1.71087 -0.7118,0.09684 -1.63001,0.222977 -2.04045,0.280311 -0.41045,0.05733 -0.98615,0.01706 -1.27932,-0.08948 z"
       style="opacity:1;fill:#0d0d0d;fill-opacity:1" />
    <path
       transform="translate(0,664.36216)"
       id="path4443"
       d="m 102.4444,67.935921 c -0.46759,-0.04766 -0.97133,-0.187202 -1.1194,-0.310093 -0.21228,-0.176179 -0.26923,-3.484666 -0.26923,-15.641875 0,-9.502065 -0.0798,-15.628301 -0.20794,-15.965362 -0.20383,-0.536104 -0.2496,-0.54693 -2.312371,-0.54693 -2.85374,0 -2.810179,0.05676 -2.810179,-3.661781 0,-2.521184 0.04881,-2.926106 0.389923,-3.23481 0.347419,-0.314409 1.215285,-0.352876 7.961507,-0.352876 l 7.57159,0 0.24745,0.543082 c 0.1466,0.321752 0.24744,1.65518 0.24744,3.271858 0,3.465157 0.0253,3.434527 -2.83445,3.434527 -1.8131,0 -2.08054,0.04848 -2.27532,0.412422 -0.14615,0.273084 -0.2217,5.549791 -0.22363,15.618337 -0.002,8.363254 -0.0592,15.415764 -0.12797,15.672248 -0.21651,0.807349 -1.50831,1.03942 -4.23742,0.761253 z"
       style="opacity:1;fill:#0d0d0d;fill-opacity:1" />
    <path
       transform="translate(0,664.36216)"
       id="path4445"
       d="M 85.193411,67.635246 C 84.88536,67.19544 84.851079,65.251988 84.851079,48.227428 c 0,-14.038179 0.06464,-19.060942 0.250559,-19.468987 0.249028,-0.546556 0.2643,-0.549549 2.499506,-0.489777 2.157547,0.0577 2.259889,0.0818 2.518153,0.593189 0.209394,0.414617 0.269904,3.998043 0.272349,16.128574 0.0028,14.022537 0.03716,15.608578 0.340411,15.724946 0.185498,0.07118 1.648718,0.130836 3.2516,0.132566 1.928534,0.0021 3.094639,0.09476 3.44738,0.273987 0.530756,0.269676 0.533049,0.283836 0.533049,3.291499 0,2.192381 -0.07591,3.096554 -0.276855,3.297443 -0.210242,0.210188 -1.705407,0.293186 -6.214172,0.344953 l -5.937317,0.06817 -0.342331,-0.488746 z"
       style="opacity:1;fill:#0d0d0d;fill-opacity:1" />
    <path
       transform="translate(0,664.36216)"
       id="path4447"
       d="m 71.631463,68.498623 c -0.293177,-0.104465 -0.934093,-0.288038 -1.424258,-0.407945 -0.61835,-0.15126 -1.238519,-0.559449 -2.025586,-1.333223 -1.315566,-1.293346 -1.726179,-1.97486 -2.598897,-4.313512 l -0.636539,-1.705757 -0.07259,-15.671642 c -0.05799,-12.520714 -0.01709,-15.778816 0.203442,-16.204691 0.263102,-0.508087 0.376603,-0.535878 2.423733,-0.593459 1.803081,-0.05072 2.195607,-0.0027 2.446234,0.299169 0.246996,0.297508 0.319024,2.921227 0.417254,15.199004 0.129096,16.135866 0.137714,16.249043 1.335372,17.537082 0.452712,0.486874 0.747431,0.607245 1.486799,0.607245 1.202926,0 1.47096,-0.246599 2.146158,-1.974525 l 0.563267,-1.441475 0,-14.589421 c 0,-8.963417 0.08019,-14.800328 0.207942,-15.136349 0.203766,-0.535946 0.249795,-0.546864 2.292111,-0.543665 1.146292,0.0018 2.18974,0.07376 2.318773,0.159915 0.69683,0.465286 0.724884,1.060863 0.724884,15.389239 0,11.65788 -0.05943,14.696842 -0.321565,16.442078 -0.176861,1.177518 -0.455289,2.35226 -0.618729,2.610535 -0.163441,0.258278 -0.359996,0.77148 -0.436789,1.14045 -0.07679,0.36897 -0.326085,0.839597 -0.553979,1.04584 -0.227895,0.206241 -0.414354,0.463444 -0.414354,0.571559 0,0.187838 -0.542584,0.757441 -1.743288,1.8301 -0.593464,0.530177 -3.398038,1.33429 -4.520386,1.296064 -0.36628,-0.01248 -0.905836,-0.108153 -1.199013,-0.212616 z"
       style="opacity:1;fill:#0d0d0d;fill-opacity:1" />
    <path
       transform="translate(0,664.36216)"
       id="path4449"
       d="M 45.980736,67.945516 C 45.586748,67.882909 45.31333,67.66651 45.177792,67.310017 45.049933,66.973721 44.993687,59.611252 45.028946,47.826265 45.07437,32.64371 45.140554,28.828057 45.362329,28.605939 c 0.20447,-0.204785 1.429079,-0.294975 4.690832,-0.345472 5.399234,-0.08359 6.406751,0.129113 7.931037,1.674355 1.205003,1.221569 1.866226,2.319042 2.144002,3.558536 0.119097,0.531434 0.311396,1.143483 0.427331,1.36011 0.319587,0.597154 0.621611,3.270633 0.876769,7.76105 0.296022,5.209586 0.298535,8.646866 0.009,12.370489 -0.287477,3.697693 -0.520792,5.176051 -1.077745,6.828925 -1.043819,3.097751 -2.436798,4.814778 -4.616995,5.691047 -1.186849,0.477021 -1.564431,0.514955 -5.223881,0.524829 -2.169509,0.0059 -4.213403,-0.03208 -4.541985,-0.08429 z m 7.927141,-7.193699 c 0.713909,-0.369177 0.947151,-0.88662 1.495861,-3.318535 0.506474,-2.244719 0.696512,-8.060277 0.46334,-14.179105 -0.138354,-3.630622 -0.233884,-4.459585 -0.642788,-5.577773 -0.642073,-1.755811 -1.385946,-2.448799 -2.771522,-2.581935 -1.851557,-0.177911 -1.716827,-1.191283 -1.716827,12.913163 0,14.197477 -0.09732,13.422579 1.655555,13.182321 0.500736,-0.06863 1.183108,-0.265795 1.516381,-0.438136 z"
       style="opacity:1;fill:#0d0d0d;fill-opacity:1" />
    <path
       transform="translate(0,664.36216)"
       id="path4459"
       d="m 24.510784,67.926269 c -1.033767,-0.11104 -1.34149,-0.42065 -1.198736,-1.206081 0.06513,-0.35833 0.263481,-1.611 0.440785,-2.783708 0.177303,-1.172708 0.427012,-2.61194 0.55491,-3.198294 0.127898,-0.586354 0.414303,-2.265459 0.636457,-3.731343 0.222153,-1.465885 0.505034,-3.14499 0.628624,-3.731344 0.12359,-0.586354 0.366767,-2.001599 0.540395,-3.144989 l 0.631372,-4.157783 c 0.173627,-1.14339 0.420329,-2.558635 0.548227,-3.144989 0.127897,-0.586354 0.400904,-2.265458 0.606681,-3.731343 0.205777,-1.465885 0.479525,-3.001066 0.608328,-3.411514 0.128802,-0.410448 0.340809,-1.703005 0.471126,-2.872349 0.232884,-2.089703 0.669827,-3.782684 1.114585,-4.318585 0.234886,-0.28302 5.120977,-0.397215 6.072706,-0.141929 0.55251,0.148203 0.845051,0.845414 1.019097,2.428812 0.0709,0.644989 0.27018,1.796375 0.442853,2.558635 0.293729,1.296663 0.47779,2.447727 1.295602,8.102346 0.178086,1.231343 0.46167,2.766524 0.630187,3.411513 0.168517,0.64499 0.402475,2.102855 0.519906,3.2397 0.117431,1.136845 0.35146,2.596612 0.520063,3.243925 0.168604,0.647314 0.368401,1.876015 0.443993,2.73045 0.07559,0.854433 0.273265,2.046738 0.439273,2.649563 0.166008,0.602827 0.397016,2.013968 0.513351,3.13587 0.116335,1.121902 0.404557,2.90645 0.640492,3.965661 0.578134,2.595484 0.570283,3.758699 -0.02753,4.07864 -0.673136,0.360251 -4.565786,0.170272 -4.979059,-0.243 -0.185011,-0.185011 -0.412284,-1.075322 -0.542372,-2.124664 -0.297576,-2.400358 -0.79664,-5.169127 -1.053496,-5.84471 l -0.207483,-0.54572 -2.782409,0 -2.78241,0 -0.207942,0.546929 c -0.114369,0.300811 -0.207943,0.834838 -0.207943,1.186725 0,0.351887 -0.09946,0.825636 -0.221017,1.052772 -0.12156,0.227137 -0.315562,1.252279 -0.431115,2.278094 -0.331403,2.942009 -0.402845,3.23009 -0.861981,3.475812 -0.455649,0.243855 -2.570064,0.380676 -3.815521,0.246898 z m 10.28069,-15.902983 c 0.0532,-0.278271 0.02483,-0.9739 -0.06302,-1.545842 -0.08786,-0.571945 -0.303546,-1.951412 -0.479312,-3.065484 -0.175766,-1.114073 -0.384417,-2.77066 -0.46367,-3.681307 -0.142246,-1.63447 -0.446682,-2.288842 -1.064847,-2.288842 -0.199197,0 -0.33044,0.442489 -0.426876,1.439232 -0.22163,2.290715 -0.717526,6.021848 -0.978283,7.360618 -0.131823,0.676806 -0.179987,1.468384 -0.107032,1.759062 0.12712,0.506484 0.202524,0.528508 1.809485,0.528508 1.595354,0 1.681538,-0.02459 1.773556,-0.505945 z"
       style="opacity:1;fill:#0d0d0d;fill-opacity:1" />
    <path
       transform="translate(0,664.36216)"
       id="path4463"
       d="m 180.5514,206.58066 c -0.0585,-0.0585 -0.91403,-0.21018 -1.9012,-0.33706 -1.88735,-0.2426 -6.04034,-1.32395 -6.99223,-1.82063 -0.30776,-0.16058 -0.63425,-0.29256 -0.72554,-0.29328 -0.24663,-0.002 -3.11693,-1.41918 -4.09841,-2.02362 -0.46908,-0.28888 -1.14072,-0.68518 -1.49254,-0.88067 -1.0209,-0.56727 -3.90451,-3.00464 -5.75998,-4.86864 -2.08457,-2.09413 -3.10483,-3.33081 -4.58256,-5.55461 -0.62342,-0.93816 -1.29617,-1.94715 -1.495,-2.24218 -0.19884,-0.29503 -0.67076,-1.15857 -1.04871,-1.91898 -0.37795,-0.7604 -0.77741,-1.52647 -0.88769,-1.70238 -0.11028,-0.1759 -0.34419,-0.65565 -0.51978,-1.0661 -0.1756,-0.41044 -0.45582,-1.03411 -0.6227,-1.38592 -0.16688,-0.35182 -0.57903,-1.35928 -0.91589,-2.23881 -0.56771,-1.48226 -0.79506,-2.17802 -1.95089,-5.97015 -0.23233,-0.76226 -0.52388,-1.96213 -0.64789,-2.66638 -0.12401,-0.70425 -0.32429,-1.61577 -0.44508,-2.02559 -0.31978,-1.08498 -0.83753,-6.40157 -0.84243,-8.65053 -0.0111,-5.08897 1.0096,-10.34746 2.76971,-14.26944 0.69522,-1.54913 0.8739,-1.9093 1.45146,-2.92581 1.39222,-2.45033 2.28582,-3.59102 4.89884,-6.25343 2.06092,-2.09989 2.67075,-2.297 3.42976,-1.10861 0.40885,0.64017 0.66298,1.00276 1.99768,2.85042 0.26418,0.36571 0.93242,1.33847 1.48498,2.1617 0.55257,0.82323 1.35041,1.86337 1.77298,2.31143 0.84786,0.89899 0.87557,0.67175 -0.33543,2.75108 -0.34149,0.58636 -0.68244,1.21002 -0.75767,1.38593 -0.0752,0.17591 -0.32313,0.72236 -0.55089,1.21434 -0.65364,1.4119 -1.43998,5.27592 -1.57352,7.73225 -0.1724,3.17103 0.58362,9.57708 1.49824,12.6952 0.20639,0.70362 0.60998,2.09488 0.89686,3.09168 0.65862,2.28848 1.47726,4.56792 2.00614,5.58596 0.2253,0.43368 0.40964,0.90335 0.40964,1.04372 0,0.28268 1.24097,2.80785 2.03354,4.13792 0.27952,0.46908 0.66709,1.13354 0.86127,1.47657 1.26142,2.22842 4.53871,5.89207 6.67065,7.45705 1.64714,1.20912 4.05019,2.37664 6.21279,3.0185 1.87337,0.55601 2.28994,0.60045 5.54371,0.59136 3.50719,-0.01 4.10326,-0.0864 6.92963,-0.89081 2.89657,-0.82437 4.79024,-1.59257 4.91798,-1.99507 0.10829,-0.34118 -0.42503,-1.18619 -1.80168,-2.85459 -0.10585,-0.12828 -0.34857,-0.51208 -0.53938,-0.85288 -0.19082,-0.3408 -0.77512,-1.19534 -1.29845,-1.89896 -0.52333,-0.70363 -1.38905,-1.90299 -1.92381,-2.66525 -0.53477,-0.76226 -1.49674,-2.10554 -2.13773,-2.98507 -1.01331,-1.39043 -2.13101,-2.98185 -3.44427,-4.90405 -0.2003,-0.29318 -0.77608,-1.08583 -1.27951,-1.76145 -0.50343,-0.67561 -0.91532,-1.28596 -0.91532,-1.35633 0,-0.0704 -0.36976,-0.57303 -0.8217,-1.11702 -0.45193,-0.544 -0.93814,-1.21074 -1.08046,-1.48166 -0.14232,-0.27091 -0.85294,-1.27837 -1.57914,-2.2388 -0.7262,-0.96043 -1.87879,-2.5618 -2.56131,-3.5586 -0.68252,-0.9968 -1.75952,-2.53199 -2.39333,-3.41152 -0.6338,-0.87953 -1.55055,-2.17484 -2.03721,-2.87846 -0.48665,-0.70363 -1.19283,-1.66311 -1.56928,-2.1322 -0.37645,-0.46908 -0.80968,-1.09275 -0.96274,-1.38592 -0.15306,-0.29318 -0.3381,-0.58103 -0.41121,-0.63966 -0.0731,-0.0586 -0.3226,-0.38396 -0.55443,-0.72294 -0.23183,-0.33897 -0.63775,-0.91467 -0.90203,-1.27931 -0.26428,-0.36465 -0.71969,-0.99882 -1.01202,-1.40927 -0.29233,-0.41045 -0.74774,-1.04953 -1.01203,-1.42018 -0.43104,-0.60453 -1.7412,-2.47868 -2.73356,-3.91031 -0.73744,-1.06385 -0.70098,-1.60794 0.17239,-2.57257 0.71808,-0.79312 2.5587,-2.29859 3.50224,-2.86453 1.6486,-0.98884 2.96222,-1.6433 3.68751,-1.83714 0.47358,-0.12658 0.96513,-0.31529 1.09232,-0.41935 0.12719,-0.10407 0.94276,-0.33558 1.81237,-0.51448 0.86961,-0.17889 2.20477,-0.46616 2.96703,-0.63837 2.35492,-0.53203 5.50165,-0.4202 8.21509,0.29195 2.21395,0.58106 4.43353,1.48912 5.66571,2.31793 0.30502,0.20516 0.83274,0.56056 1.17271,0.78977 1.8483,1.24615 4.46268,3.95308 6.05523,6.26961 0.90935,1.32274 2.19022,3.47937 2.74053,4.61428 1.24348,2.56447 2.80318,6.47593 2.80318,7.0299 0,0.19104 0.14363,0.62511 0.31918,0.96459 0.31601,0.61108 0.92807,2.86674 1.50459,5.54496 0.16409,0.76226 0.46853,2.15352 0.67652,3.09168 0.29894,1.34836 0.37818,2.68861 0.37818,6.39659 0,5.6026 -0.22943,6.76946 -2.11716,10.76759 -1.2948,2.74232 -4.42204,6.07854 -6.52767,6.96389 -0.83476,0.35099 -0.81714,0.9513 0.0627,2.13774 1.46946,1.98145 1.78879,2.42761 2.71855,3.79816 0.52772,0.77791 1.22335,1.75699 1.54584,2.17574 0.3225,0.41875 0.58635,0.89149 0.58635,1.05053 0,0.34335 -1.63134,1.57117 -2.08752,1.57117 -0.17479,0 -0.7121,0.18298 -1.19403,0.40662 -2.50256,1.16133 -6.26774,2.09462 -12.02091,2.97969 -1.52568,0.23471 -8.19273,0.33953 -8.4002,0.13207 z"
       style="opacity:1;fill:#fdfdfd;fill-opacity:1" />
    <path
       transform="translate(0,664.36216)"
       id="path4469"
       d="m 31.225675,52.100677 c -0.07481,-0.235705 0.111721,-2.226643 0.414514,-4.424307 0.819747,-5.949714 0.844755,-6.087855 1.11841,-6.177853 0.511583,-0.168246 0.90416,0.967691 1.233103,3.568027 0.185435,1.465885 0.461725,3.539385 0.613977,4.607777 0.389569,2.733702 0.319418,2.85491 -1.652337,2.85491 -1.407006,0 -1.607429,-0.04972 -1.727667,-0.428554 z"
       style="opacity:1;fill:#fdfdfd;fill-opacity:1" />
    <path
       transform="translate(0,664.36216)"
       id="path4471"
       d="m 51.154112,60.941634 c -0.263384,-0.317197 -0.321108,-2.216423 -0.373299,-12.28214 -0.04165,-8.032119 0.01307,-12.184731 0.168133,-12.760598 0.219725,-0.815995 0.267619,-0.853674 1.085119,-0.853674 1.618738,0 2.528564,0.762818 3.20603,2.688003 0.942284,2.677732 0.992974,16.677588 0.07326,20.233106 -0.662728,2.562034 -1.027935,2.964032 -2.929553,3.224678 -0.7211,0.09884 -0.984986,0.04532 -1.229688,-0.249375 z"
       style="opacity:1;fill:#fdfdfd;fill-opacity:1" />
    <path
       transform="translate(0,664.36216)"
       id="path4473"
       d="m 146.32044,61.43115 c -1.15366,-1.261698 -1.18558,-1.473627 -1.38893,-9.221749 -0.12101,-4.610636 -0.11304,-8.745252 0.0219,-11.358728 0.18945,-3.669457 0.26493,-4.203714 0.70524,-4.991773 0.27119,-0.485382 0.76134,-1.080939 1.0892,-1.323461 0.54491,-0.403064 0.64387,-0.413846 1.15174,-0.125498 1.21266,0.688489 1.75891,1.695406 2.0032,3.6925 0.30639,2.504858 0.14445,20.425617 -0.19396,21.463037 -0.13389,0.410448 -0.54024,1.106077 -0.903,1.545842 -0.7982,0.967642 -1.77778,1.0937 -2.48538,0.31983 z"
       style="opacity:1;fill:#fdfdfd;fill-opacity:1" />
    <path
       transform="translate(0,664.36216)"
       id="path4475"
       d="m 237.79269,61.397996 c -0.27418,-0.291848 -0.57832,-0.943493 -0.67587,-1.4481 -0.25075,-1.297042 -0.23721,-5.652289 0.0218,-7.018113 0.38423,-2.026034 1.61348,-2.664618 2.50648,-1.302092 0.31641,0.482778 0.36745,1.144651 0.36745,4.764938 0,3.937779 -0.0284,4.242487 -0.44783,4.806969 -0.58559,0.788081 -1.15672,0.851381 -1.77204,0.196398 z"
       style="opacity:1;fill:#fdfdfd;fill-opacity:1" />
    <path
       transform="translate(0,664.36216)"
       id="path4477"
       d="m 237.91868,42.940991 c -0.72787,-0.865026 -0.85437,-1.655668 -0.74694,-4.668712 0.0717,-2.010695 0.17392,-2.652169 0.51641,-3.240174 0.55303,-0.949469 1.21364,-1.05541 1.72458,-0.276566 0.32405,0.493958 0.39777,1.143008 0.45553,4.010931 l 0.0689,3.421609 -0.73206,0.705883 -0.73205,0.705883 -0.55439,-0.658854 z"
       style="opacity:1;fill:#fdfdfd;fill-opacity:1" />
    <path
       transform="translate(0,664.36216)"
       id="path4485"
       d="m 20.85235,365.38875 c -0.356149,-0.0699 -0.4808,-0.29672 -0.586354,-1.06682 -0.173921,-1.2689 -0.170539,-11.63857 0.0075,-23.14664 l 0.141057,-9.11514 24.698756,0 24.698757,0 0,3.50068 c 0,1.92538 -0.05824,3.65246 -0.129422,3.83796 -0.1161,0.30255 -1.548071,0.33853 -13.91258,0.34955 -7.580736,0.007 -14.166953,0.0801 -14.636036,0.16305 l -0.852879,0.15077 -0.061,1.94621 c -0.08493,2.70964 -0.214237,2.62526 4.074101,2.65835 12.587273,0.0971 20.394941,0.30816 20.644437,0.55803 0.181339,0.18161 0.268312,1.11956 0.276794,2.98508 0.01533,3.37007 -0.08877,3.79592 -0.971009,3.97237 -0.367991,0.0736 -5.526486,0.13934 -11.46332,0.1461 -5.936834,0.007 -11.178038,0.0802 -11.647121,0.16317 l -0.852879,0.15088 -0.06018,2.38428 c -0.05681,2.25052 -0.03454,2.39801 0.396848,2.62888 0.324879,0.17387 4.765883,0.27912 15.358691,0.36399 l 14.901659,0.11939 0,3.69837 0,3.69837 -24.78678,-0.029 c -13.632729,-0.016 -24.990317,-0.069 -25.239083,-0.11784 z"
       style="opacity:1;fill:#fdfdfd;fill-opacity:1" />
    <path
       transform="translate(0,664.36216)"
       id="path4487"
       d="m 101.12474,366.5 c -0.0559,-0.0559 -1.535158,-0.25212 -3.287132,-0.43593 -7.618673,-0.79933 -13.201815,-2.83453 -16.555031,-6.03474 -2.429302,-2.31846 -3.080674,-4.01631 -1.736844,-4.52724 0.299477,-0.11386 4.276015,-0.201 9.172175,-0.201 l 8.643491,0 1.048248,0.94246 c 2.192353,1.97112 4.639533,2.58011 9.675393,2.40778 3.15393,-0.10794 4.36216,-0.33505 5.83536,-1.09687 1.59197,-0.82324 1.15405,-2.13594 -0.98975,-2.96689 -1.44478,-0.56001 -5.58843,-1.39029 -8.13875,-1.63079 -1.28615,-0.12129 -2.4626,-0.26436 -2.61434,-0.31794 -0.15174,-0.0536 -1.61918,-0.28889 -3.260967,-0.52291 -8.849716,-1.2614 -14.134273,-3.01263 -16.854556,-5.58536 -1.507587,-1.42581 -2.071491,-2.76196 -2.071491,-4.90831 0,-2.54642 0.874742,-4.06454 3.366516,-5.84264 2.711278,-1.93473 5.99009,-3.0769 11.656519,-4.06054 3.140853,-0.54522 3.559495,-0.56625 11.152479,-0.56031 7.46249,0.006 8.05099,0.035 10.88229,0.53974 3.92471,0.69962 6.34732,1.45008 8.9145,2.76144 3.68913,1.88448 6.53693,5.0857 6.00767,6.75325 -0.13893,0.43774 -0.22335,0.44183 -9.11055,0.44183 l -8.97032,0 -0.89403,-0.82409 c -1.16647,-1.07521 -2.86518,-1.69145 -5.38209,-1.95244 -2.20011,-0.22814 -6.35595,0.0411 -7.17714,0.46495 -1.312979,0.67771 -1.565326,1.5668 -0.649224,2.28741 1.345454,1.05833 3.982054,1.65653 12.298244,2.79025 8.89002,1.21195 14.37844,2.55505 17.73954,4.34112 1.49366,0.79373 3.28705,2.48521 3.80205,3.586 0.26187,0.55972 0.36422,1.33782 0.36422,2.7688 0,1.74342 -0.072,2.13266 -0.58067,3.13796 -1.92353,3.8018 -8.25196,6.67764 -16.92742,7.69235 -3.90233,0.45643 -15.05335,0.85769 -15.35839,0.55266 z"
       style="opacity:1;fill:#fdfdfd;fill-opacity:1" />
    <path
       transform="translate(0,664.36216)"
       id="path4489"
       d="m 144.11812,362.10142 c -0.0859,-1.88881 -0.0849,-9.42476 0.002,-16.74656 l 0.15847,-13.31235 20.81567,0.067 20.81568,0.067 2.98507,0.58737 c 5.00296,0.98442 7.42987,1.97182 9.26483,3.76944 1.47985,1.44976 1.78979,2.27311 1.80759,4.80187 0.0139,1.97349 -0.0315,2.21613 -0.6097,3.25979 -1.24318,2.24397 -3.74624,3.89316 -7.00662,4.61644 -0.35639,0.0791 -0.5372,0.22566 -0.45078,0.36548 0.17914,0.28985 2.72809,1.45978 3.18046,1.45978 0.59296,0 2.41624,1.04694 3.21589,1.8466 0.4293,0.42929 0.96415,1.19561 1.18856,1.70293 0.42391,0.95831 0.7969,4.09167 0.80984,6.80319 0.006,1.29801 0.0948,1.64229 0.64684,2.51273 0.35181,0.55475 0.63966,1.09006 0.63966,1.18959 0,0.38398 -1.24793,0.43817 -10.15694,0.44099 l -9.19746,0.003 -0.3821,-0.79958 c -0.34747,-0.72711 -0.49675,-1.78361 -0.85759,-6.06921 -0.19275,-2.28931 -1.20299,-3.39495 -3.84866,-4.21212 -1.90816,-0.58937 -10.87107,-0.87254 -12.03654,-0.38028 l -0.76501,0.32312 -0.13399,5.3921 c -0.10034,4.03752 -0.20276,5.43572 -0.40771,5.56576 -0.15053,0.0955 -4.60446,0.17515 -9.8976,0.17694 l -9.6239,0.003 -0.15622,-3.43421 z m 32.35842,-15.96892 c 2.38587,-0.23209 4.01541,-0.83377 4.64224,-1.71407 0.91005,-1.27805 0.3312,-2.62382 -1.56278,-3.6333 -1.55199,-0.8272 -3.4737,-1.02609 -10.04693,-1.03978 -3.86017,-0.008 -4.51332,0.0382 -4.85074,0.34358 -0.33526,0.3034 -0.38993,0.70123 -0.38993,2.83771 0,2.59647 0.14139,3.07831 0.95949,3.26989 0.79763,0.18679 9.15958,0.13919 11.24865,-0.064 z"
       style="opacity:1;fill:#fdfdfd;fill-opacity:1" />
    <path
       transform="translate(0,664.36216)"
       id="path4491"
       d="m 212.94661,364.97623 c -0.22753,-0.81731 -0.22077,-32.40417 0.007,-32.63182 0.0978,-0.0977 9.11694,-0.17765 20.04264,-0.17765 l 19.86492,0 2.66524,0.50379 c 6.70587,1.26757 9.70316,3.01102 10.67457,6.20918 l 0.42691,1.40553 -0.4314,1.39673 c -0.36284,1.17474 -0.62659,1.58051 -1.65948,2.5531 -0.67545,0.63601 -2.01972,1.63012 -2.98728,2.20913 -0.96756,0.57901 -1.68718,1.11798 -1.59915,1.19771 0.088,0.0797 0.54385,0.26409 1.01293,0.40971 1.88022,0.58367 4.7562,2.13013 5.74051,3.08677 1.3832,1.34431 1.8993,2.5875 1.88715,4.54579 -0.0186,3.00154 -1.61496,5.17112 -5.04261,6.85339 -0.95936,0.47085 -2.84497,1.1475 -4.19025,1.50367 -4.71112,1.24732 -5.70289,1.30003 -26.9021,1.42985 l -19.33885,0.11842 -0.17074,-0.6133 z m 29.48718,-7.10467 c 4.04009,-0.23522 5.92662,-0.73764 6.89007,-1.83494 0.93034,-1.0596 0.90199,-1.9704 -0.0884,-2.83996 -1.41714,-1.24427 -2.46053,-1.39864 -9.50695,-1.40658 -5.0421,-0.006 -6.38062,0.0517 -6.66311,0.28551 -0.29069,0.24063 -0.35351,0.71649 -0.35351,2.6778 0,2.7372 0.13539,3.04651 1.38593,3.16622 1.64733,0.1577 5.14888,0.13751 8.33596,-0.048 z m 2.74758,-13.04646 c 1.08894,-0.36796 2.66912,-1.86393 2.66912,-2.52688 0,-0.30049 -0.33292,-0.81271 -0.84464,-1.29949 -1.1079,-1.05392 -1.8676,-1.15607 -8.59816,-1.15607 -4.46583,0 -5.31636,0.0496 -5.48714,0.31983 -0.11117,0.17591 -0.20359,1.3064 -0.20538,2.5122 -0.003,2.07191 0.0231,2.2037 0.47648,2.39837 0.73833,0.31702 10.94222,0.106 11.98972,-0.24796 z"
       style="opacity:1;fill:#fdfdfd;fill-opacity:1" />
    <path
       transform="translate(0,664.36216)"
       id="path4497"
       d="m 19.846963,281.5804 c -0.07743,-3.95789 -0.140928,-35.38113 -0.141116,-69.82942 -2.27e-4,-41.61314 -0.0719,-62.63326 -0.213561,-62.63326 -0.141102,0 -0.21322,-9.80811 -0.21322,-28.99787 0,-28.713576 0.0042,-29.00205 0.426439,-29.424308 0.425458,-0.425458 0.710732,-0.426439 123.971975,-0.426439 112.02984,0 123.57677,0.03123 123.88061,0.335059 0.18428,0.184283 0.33573,0.688014 0.33658,1.119403 0.058,29.567025 -0.0465,57.301685 -0.21616,57.358615 -0.1397,0.0469 -0.21181,23.83894 -0.21181,69.88273 l 0,69.81166 -4.99171,0 -4.9917,0 -0.55139,-0.65528 c -0.74571,-0.88624 -2.57964,-2.24467 -3.75092,-2.77842 -0.52771,-0.24048 -1.22375,-0.5794 -1.54673,-0.75316 -1.01235,-0.54462 -4.88896,-0.86781 -7.10271,-0.59214 -3.12655,0.38933 -6.24678,1.91585 -8.09294,3.95933 l -0.74051,0.81967 -60.34171,0 -60.34171,0 0,-9.67539 c 0,-7.48664 0.0603,-9.72269 0.26653,-9.88449 0.43712,-0.34296 2.27892,-0.933 4.21109,-1.34908 0.9968,-0.21465 2.81983,-0.64127 4.05117,-0.94803 1.23134,-0.30677 2.8145,-0.69111 3.51812,-0.85409 0.70363,-0.16298 1.99894,-0.48703 2.87847,-0.72011 2.45681,-0.65107 4.2137,-1.10032 6.02345,-1.54026 l 3.3049,-0.80338 c 1.72646,-0.41969 3.33446,-0.82996 6.02346,-1.53687 0.87953,-0.23122 2.14641,-0.50755 2.81529,-0.61406 0.66888,-0.10652 1.38849,-0.28586 1.59914,-0.39854 0.21066,-0.11268 1.00668,-0.32033 1.76894,-0.46146 0.76226,-0.14112 1.96162,-0.42626 2.66524,-0.63364 1.72559,-0.50859 3.95868,-1.06121 5.71167,-1.41345 0.796,-0.15995 1.61508,-0.38063 1.82018,-0.49039 0.2051,-0.10977 1.16492,-0.34982 2.13293,-0.53345 0.96802,-0.18363 1.93085,-0.42529 2.13963,-0.53702 0.20877,-0.11174 1.04438,-0.31689 1.85689,-0.4559 0.81251,-0.13902 1.64717,-0.34113 1.8548,-0.44915 0.20763,-0.10802 1.1837,-0.36772 2.16906,-0.5771 1.37133,-0.29139 1.92259,-0.32659 2.35021,-0.15007 0.53676,0.22158 1.23884,1.17841 1.91858,2.61476 0.17657,0.37311 0.42823,0.74463 0.55925,0.8256 0.13101,0.081 0.3776,0.44734 0.54798,0.81415 0.39659,0.85386 1.16696,2.12698 1.58824,2.62477 0.18041,0.21317 0.78982,1.15517 1.35424,2.09334 1.17024,1.94513 1.55729,2.56527 2.99421,4.79744 0.56618,0.87953 1.23783,1.93497 1.49254,2.34542 0.25471,0.41045 0.89879,1.41791 1.43128,2.2388 0.53249,0.8209 1.05196,1.6463 1.15437,1.83423 0.10241,0.18793 0.44386,0.64367 0.75876,1.01276 0.51736,0.60637 0.63043,0.64896 1.17271,0.44179 0.33008,-0.1261 1.12787,-0.32391 1.77286,-0.43957 0.64499,-0.11565 1.7484,-0.38627 2.45202,-0.60136 0.70363,-0.2151 1.75906,-0.49147 2.34542,-0.61417 1.2452,-0.26055 2.68354,-0.61194 8.42217,-2.05755 0.76226,-0.19202 2.15352,-0.53017 3.09169,-0.75144 0.93816,-0.22127 2.2304,-0.55107 2.87162,-0.7329 0.64123,-0.18182 1.33648,-0.33059 1.545,-0.33059 0.20852,0 0.93121,-0.18361 1.60598,-0.40802 0.67478,-0.22441 1.61066,-0.46991 2.07974,-0.54556 0.46909,-0.0756 1.47655,-0.3195 2.23881,-0.54191 1.91079,-0.55752 3.86535,-1.03234 5.7563,-1.39835 0.87918,-0.17018 1.98259,-0.44609 2.45202,-0.61313 0.46943,-0.16705 1.23731,-0.36099 1.70639,-0.43098 0.46908,-0.07 1.47655,-0.31093 2.23881,-0.53541 1.71078,-0.50382 3.69091,-0.9939 5.65032,-1.39845 0.82089,-0.16949 1.72371,-0.40978 2.00627,-0.53399 0.28255,-0.12422 1.2865,-0.37243 2.231,-0.5516 0.94448,-0.17917 1.88356,-0.41476 2.08682,-0.52354 0.20326,-0.10879 1.07032,-0.33378 1.92678,-0.49999 1.66576,-0.32327 3.03923,-0.82548 3.26746,-1.19476 0.0771,-0.1248 -0.0124,-0.43809 -0.19882,-0.69619 -0.18649,-0.2581 -0.79476,-1.12955 -1.35169,-1.93655 -0.55693,-0.80701 -1.22883,-1.7665 -1.49311,-2.1322 -0.26429,-0.3657 -0.71676,-1.00074 -1.0055,-1.41118 -0.28872,-0.41045 -0.81405,-1.13007 -1.16736,-1.59915 -0.35332,-0.46909 -0.7342,-1.0587 -0.84642,-1.31026 -0.11219,-0.25156 -0.28215,-0.49143 -0.37769,-0.53305 -0.0955,-0.0416 -0.43612,-0.45946 -0.75687,-0.92855 -0.32075,-0.46908 -1.01437,-1.42857 -1.54143,-2.13219 -0.52703,-0.70363 -1.11661,-1.56248 -1.31015,-1.90855 -0.19354,-0.34608 -0.45938,-0.74813 -0.59076,-0.89345 -0.13139,-0.14532 -0.47875,-0.60971 -0.77192,-1.03199 -0.29318,-0.42228 -0.77292,-1.0957 -1.0661,-1.4965 -0.29318,-0.4008 -0.75218,-1.04451 -1.02,-1.43046 -0.26781,-0.38596 -0.98742,-1.39108 -1.59914,-2.23362 -1.32478,-1.82466 -1.54256,-2.13303 -2.02388,-2.86571 -0.61964,-0.94324 -1.16942,-1.71885 -2.39938,-3.38493 -0.6493,-0.87953 -1.36929,-1.87649 -1.59999,-2.21547 -0.23069,-0.33897 -0.61134,-0.87806 -0.84588,-1.19796 -0.23455,-0.3199 -0.90619,-1.27853 -1.49254,-2.13028 -0.58636,-0.85174 -1.258,-1.81037 -1.49254,-2.13027 -0.23454,-0.3199 -0.61834,-0.85899 -0.85288,-1.19796 -0.23454,-0.33898 -0.85821,-1.20471 -1.38592,-1.92385 -0.9982,-1.36027 -1.25655,-1.72804 -1.87117,-2.66363 -0.82973,-1.26306 -1.21578,-1.80399 -1.52956,-2.14323 -0.18184,-0.1966 -0.55205,-0.67635 -0.82269,-1.0661 -1.97984,-2.85125 -4.45958,-6.35872 -5.63799,-7.97468 -0.55704,-0.76387 -1.0128,-1.43137 -1.0128,-1.48334 0,-0.052 -0.41189,-0.64725 -0.91532,-1.32287 -0.95799,-1.28566 -1.28921,-1.75592 -2.19936,-3.12266 -0.49619,-0.74511 -0.52269,-0.88207 -0.26425,-1.3656 0.15799,-0.29558 0.59293,-0.66522 0.96655,-0.82143 0.64356,-0.26907 2.01167,-1.10366 2.55613,-1.55932 0.13769,-0.11524 0.53763,-0.38423 0.88876,-0.59776 1.81616,-1.10447 5.01033,-4.23303 6.86399,-6.723 0.69957,-0.93971 1.27195,-1.80646 1.27195,-1.9261 0,-0.11965 0.12996,-0.36902 0.2888,-0.55416 0.63432,-0.73936 2.35614,-4.43628 2.58977,-5.5605 0.0853,-0.41044 0.29467,-1.08209 0.46527,-1.49253 0.40263,-0.96867 1.10555,-5.03046 1.37451,-7.94243 0.29326,-3.17512 -0.35499,-9.88285 -1.31362,-13.59275 -0.22727,-0.87954 -0.47624,-1.887 -0.55328,-2.23881 -0.077,-0.35181 -0.41158,-1.45522 -0.74346,-2.45203 -0.33187,-0.9968 -0.75635,-2.29211 -0.94328,-2.87846 -0.35755,-1.12158 -0.73352,-2.0121 -1.66538,-3.94456 -0.31102,-0.64499 -0.66176,-1.41258 -0.77942,-1.70576 -0.84272,-2.09981 -3.30328,-5.95133 -5.51677,-8.6354 -2.94234,-3.56785 -6.13778,-6.33291 -9.51444,-8.23296 -1.07854,-0.60689 -3.70937,-1.89457 -3.88519,-1.90163 -0.0913,-0.004 -0.64573,-0.24267 -1.23208,-0.5311 -0.58636,-0.28844 -1.258,-0.52952 -1.49254,-0.53574 -0.23454,-0.006 -0.81024,-0.15255 -1.27932,-0.32518 -1.45729,-0.53631 -6.06314,-1.23229 -8.742,-1.321 -2.69225,-0.0892 -8.54387,0.52603 -10.66098,1.12079 -0.58636,0.16472 -1.77233,0.44499 -2.6355,0.62281 -0.86316,0.17782 -1.67873,0.41113 -1.81236,0.51846 -0.13364,0.10734 -0.5788,0.26361 -0.98924,0.34727 -1.72799,0.3522 -8.65843,3.7147 -9.95357,4.82926 -0.21317,0.18345 -0.55264,0.39199 -0.75437,0.46343 -0.20172,0.0714 -0.42605,0.36604 -0.49849,0.65467 -0.10816,0.43098 0.3576,1.22028 2.60559,4.41556 1.50551,2.13993 3.00116,4.1553 3.32365,4.47861 0.72555,0.72738 0.73044,0.98506 0.0363,1.91183 -1.10604,1.47678 -2.23891,4.20721 -2.80286,6.75541 -0.45879,2.07303 -0.55616,3.0622 -0.56167,5.70606 -0.004,1.75906 0.10262,3.82196 0.23619,4.58422 0.13356,0.76226 0.35314,2.15352 0.48794,3.09169 0.40046,2.78692 2.20973,9.00461 3.52839,12.12555 1.09775,2.59809 1.41823,3.2604 2.59291,5.35846 2.33299,4.16689 5.95972,8.11165 9.09881,9.89669 0.91059,0.5178 2.63026,1.28113 3.82149,1.69629 2.05269,0.71537 2.34069,0.75925 5.51059,0.83964 2.55983,0.0649 3.75947,8.5e-4 5.11217,-0.27332 3.14118,-0.63648 7.42798,-2.15825 7.42798,-2.63686 0,-0.0937 -0.38904,-0.69143 -0.86454,-1.32828 -0.47549,-0.63686 -1.48668,-2.06943 -2.24708,-3.1835 -0.7604,-1.11408 -1.56483,-2.26546 -1.78763,-2.55864 -0.22279,-0.29318 -2.23975,-3.12367 -4.48214,-6.28998 -3.85121,-5.43801 -6.62244,-9.33515 -16.03374,-22.54808 -2.19262,-3.0783 -4.18942,-5.88475 -4.43734,-6.23657 -0.24792,-0.35181 -1.16452,-1.64536 -2.03688,-2.87456 -2.05314,-2.89296 -2.07852,-3.23823 -0.36011,-4.89975 3.76224,-3.63768 9.19144,-5.72237 15.42552,-5.92305 2.84391,-0.0915 3.29628,-0.0526 5.24939,0.45176 2.43746,0.62944 4.44581,1.47819 6.20229,2.62113 4.80821,3.12873 9.14277,9.22897 11.71561,16.48801 0.3533,0.99681 0.76108,2.14819 0.90618,2.55864 0.52272,1.47861 1.30256,4.42906 1.9725,7.46269 0.66398,3.00666 0.68244,3.22946 0.67135,8.10234 -0.0109,4.78763 -0.0364,5.09255 -0.57293,6.8504 -1.42692,4.67492 -3.79191,8.0559 -7.2373,10.34639 -0.79392,0.52779 -1.44349,1.07717 -1.44349,1.22083 0,0.14367 1.24734,2.02264 2.77186,4.1755 1.52452,2.15286 2.77185,4.02614 2.77185,4.16286 0,0.28879 -0.76034,1.02012 -1.40539,1.35175 -1.09082,0.56083 -5.0777,1.91221 -7.33661,2.4868 -7.33611,1.86602 -15.27507,1.88007 -21.53518,0.0381 -6.48524,-1.90819 -12.4674,-6.00423 -17.18649,-11.76771 -6.57591,-8.03125 -11.36519,-21.84982 -11.3786,-32.83081 -0.009,-7.44555 2.36713,-15.04795 6.29788,-20.14926 1.38815,-1.80153 4.3126,-4.69762 4.97777,-4.9295 0.48153,-0.16786 0.57626,-0.3076 0.49538,-0.73071 -0.055,-0.28774 -0.17791,-0.52316 -0.27312,-0.52316 -0.18984,0 -1.54339,-1.74477 -2.87262,-3.70289 -0.46701,-0.68797 -1.04101,-1.51895 -1.27555,-1.84661 -0.63404,-0.88577 -2.24801,-3.19431 -2.825,-4.04072 -0.27805,-0.40788 -0.57174,-0.79168 -0.65264,-0.85288 -0.0809,-0.0612 -0.5296,-0.68696 -0.9971,-1.39059 -0.4675,-0.70362 -0.91749,-1.32939 -0.99997,-1.39058 -0.0825,-0.0612 -0.37747,-0.445 -0.65552,-0.85288 -0.61472,-0.90175 -2.24038,-3.22517 -2.825,-4.03752 -0.23454,-0.32591 -0.88233,-1.25283 -1.43953,-2.05984 -1.90741,-2.76255 -2.97015,-4.23958 -3.66375,-5.09201 -0.38168,-0.46908 -0.81781,-1.08671 -0.96917,-1.3725 -0.15137,-0.28579 -0.35626,-0.62161 -0.45531,-0.74627 -0.36957,-0.4651 -2.24041,-3.02079 -2.64616,-3.61483 -0.23153,-0.33897 -0.61286,-0.8795 -0.8474,-1.20116 -0.23454,-0.32166 -0.80735,-1.14773 -1.2729,-1.8357 -0.64828,-0.957991 -2.22515,-3.10382 -3.01141,-4.097975 -0.0327,-0.04139 -0.71329,0.114562 -1.51234,0.346563 -0.79905,0.232001 -1.93256,0.524174 -2.51892,0.649274 -1.52727,0.325848 -3.65149,0.858741 -5.01066,1.257005 -0.64499,0.188995 -1.79637,0.460783 -2.55863,0.603974 -1.67117,0.313928 -3.91415,0.866002 -5.65032,1.390729 -0.70363,0.21266 -1.66311,0.44675 -2.1322,0.52019 -0.46908,0.0734 -1.47654,0.31366 -2.2388,0.5338 -1.4688,0.42419 -3.25621,0.86324 -6.1257,1.50467 -0.96508,0.21572 -1.924568,0.48146 -2.132195,0.59053 -0.207627,0.10906 -0.809273,0.26248 -1.336991,0.34092 -0.527719,0.0784 -1.583156,0.32309 -2.345416,0.54366 -0.76226,0.22058 -2.105544,0.55651 -2.985075,0.74653 -3.0779,0.66498 -3.843343,0.85377 -8.635394,2.12993 -0.703625,0.18738 -2.046909,0.52216 -2.985075,0.74397 -3.708032,0.87667 -11.106706,2.6981 -11.78522,2.90133 -0.149249,0.0447 -0.313017,0.20339 -0.363929,0.35263 -0.05091,0.14925 -0.248284,2.81401 -0.438604,5.92168 -0.190319,3.10768 -0.424718,6.56184 -0.520887,7.67591 -0.09617,1.11407 -0.184467,3.34096 -0.196219,4.94865 -0.01175,1.60768 -0.11825,3.62261 -0.236659,4.47761 -0.284787,2.05634 -0.597744,6.99148 -0.842241,13.28163 -0.109401,2.8145 -0.299109,5.74094 -0.421576,6.5032 -0.122467,0.76226 -0.368392,4.60021 -0.546503,8.52878 -0.178109,3.92857 -0.417143,7.6226 -0.531185,8.20896 -0.114045,0.58635 -0.313049,3.36887 -0.442233,6.18337 -0.129185,2.8145 -0.372633,7.13219 -0.540998,9.59488 -0.168364,2.46269 -0.397347,6.87633 -0.508853,9.8081 -0.111503,2.93177 -0.300899,5.81024 -0.42088,6.39659 -0.119981,0.58635 -0.364337,4.28038 -0.543015,8.20896 -0.178678,3.92857 -0.419921,7.76652 -0.536098,8.52878 -0.116177,0.76226 -0.361785,4.50426 -0.545795,8.31556 -0.184011,3.81131 -0.422832,7.84116 -0.530713,8.95523 -0.10788,1.11407 -0.291492,4.71215 -0.408025,7.99573 -0.116533,3.28359 -0.305644,6.35395 -0.420245,6.82303 -0.1146,0.46909 -0.356233,4.11514 -0.53696,8.10235 -0.180729,3.9872 -0.423876,7.72921 -0.540328,8.31556 -0.116452,0.58636 -0.359393,4.32836 -0.539864,8.31557 -0.180473,3.9872 -0.420196,7.77082 -0.532716,8.40803 -0.11252,0.63721 -0.204582,1.7646 -0.204582,2.50533 l 0,1.34677 -19.15526,0 -19.15526,0 -0.140773,-7.19617 z"
       style="opacity:1;fill:#fdfdfd;fill-opacity:1" />
    <path
       transform="translate(0,664.36216)"
       id="path4499"
       d="m 115.58907,227.74245 c -0.3333,-0.24676 -0.37758,-2.68991 -0.59716,-32.94811 -0.13045,-17.97487 -0.17398,-33.10295 -0.0968,-33.61796 0.19557,-1.30419 0.6309,-1.62456 1.0655,-0.78413 0.18309,0.35405 0.64482,1.09026 1.02607,1.63603 0.38125,0.54577 0.78675,1.15041 0.90111,1.34364 0.23489,0.39692 1.02484,1.68966 1.71303,2.80337 0.25363,0.41044 0.92438,1.46588 1.49056,2.34541 0.56619,0.87953 1.23694,1.93497 1.49057,2.34542 0.8304,1.34384 2.82307,4.4954 3.10073,4.90405 0.25686,0.37802 2.89674,4.63165 3.51105,5.65732 0.23454,0.3916 0.73827,1.15472 1.1194,1.69582 0.38113,0.54109 0.69296,1.0458 0.69296,1.12157 0,0.0758 0.22414,0.47874 0.49809,0.89549 0.81291,1.23669 2.52232,3.90002 3.01807,4.70229 0.25362,0.41045 0.70323,1.13007 0.99912,1.59915 1.46336,2.31991 1.9015,3.01125 2.09453,3.3049 0.23563,0.35846 1.31356,2.06294 2.02263,3.1983 0.25634,0.41045 0.92931,1.46588 1.4955,2.34541 0.56618,0.87954 1.23728,1.93497 1.49132,2.34542 0.25405,0.41045 0.71806,1.15199 1.03113,1.64788 0.31308,0.49589 0.56923,0.95071 0.56923,1.01072 0,0.06 0.43177,0.73978 0.95949,1.51059 0.52772,0.77081 0.95949,1.44727 0.95949,1.50324 0,0.056 0.17688,0.36174 0.39308,0.67949 0.36408,0.53508 0.70708,1.07564 2.02398,3.18966 0.7194,1.15487 2.48865,3.90795 2.91176,4.53092 0.19912,0.29317 0.51727,0.83323 0.70699,1.20012 0.3204,0.6196 0.31896,0.69017 -0.0203,0.99156 -0.53301,0.47356 -1.80098,0.95614 -2.969,1.13 -0.56153,0.0836 -1.50603,0.3183 -2.09891,0.52159 -0.59288,0.2033 -1.50439,0.43575 -2.02559,0.51656 -0.52119,0.0808 -1.52332,0.32465 -2.22694,0.54186 -0.70363,0.2172 -1.72821,0.45537 -2.27686,0.52925 -0.54865,0.0739 -1.52973,0.32137 -2.18018,0.54998 -0.65044,0.22862 -1.42729,0.41566 -1.72633,0.41566 -0.29903,0 -1.0626,0.18238 -1.69681,0.40529 -0.63422,0.22291 -1.56732,0.46784 -2.07357,0.5443 -0.50624,0.0765 -1.54411,0.32078 -2.30637,0.54293 -1.73992,0.50709 -5.05328,1.32134 -9.80811,2.41033 -1.23134,0.28201 -2.50891,0.62265 -2.83904,0.75698 -0.78945,0.32122 -1.8937,0.31071 -2.34349,-0.0223 z"
       style="opacity:1;fill:#fdfdfd;fill-opacity:1" />
    <path
       transform="translate(0,664.36216)"
       id="path4501"
       d="m 25.509015,316.12882 -5.1773,-0.0678 -0.227496,-0.58254 c -0.158442,-0.40573 -0.293599,-25.72638 -0.445273,-83.41837 -0.119778,-45.5597 -0.255376,-90.53572 -0.301329,-99.9467 l -0.08355,-17.11087 24.935789,0 24.935791,0 -0.08979,0.69296 c -0.09877,0.76223 -0.60938,9.20896 -0.950582,15.72495 -0.119745,2.28678 -0.304489,5.11727 -0.410546,6.28998 -0.106056,1.17271 -0.301295,4.48294 -0.433866,7.35607 -0.132571,2.87314 -0.377757,6.90299 -0.544855,8.95523 -0.1671,2.05224 -0.405083,5.84222 -0.528851,8.42217 -0.123767,2.57996 -0.3639,6.27399 -0.533627,8.20896 -0.169727,1.93497 -0.408179,5.48507 -0.529893,7.88912 -0.121714,2.40405 -0.357966,6.57783 -0.525004,9.27506 -0.167039,2.69723 -0.36354,6.39126 -0.436668,8.20895 -0.07313,1.8177 -0.268882,4.84009 -0.435008,6.71642 -0.166124,1.87633 -0.403147,5.47441 -0.526719,7.99574 -0.123571,2.52132 -0.36649,6.40725 -0.539816,8.63539 -0.173329,2.22815 -0.458482,6.78571 -0.633674,10.12793 -0.175194,3.34222 -0.367171,6.46056 -0.426618,6.92964 -0.05945,0.46908 -0.251704,3.90942 -0.427239,7.6452 -0.175538,3.73577 -0.411725,7.66967 -0.524862,8.742 -0.113136,1.07233 -0.306454,4.06056 -0.429597,6.64052 -0.123143,2.57996 -0.366125,6.41791 -0.539963,8.52878 -0.173838,2.11088 -0.462284,6.5725 -0.640992,9.91471 -0.178708,3.34222 -0.424868,6.98828 -0.547023,8.10235 -0.122156,1.11407 -0.30293,3.99254 -0.401723,6.39659 -0.09879,2.40405 -0.324653,6.28998 -0.501915,8.63539 -0.17726,2.34542 -0.352618,5.03199 -0.389682,5.97015 l -0.06739,1.70576 0.615204,0.0704 c 0.338365,0.0387 1.009064,-0.0793 1.490444,-0.26241 0.481379,-0.18308 1.546878,-0.4718 2.367774,-0.64161 0.820895,-0.1698 2.020256,-0.45184 2.665245,-0.62676 0.644989,-0.17492 1.652452,-0.41608 2.238806,-0.53592 1.257094,-0.25692 3.254036,-0.74717 5.33049,-1.30865 2.009902,-0.54349 4.038904,-1.04359 5.330491,-1.31386 0.586354,-0.12269 1.641791,-0.39906 2.345416,-0.61416 0.703624,-0.2151 1.807036,-0.48571 2.452025,-0.60137 0.644989,-0.11565 1.460555,-0.32137 1.812367,-0.45715 0.351812,-0.13578 1.167377,-0.33187 1.812367,-0.43576 1.08958,-0.17551 2.451349,-0.50748 5.650319,-1.37747 0.703625,-0.19135 1.937943,-0.48495 2.742928,-0.65243 0.804987,-0.16748 1.908399,-0.44513 2.452026,-0.617 1.003027,-0.3171 2.560347,-0.6999 5.728184,-1.40802 0.96508,-0.21572 1.92457,-0.48223 2.1322,-0.59222 0.20763,-0.11 1.06918,-0.30658 1.91457,-0.43685 0.84538,-0.13028 1.7569,-0.33639 2.02558,-0.45804 0.26869,-0.12164 1.30409,-0.40158 2.30089,-0.62208 2.43979,-0.5397 3.88947,-0.93231 4.21109,-1.14046 0.20825,-0.13479 0.26652,-2.91914 0.26652,-12.73496 l 0,-12.56246 0.47975,-0.31311 c 0.745,-0.48624 2.74272,-0.9933 42.48401,-10.78318 5.74626,-1.41553 11.1194,-2.75617 11.94029,-2.97919 2.8461,-0.77321 4.14124,-0.88941 4.70438,-0.42205 0.177,0.14691 0.66282,0.85213 1.07959,1.56717 0.41677,0.71503 1.25283,2.08587 1.8579,3.04631 0.60508,0.96044 1.7171,2.73549 2.47117,3.94457 0.75407,1.20907 1.95717,3.10982 2.67355,4.22389 0.71639,1.11408 2.09548,3.27777 3.06465,4.80821 0.96917,1.53044 1.97869,3.0542 2.24337,3.38615 l 0.48123,0.60352 1.47967,-0.35236 c 0.81382,-0.1938 2.19929,-0.54144 3.07882,-0.77253 0.87953,-0.2311 5.34115,-1.33193 9.91472,-2.4463 4.57356,-1.11436 9.03518,-2.21569 9.91471,-2.44738 0.87953,-0.2317 3.80597,-0.95595 6.5032,-1.60946 2.69722,-0.65351 5.43177,-1.32677 6.07675,-1.49614 1.74789,-0.45898 12.23188,-3.06832 14.0725,-3.50248 3.43704,-0.81071 6.67846,-1.71969 6.95712,-1.95097 0.16079,-0.13344 0.29235,-0.33473 0.29235,-0.44731 0,-0.11258 -1.14145,-1.80994 -2.53655,-3.7719 -1.3951,-1.96197 -2.81034,-3.95879 -3.14499,-4.43739 -0.33465,-0.47861 -1.35518,-1.91183 -2.26787,-3.18494 -2.68821,-3.74981 -8.57872,-12.04477 -14.9717,-21.08298 -3.28358,-4.64224 -6.68977,-9.42666 -7.5693,-10.63205 -0.87953,-1.20539 -2.89445,-4.03306 -4.47761,-6.2837 -1.58316,-2.25064 -3.71509,-5.26506 -4.73764,-6.69872 -1.02255,-1.43365 -1.8621,-2.8058 -1.86567,-3.04922 -0.007,-0.4626 0.68481,-1.21153 1.32881,-1.43896 0.71368,-0.25204 3.97948,-2.53159 5.56486,-3.88431 1.64391,-1.40266 3.95426,-4.02248 5.35106,-6.06784 1.13115,-1.65635 2.94498,-5.53274 3.60578,-7.70602 1.07317,-3.52951 1.48449,-6.51944 1.4918,-10.84409 0.0136,-8.05339 -1.91978,-16.14705 -5.73002,-23.9872 -3.3714,-6.9372 -7.38683,-11.895 -12.75562,-15.74925 -2.1175,-1.52014 -7.12654,-4.00137 -9.31093,-4.61217 -8.00974,-2.23967 -16.76971,-1.90033 -25.62037,0.99248 -4.38828,1.4343 -11.26662,5.14035 -11.26662,6.07047 0,0.51965 1.67922,3.08781 4.42017,6.76009 1.08703,1.45637 1.97641,2.79463 1.97641,2.97389 0,0.17927 -0.22626,0.62284 -0.50279,0.98573 -1.26493,1.65987 -2.46909,4.87512 -2.99617,8.00013 -0.908,5.38347 0.0525,12.88935 2.63967,20.62726 2.30864,6.90494 5.18996,11.85989 9.1014,15.65148 2.1951,2.12783 3.33855,2.94582 5.48581,3.92435 2.92265,1.3319 4.52887,1.65415 8.34032,1.67327 3.01035,0.0151 3.67477,-0.0489 5.65032,-0.54404 2.71004,-0.67926 5.749,-1.81544 5.89861,-2.20532 0.0601,-0.15654 -0.40299,-1.00996 -1.02902,-1.89649 -2.82642,-4.00247 -6.05481,-8.5498 -14.46203,-20.37043 -19.86996,-27.93733 -17.69968,-24.77281 -17.69968,-25.80827 0,-0.72265 0.15561,-0.94663 1.57167,-2.26235 2.51312,-2.33505 5.47563,-3.87096 9.45372,-4.90129 1.67087,-0.43276 2.78994,-0.56299 5.60574,-0.65237 3.35164,-0.10639 3.61903,-0.0841 5.65032,0.47031 4.03486,1.10132 7.00761,2.91272 9.99934,6.09295 4.84297,5.1481 8.17463,12.50705 10.61044,23.43628 0.45409,2.03747 0.49783,2.72779 0.48636,7.67591 -0.0124,5.36085 -0.021,5.46252 -0.60821,7.24947 -1.4639,4.45448 -3.53067,7.34566 -7.10839,9.94386 -0.73295,0.53227 -1.33263,1.10834 -1.33263,1.28015 0,0.29087 0.40392,0.90482 3.65524,5.55588 1.97768,2.8291 2.01091,2.99709 0.76086,3.84591 -0.94438,0.64126 -4.91942,2.04084 -7.99037,2.81334 -7.21212,1.81424 -15.26699,1.80875 -21.45539,-0.0146 -2.77179,-0.81671 -6.48997,-2.59946 -9.19209,-4.40734 -2.58999,-1.73286 -6.82385,-5.77846 -8.72449,-8.33657 -4.30949,-5.80021 -7.56348,-13.20105 -9.38344,-21.34159 -0.90142,-4.03199 -1.0824,-5.85349 -1.06983,-10.76759 0.0103,-4.0267 0.0796,-5.00417 0.48941,-6.90397 1.00018,-4.63651 2.56824,-8.52881 4.78962,-11.88899 1.1933,-1.80505 4.37528,-5.24531 5.51973,-5.96777 0.44534,-0.28113 0.80971,-0.59017 0.80971,-0.68675 0,-0.0966 -0.45854,-0.74695 -1.01898,-1.44527 -0.56044,-0.69833 -2.35948,-3.17048 -3.99787,-5.49368 -1.63839,-2.32321 -3.41066,-4.82943 -3.93838,-5.5694 -0.52771,-0.73996 -1.94078,-2.72116 -3.14015,-4.40267 l -2.18066,-3.05728 62.50369,-0.0537 c 34.37702,-0.0295 62.52216,-0.0295 62.54476,0 0.0226,0.0295 -0.0413,8.64109 -0.14188,19.13682 -0.1006,10.49574 -0.24326,55.65814 -0.31701,100.3609 -0.12316,74.64556 -0.16229,81.29138 -0.47966,81.44484 -0.32177,0.15559 -230.152964,0.27998 -241.557009,0.13074 z"
       style="opacity:1;fill:#fdfdfd;fill-opacity:1;stroke:#fdfdfd;stroke-opacity:1"
       inkscape:connector-curvature="0"
       sodipodi:nodetypes="cccsscccssssssssssssssssssssssssccccssscscsssssscccscsccsscsssssccscscssscsssssssscsssssssssssscsssssccsssssscssscsssssssssssssssssscssssscc" />
    <path
       transform="translate(0,664.36216)"
       id="path4503"
       d="m 57.232158,307.42915 c 0,-0.76453 0.141217,-3.37913 0.313815,-5.81023 0.172598,-2.4311 0.41293,-6.38713 0.53407,-8.79118 0.121141,-2.40405 0.31567,-5.47442 0.432289,-6.82303 0.116618,-1.34861 0.404023,-5.76226 0.638676,-9.8081 0.234654,-4.04584 0.474342,-7.6919 0.532641,-8.10235 0.0583,-0.41045 0.252299,-3.43283 0.431112,-6.71642 0.178813,-3.28358 0.416513,-7.02558 0.528223,-8.31556 0.11171,-1.28998 0.349023,-5.31983 0.527363,-8.95522 0.178341,-3.6354 0.373437,-7.04158 0.433548,-7.5693 0.06011,-0.52772 0.252773,-3.59808 0.428136,-6.82303 0.175364,-3.22494 0.459481,-7.83049 0.631372,-10.23454 0.171891,-2.40405 0.415279,-6.28998 0.540863,-8.63539 0.125584,-2.34542 0.362985,-5.99148 0.527558,-8.10235 0.164573,-2.11087 0.356321,-5.03731 0.426107,-6.5032 0.270072,-5.67296 0.985203,-18.01065 1.291503,-22.28145 0.176623,-2.46268 0.462191,-6.9243 0.634595,-9.91471 0.172404,-2.99041 0.455514,-7.40405 0.629133,-9.8081 0.173618,-2.40405 0.416521,-6.4339 0.539783,-8.95523 0.123262,-2.52132 0.36026,-6.40725 0.526663,-8.63539 0.166402,-2.22815 0.361907,-5.29851 0.434456,-6.82303 0.07255,-1.52452 0.267903,-4.97868 0.434121,-7.6759 0.166218,-2.69723 0.360258,-6.19937 0.4312,-7.78252 0.07094,-1.58316 0.205385,-2.95815 0.298761,-3.05554 0.09337,-0.0974 5.194569,-1.42446 11.335986,-2.94905 15.272422,-3.79135 36.407868,-9.016022 39.572128,-9.782219 2.41587,-0.584981 2.89892,-0.630955 6.60981,-0.629082 l 4.00347,0.002 2.51603,3.569412 c 1.38382,1.96317 3.27223,4.62484 4.19646,5.91482 0.92424,1.28998 2.52656,3.56371 3.56073,5.05274 3.79276,5.46097 13.17092,18.67149 14.63369,20.61374 l 1.5056,1.99911 -0.6263,0.4319 c -1.1219,0.77367 -4.27459,4.10304 -5.41538,5.71886 -1.48096,2.09762 -3.06999,5.29005 -3.95473,7.94516 -3.00526,9.01885 -2.20237,20.17771 2.26865,31.53022 3.39037,8.60861 7.9002,14.76401 14.38589,19.63508 2.22081,1.66793 6.63191,3.93308 9.36006,4.80649 3.63595,1.16403 5.65141,1.4147 11.30064,1.40544 5.56842,-0.009 6.9867,-0.18043 11.62047,-1.40355 4.60385,-1.21522 7.72817,-2.56535 8.01879,-3.46518 0.092,-0.28474 -0.6584,-1.56334 -2.61226,-4.45119 l -2.74129,-4.0517 1.05207,-0.87929 c 4.33938,-3.62678 5.87891,-5.74519 7.4203,-10.21041 l 0.67988,-1.96953 -0.003,-5.54371 c -0.003,-5.23636 -0.035,-5.68223 -0.5731,-8.04225 -1.4297,-6.26995 -3.58294,-12.44228 -5.63684,-16.15818 -2.86897,-5.19054 -6.5094,-9.05065 -10.54048,-11.17653 -2.92008,-1.53997 -4.9454,-2.08815 -8.15361,-2.20688 -5.78859,-0.21423 -10.757,1.11806 -14.93154,4.00392 -2.25607,1.55961 -3.53506,2.97527 -3.53506,3.9128 0,0.85237 -0.30404,0.40871 16.09328,23.48375 19.31231,27.17714 17.37103,24.32504 16.82823,24.72379 -0.51256,0.37653 -4.44043,1.71495 -6.26905,2.13617 -1.96035,0.45156 -7.62645,0.43888 -9.65099,-0.0216 -1.89234,-0.4304 -4.48897,-1.52789 -6.088,-2.57315 -2.70529,-1.7684 -6.61135,-6.2892 -8.7146,-10.08611 -2.49508,-4.50426 -4.95248,-12.01957 -5.96105,-18.23028 -0.52879,-3.25623 -0.53514,-8.94627 -0.0127,-11.36938 0.53848,-2.49747 1.53695,-5.13865 2.5142,-6.65065 0.45883,-0.7099 0.83424,-1.40942 0.83424,-1.55449 0,-0.14506 -0.77943,-1.3172 -1.73206,-2.60475 -2.21902,-2.99915 -4.66453,-6.67696 -4.66453,-7.015 0,-1.00504 6.15551,-4.36177 11.11977,-6.06385 5.02455,-1.72275 9.56495,-2.46967 14.99963,-2.46752 7.00784,0.003 11.88887,1.24056 17.5825,4.45879 10.12314,5.72194 17.90889,18.49745 20.40367,33.48007 0.55825,3.35263 0.56322,12.17152 0.008,14.89851 -0.89558,4.40183 -3.11864,9.56734 -5.4348,12.62833 -2.58369,3.41456 -6.54349,6.89872 -9.76393,8.59113 -0.53407,0.28066 -1.12722,0.74868 -1.31813,1.04003 -0.3275,0.49983 -0.31915,0.57831 0.14788,1.38979 0.58477,1.01606 0.29299,0.6014 13.2349,18.80829 28.83081,40.55962 28.03597,39.42585 27.85055,39.72586 -0.27025,0.43727 -3.22726,1.20894 -29.55539,7.71282 -14.71748,3.63568 -27.15926,6.71712 -27.6484,6.84762 -0.48913,0.13051 -0.98728,0.17676 -1.10698,0.10278 -0.27171,-0.16792 -5.63674,-8.51707 -10.01345,-15.58311 -1.81594,-2.93177 -3.44559,-5.4984 -3.62145,-5.70363 -0.70385,-0.82141 0.23926,-1.03506 -43.21739,9.79036 -8.20896,2.04492 -15.2612,3.88094 -15.67164,4.08004 l -0.74628,0.36201 -0.10661,12.61567 c -0.0586,6.93862 -0.17132,12.6803 -0.25041,12.7593 -0.15562,0.15543 -3.06098,0.89638 -18.299693,4.66695 -21.838998,5.4037 -29.887975,7.38551 -32.942431,8.11107 -1.759061,0.41784 -3.6693,0.90361 -4.244974,1.07948 -0.575674,0.17587 -1.271303,0.31977 -1.545842,0.31977 -0.472359,0 -0.499162,-0.0746 -0.499162,-1.39006 z m 61.770862,-79.93022 c 1.03136,-0.28053 5.47327,-1.38564 9.87093,-2.45581 4.39765,-1.07017 8.71535,-2.13447 9.59488,-2.36511 1.49863,-0.39299 3.89225,-0.97044 6.60981,-1.59457 2.90937,-0.66818 6.31955,-1.64344 6.7633,-1.93419 0.26739,-0.1752 0.48617,-0.4954 0.48617,-0.71155 0,-0.21615 -1.42524,-2.63664 -3.1672,-5.37888 -1.74196,-2.74223 -3.82058,-6.04132 -4.61916,-7.3313 -1.47592,-2.3841 -6.40184,-10.19042 -10.09089,-15.99147 -1.11864,-1.75906 -2.71973,-4.3017 -3.55797,-5.65032 -1.4237,-2.29051 -5.45232,-8.69718 -11.4635,-18.23027 -1.40497,-2.22815 -2.80514,-4.45771 -3.11147,-4.95459 -0.63642,-1.03227 -1.08517,-1.08643 -1.34791,-0.16268 -0.19244,0.67659 -0.0195,42.56081 0.23883,57.85188 0.16521,9.77825 0.11253,9.40868 1.34216,9.41564 0.31726,0.002 1.42067,-0.22626 2.45202,-0.50678 z"
       style="opacity:1;fill:#0d0d0d;fill-opacity:1" />
    <path
       transform="translate(0,664.36216)"
       id="path4507"
       d="M 19.205503,76.659563 C 18.8808,76.30077 18.852627,73.961307 18.852627,47.357096 c 0,-25.999838 0.03375,-28.946299 0.335059,-29.247603 0.303831,-0.303831 11.885827,-0.33506 124.266284,-0.33506 106.68987,0 123.98881,0.0421 124.34512,0.302608 0.4055,0.296487 0.41516,0.871162 0.47752,28.411514 0.035,15.459897 0.005,28.515541 -0.066,29.012541 -0.0713,0.497 -0.27471,1.048706 -0.45202,1.226013 -0.28695,0.286951 -13.94239,0.322378 -124.26131,0.322378 -119.799235,0 -123.950718,-0.01302 -124.291807,-0.389924 z m 56.477352,-8.578477 c 2.935228,-0.952186 4.799966,-3.763484 5.411147,-8.157902 0.305113,-2.193759 0.317755,-29.571225 0.01416,-30.664218 -0.144397,-0.519858 -0.372497,-0.817694 -0.691774,-0.903272 -0.753845,-0.202058 -3.64174,-0.147753 -3.994463,0.07511 -0.27771,0.175471 -0.33387,2.189771 -0.426439,15.295244 l -0.10661,15.093157 -0.620245,1.343258 c -0.687542,1.489002 -1.008883,1.748427 -2.165721,1.748427 -0.621964,0 -0.934215,-0.154595 -1.479019,-0.732254 -0.379834,-0.40274 -0.752887,-1.00242 -0.829009,-1.332623 -0.205042,-0.889432 -0.3554,-6.473987 -0.523351,-19.438042 -0.176073,-13.59117 0.132978,-12.295493 -2.888928,-12.111642 -1.043055,0.06346 -2.002544,0.221459 -2.132196,0.351111 -0.168011,0.16801 -0.235731,4.872668 -0.235731,16.376456 l 0,16.140725 0.883878,1.976407 c 1.433586,3.205585 2.688143,4.440303 5.283201,5.199663 1.475049,0.431625 2.563882,0.368826 4.501102,-0.259609 z m 74.494755,1.51e-4 c 2.71234,-0.953313 4.02883,-2.928109 5.03735,-7.556271 0.90251,-4.14165 0.84111,-20.818217 -0.0929,-25.226358 -0.73115,-3.450802 -2.1815,-5.881386 -4.10086,-6.872458 -1.77397,-0.916006 -5.10573,-0.935478 -6.991,-0.04086 -1.98705,0.942919 -3.57591,3.646029 -4.32292,7.354557 -0.46035,2.285413 -0.48284,2.858846 -0.48284,12.311771 0,9.492641 0.0209,10.018283 0.48962,12.347656 0.52587,2.613152 1.44396,4.75493 2.60513,6.077427 1.82298,2.076256 4.79165,2.682403 7.85839,1.604535 z m -26.08263,-0.225418 c 1.68055,-0.628774 3.27006,-2.214891 3.89589,-3.887569 1.13499,-3.033531 1.3959,-8.195874 0.57275,-11.33241 -0.71679,-2.731258 -1.57053,-4.025588 -5.07159,-7.688816 -3.7332,-3.906132 -4.25426,-4.773555 -4.29529,-7.150482 -0.0299,-1.730251 0.29555,-2.395174 1.52482,-3.115573 l 0.92509,-0.542136 0.52436,0.492612 c 0.57103,0.536456 0.83902,1.351747 1.06182,3.230309 0.2259,1.904662 0.33636,1.980909 2.86979,1.980909 2.79624,0 2.86403,-0.06989 2.68873,-2.771855 -0.15781,-2.432211 -0.7513,-4.896801 -1.47765,-6.136225 -0.75245,-1.283967 -2.3447,-2.655607 -3.4269,-2.952114 -1.26797,-0.347401 -4.11564,-0.281618 -5.23275,0.12088 -1.96498,0.707988 -3.49643,2.493624 -4.30789,5.022897 -0.55442,1.728094 -0.79864,7.061846 -0.42231,9.222936 0.49664,2.851899 1.91748,5.186469 5.32254,8.745407 2.43029,2.540121 3.4352,3.859603 3.83681,5.037887 0.33725,0.989467 0.31119,3.293158 -0.047,4.15032 -0.62158,1.487646 -2.20301,2.082345 -3.05371,1.148354 -0.7127,-0.782476 -0.85719,-1.237069 -1.01658,-3.198312 -0.21077,-2.593614 -0.407,-2.803729 -2.70642,-2.897974 -1.58813,-0.06509 -1.84361,-0.02117 -2.39335,0.411469 l -0.61544,0.484337 0.12109,2.680196 c 0.23043,5.100126 1.68049,8.03806 4.53862,9.195608 1.38257,0.559942 4.33817,0.440155 6.18452,-0.250655 z m 117.56372,-0.18788 c 2.90591,-1.498555 3.81836,-4.747521 3.52968,-12.567932 -0.14102,-3.82054 -0.16362,-3.969164 -0.79411,-5.223881 -0.35693,-0.710303 -0.8287,-1.546143 -1.0484,-1.857422 -0.53358,-0.756049 -0.50329,-1.349846 0.11055,-2.166812 0.28049,-0.373305 0.71853,-1.169612 0.97346,-1.76957 0.44074,-1.037326 0.46008,-1.345842 0.39452,-6.289978 -0.0674,-5.083442 -0.0813,-5.2255 -0.62337,-6.383286 -1.23909,-2.646425 -2.80755,-3.676574 -5.59851,-3.677012 -2.16576,-3.41e-4 -3.26326,0.42424 -4.38203,1.695216 -0.45641,0.518517 -1.10064,1.586895 -1.43162,2.374175 -0.58601,1.393897 -0.60371,1.550335 -0.67443,5.968076 -0.0815,5.089558 0.0414,5.788148 1.36352,7.752869 0.83556,1.241642 0.88699,1.628002 0.31377,2.35674 -0.71181,0.904917 -1.50371,2.952799 -1.7462,4.515731 -0.13936,0.898135 -0.19525,3.26583 -0.13885,5.88271 0.0892,4.137717 0.12635,4.462032 0.67328,5.872137 0.8287,2.136563 2.40721,3.679533 4.06542,3.97385 1.35305,0.240158 4.15855,-0.0148 5.01332,-0.455611 z M 42.399514,67.88632 c 0.481703,-0.183143 0.546925,-0.329356 0.546893,-1.226013 -2.1e-5,-0.559938 -0.147588,-1.785661 -0.327927,-2.723827 -0.180339,-0.938166 -0.424086,-2.425373 -0.541659,-3.304904 -0.117572,-0.879531 -0.397932,-2.654584 -0.623022,-3.944563 -0.225087,-1.289979 -0.605927,-3.544776 -0.846311,-5.010661 -0.240382,-1.465885 -0.628733,-3.816631 -0.863004,-5.22388 -0.23427,-1.40725 -0.760164,-4.66951 -1.168651,-7.249467 -0.408488,-2.579958 -0.880617,-5.410448 -1.049175,-6.289979 -0.168557,-0.879531 -0.365243,-1.982942 -0.437078,-2.452026 -0.224781,-1.467825 -0.514194,-1.967175 -1.222204,-2.108777 -0.859714,-0.171943 -3.894905,-0.144498 -4.962167,0.04487 -0.765292,0.135788 -0.882214,0.244617 -1.20932,1.125611 -0.199165,0.536409 -0.519464,2.113094 -0.711778,3.503744 -0.192313,1.390651 -0.385134,2.585854 -0.428491,2.656007 -0.04336,0.07015 -0.573154,3.145773 -1.177326,6.834712 -0.604173,3.68894 -1.571415,9.489678 -2.149426,12.89053 -2.054822,12.089977 -2.024558,11.853137 -1.558952,12.199928 0.511409,0.380906 4.403611,0.307362 4.801016,-0.09072 0.1414,-0.141642 0.430038,-1.388977 0.641419,-2.771855 0.352165,-2.303924 0.638864,-3.875203 0.935348,-5.126269 0.110908,-0.467996 0.183678,-0.479744 2.971559,-0.479744 l 2.857867,0 0.218649,0.692963 c 0.208607,0.661139 0.581656,2.712634 1.104874,6.076003 0.132198,0.849797 0.351684,1.614025 0.487747,1.698283 0.680691,0.421523 3.84436,0.609574 4.711119,0.280032 z m 55.232192,-0.233637 c 0.120334,-0.119996 0.248637,-1.484975 0.285117,-3.033288 0.09027,-3.831352 0.305437,-3.621448 -3.825085,-3.731542 -1.802621,-0.04805 -3.370124,-0.174823 -3.483344,-0.281723 -0.12668,-0.119609 -0.24969,-6.257599 -0.319829,-15.958908 -0.07749,-10.717644 -0.186648,-15.837135 -0.340972,-15.991292 -0.31487,-0.314525 -4.16613,-0.518158 -4.570446,-0.24166 -0.279426,0.191091 -0.327936,2.610226 -0.384006,19.149784 -0.04643,13.696507 0.0029,19.161441 0.178541,19.764243 l 0.242721,0.833179 5.999258,-0.145309 c 3.604239,-0.0873 6.086601,-0.232408 6.218045,-0.363484 z m 7.872584,0.238693 c 0.45692,-0.105992 0.89917,-0.303408 0.98279,-0.4387 0.0836,-0.135292 0.19897,-7.239087 0.25634,-15.786211 0.0779,-11.605701 0.16883,-15.617959 0.35912,-15.847249 0.17904,-0.215736 0.84472,-0.328899 2.23883,-0.380594 1.2714,-0.04715 2.11049,-0.178678 2.33613,-0.366203 0.29377,-0.244157 0.3521,-0.745167 0.3521,-3.024499 0,-1.502526 -0.0957,-2.983587 -0.21268,-3.291245 l -0.21267,-0.559378 -7.53741,0.06575 c -6.000859,0.05235 -7.609222,0.125408 -7.889672,0.358385 -0.523855,0.43518 -0.523989,6.015627 -1.57e-4,6.450983 0.225635,0.187525 1.064724,0.319057 2.336127,0.366203 1.401781,0.05198 2.059392,0.16438 2.240832,0.383008 0.19298,0.232524 0.28211,4.171336 0.35857,15.846355 0.056,8.545303 0.17899,15.661883 0.27338,15.814619 0.0944,0.152735 0.68083,0.339332 1.30318,0.414659 1.68882,0.204407 1.91063,0.203944 2.81519,-0.0059 z m 57.56417,0.0011 c 0.4541,-0.105356 0.93134,-0.29725 1.06051,-0.426425 0.16219,-0.162185 0.27112,-3.779955 0.35201,-11.690349 0.0644,-6.300516 0.19338,-11.263584 0.28657,-11.029043 0.0932,0.234542 0.35706,0.841418 0.58641,1.348616 0.22934,0.507196 0.69894,2.234275 1.04356,3.837953 0.34461,1.603676 1.01904,4.642855 1.49871,6.75373 0.47968,2.110874 1.20618,5.324978 1.61445,7.142454 0.40826,1.817475 0.87963,3.441833 1.04748,3.609684 0.65668,0.656678 5.56877,0.753904 6.42586,0.12719 0.31135,-0.227665 0.36176,-1.197746 0.45554,-8.765955 0.058,-4.68048 0.0331,-13.294981 -0.0554,-19.143339 -0.18593,-12.295327 -0.0167,-11.434764 -2.24844,-11.434764 -1.22945,0 -2.73922,0.427084 -2.78809,0.788694 -0.0127,0.09394 -0.0847,4.699683 -0.15991,10.234991 -0.10153,7.466829 -0.20382,10.131115 -0.39637,10.323499 -0.3262,0.325908 -0.3875,0.176949 -0.89913,-2.184751 -0.21269,-0.981769 -0.82901,-3.70401 -1.36962,-6.049426 -0.5406,-2.345416 -1.36692,-5.943497 -1.83626,-7.995736 -0.46934,-2.052239 -0.94638,-3.942381 -1.06009,-4.200317 -0.30114,-0.683135 -1.64593,-0.965375 -4.20236,-0.881977 -1.94768,0.06354 -2.25066,0.126496 -2.68101,0.557093 l -0.48518,0.485459 -0.0712,9.749083 c -0.0822,11.260857 0.14985,28.015627 0.39348,28.409815 0.30645,0.495855 2.20406,0.731891 3.4884,0.43391 l 0,-8.9e-5 z m 30.59773,-0.136866 c 0.21481,-0.188652 0.11374,-6.266166 -0.10793,-6.489324 -0.1444,-0.145375 -1.51231,-0.299917 -3.41151,-0.38542 l -3.17046,-0.142646 -0.12898,-13.113007 c -0.0709,-7.212153 -0.1429,-14.381864 -0.15991,-15.93269 l -0.0309,-2.819685 -0.68423,-0.353829 c -0.54821,-0.283491 -1.04255,-0.328542 -2.48674,-0.226625 -0.99138,0.06996 -1.90682,0.231469 -2.03432,0.358902 -0.26034,0.260213 -0.4766,35.566663 -0.2321,37.891094 l 0.13955,1.326548 2.80883,0.05938 c 2.96754,0.06273 9.36309,-0.05348 9.49874,-0.172607 l 0,-9e-5 z m 8.927,-0.162706 c 0.19368,-0.188008 0.29974,-1.97839 0.39378,-6.647725 0.0708,-3.514729 0.20458,-6.870162 0.29733,-7.456516 0.0927,-0.586354 0.60491,-2.745202 1.13812,-4.797441 0.53322,-2.052239 1.25666,-4.834755 1.60764,-6.183369 2.16038,-8.300961 3.22768,-12.672285 3.22768,-13.219419 0,-0.399464 -0.14872,-0.704358 -0.41242,-0.845484 -0.45137,-0.241565 -2.65169,-0.29111 -3.88326,-0.08744 -0.74386,0.123016 -0.79678,0.189916 -1.22084,1.543496 -0.24381,0.778198 -0.58562,2.086548 -0.7596,2.907443 -0.45375,2.141062 -1.75911,7.807537 -2.03228,8.822036 -0.19751,0.733469 -0.64682,1.412736 -0.64682,0.977849 0,-0.14368 -0.8938,-4.35411 -1.80875,-8.520567 -0.28329,-1.289979 -0.57591,-2.724748 -0.65028,-3.188377 -0.0744,-0.463628 -0.3188,-1.202828 -0.54319,-1.642667 -0.48614,-0.952925 -1.07827,-1.120693 -3.52019,-0.997382 -1.90372,0.09613 -2.30445,0.413445 -2.09678,1.660286 0.15511,0.931303 1.262,5.663404 1.69815,7.259824 0.17621,0.64499 0.45413,1.796376 0.61758,2.558636 0.27189,1.267889 0.72078,3.120631 2.04058,8.422175 1.57785,6.338095 1.52947,5.973144 1.62506,12.260127 0.10343,6.803209 0.13482,7.103672 0.77602,7.429777 0.59722,0.303733 3.77805,0.10827 4.15247,-0.255173 l 0,-9e-5 z m 24.17825,0.09367 0.50336,-0.407633 0,-19.304553 c 0,-15.574334 -0.0537,-19.358105 -0.27771,-19.581706 -0.38655,-0.385779 -3.90386,-0.380383 -4.36999,0.0067 -0.188,0.156123 -0.6347,0.802807 -0.99265,1.437075 -0.35796,0.634269 -1.18907,1.787684 -1.84692,2.563145 -0.65784,0.775461 -1.32862,1.663958 -1.49062,1.974439 -0.5119,0.981201 -0.30972,7.281017 0.23367,7.281017 0.14078,0 0.43874,-0.20258 0.66213,-0.450177 0.79026,-0.875855 2.45091,-2.160394 2.60022,-2.011307 0.0833,0.08314 0.19936,6.467966 0.25799,14.188516 0.0586,7.72055 0.17892,14.109589 0.26729,14.197866 0.13653,0.136377 1.86649,0.376066 3.49374,0.484064 0.25086,0.01665 0.68263,-0.153164 0.95949,-0.377361 l 0,-8.9e-5 z M 56.05945,67.274512 c 2.765851,-1.310573 4.465187,-4.513595 5.108064,-9.628011 C 61.72588,53.204405 61.680047,44.528235 61.065013,38.243516 60.548222,32.962688 58.617128,29.443881 55.784,28.62054 c -1.334173,-0.387726 -9.951825,-0.384234 -10.340416,0.0042 -0.343595,0.34345 -0.508512,37.784842 -0.170347,38.674285 l 0.221287,0.582028 4.642804,-1.68e-4 4.642804,-1.69e-4 1.279318,-0.606194 z M 255.2622,63.69487 c 0.26614,-0.07131 0.5384,-0.353524 0.60778,-0.63001 0.0692,-0.275461 0.18802,-2.590753 0.2642,-5.145098 l 0.13849,-4.644263 2.53981,-0.158861 c 1.39691,-0.08737 2.59083,-0.209864 2.65315,-0.272203 0.18968,-0.189673 0.30484,-3.858021 0.15292,-4.871079 -0.0896,-0.59771 -0.27522,-1.001008 -0.50042,-1.087426 -0.19689,-0.07555 -1.29599,-0.194507 -2.44245,-0.264354 -1.14646,-0.06985 -2.17109,-0.232418 -2.27693,-0.361269 -0.10585,-0.12885 -0.22548,-2.409202 -0.26587,-5.067445 -0.0404,-2.658244 -0.15339,-4.913042 -0.25111,-5.010661 -0.23136,-0.231117 -3.46418,-0.231319 -3.69582,-2.35e-4 -0.0977,0.09749 -0.22565,2.35229 -0.28428,5.010661 -0.0586,2.658371 -0.17514,4.938633 -0.25892,5.067254 -0.0838,0.128618 -1.09345,0.291188 -2.24375,0.361266 -2.4629,0.150047 -2.79582,0.25245 -3.05738,0.940378 -0.21771,0.572661 -0.264,3.94933 -0.0644,4.694115 0.16625,0.620085 0.60363,0.73906 3.27898,0.89193 l 2.23881,0.127925 0.13505,4.995339 c 0.12109,4.479254 0.17486,5.024456 0.52049,5.277186 0.39864,0.291479 1.96629,0.373358 2.8116,0.146846 l 0,4e-6 z"
       style="opacity:1;fill:#ffffff;fill-opacity:1" />
    <path
       transform="translate(0,664.36216)"
       id="path4565"
       d="M 4.5849424,383.74619 C 4.2862916,383.62568 4.2107198,354.48995 4.2107198,239.4696 l 0,-144.125594 7.4844512,0 7.484452,0 0.0041,7.559294 c 0.02235,40.79393 0.641184,212.91549 0.766233,213.11782 0.181572,0.29379 246.475084,0.37565 247.239864,0.0822 0.42941,-0.16478 0.47356,-5.25049 0.47364,-54.56166 5e-5,-29.90896 0.0897,-79.53891 0.19932,-110.28878 l 0.19923,-55.908854 7.28514,0 7.28513,0 0,143.990314 c 0,142.05261 -0.008,143.99448 -0.57908,144.30023 -0.59057,0.31606 -276.6863802,0.42715 -277.4682976,0.11164 z M 113.83363,366.27855 c 9.99178,-0.80332 16.5291,-3.31205 19.40029,-7.44494 1.052,-1.51428 1.21824,-4.89286 0.33094,-6.72578 -1.63661,-3.38078 -6.89419,-5.5115 -17.85069,-7.23431 -11.86034,-1.86492 -13.58699,-2.18554 -14.67054,-2.72418 -1.63897,-0.81474 -1.938462,-1.44006 -1.093967,-2.28414 0.646917,-0.6466 0.894487,-0.67776 5.384647,-0.67776 4.23963,0 4.82536,0.0637 5.90407,0.64174 0.65863,0.35296 1.45415,0.92552 1.76782,1.27236 0.55646,0.6153 0.79474,0.63061 9.81403,0.63061 10.41929,0 10.0564,0.0907 8.93171,-2.23259 -1.70429,-3.5206 -6.57117,-6.23396 -14.07693,-7.84808 -3.70852,-0.79753 -18.8724,-0.80145 -23.052115,-0.006 -6.106397,1.16217 -10.321721,2.83333 -12.552084,4.97626 -1.566442,1.50504 -2.117441,2.82728 -2.117441,5.08127 0,2.25529 0.287636,2.99811 1.793538,4.63182 2.6397,2.86374 8.148576,4.65263 19.013232,6.17413 9.52298,1.33361 12.28375,1.93585 13.39717,2.92247 0.9299,0.824 0.64208,1.54806 -0.89813,2.2594 -1.27637,0.58948 -1.91275,0.65676 -6.2121,0.65676 -5.31692,0 -6.39332,-0.27603 -8.587003,-2.20212 l -1.072136,-0.94135 -8.84249,0 c -4.86337,0 -9.055588,0.0818 -9.316041,0.18172 -0.260455,0.1 -0.473553,0.5108 -0.473553,0.913 0,2.59266 4.670648,6.34501 10.005284,8.03813 6.837615,2.17013 14.677819,2.77726 25.072489,1.94154 z m -42.799966,-2.61696 c 0.07815,-1.11144 0.08006,-2.8628 0.0043,-3.89191 l -0.137843,-1.87111 -12.76243,-0.002 c -7.019338,-9e-4 -13.87899,-0.0887 -15.243675,-0.19494 l -2.481245,-0.19315 0.08622,-2.42461 0.08622,-2.42462 11.975123,-0.14969 c 6.586317,-0.0823 12.143522,-0.25868 12.349345,-0.39189 0.428093,-0.27707 0.547041,-6.95042 0.128496,-7.20909 -0.135148,-0.0835 -4.075712,-0.18459 -8.756808,-0.22458 -4.681094,-0.04 -10.122107,-0.148 -12.091135,-0.24002 -4.070075,-0.19022 -4.083532,-0.20091 -3.762736,-2.98824 l 0.157706,-1.37037 14.420344,-0.14969 c 7.931193,-0.0823 14.532479,-0.26161 14.669525,-0.39839 0.137049,-0.13679 0.249181,-1.88816 0.249181,-3.89192 l 0,-3.64321 -24.848379,0 -24.848379,0 -0.07777,16.4658 c -0.04277,9.05618 -0.01332,16.63419 0.06545,16.84001 0.113011,0.2953 5.472511,0.37423 25.409835,0.37423 l 25.266617,0 0.142088,-2.02081 z m 93.162596,1.54725 c 0.1,-0.26045 0.18172,-2.81403 0.18172,-5.67461 l 0,-5.20107 1.08737,-0.20399 c 1.93993,-0.36393 10.59824,0.0739 12.11698,0.61268 2.62912,0.93275 3.53348,2.78154 3.5548,7.26711 0.003,0.69646 0.22273,1.8079 0.4876,2.46986 l 0.48157,1.20358 9.84697,0 c 10.838,0 10.56773,0.0525 9.20688,-1.78815 -0.53981,-0.73013 -0.67758,-1.48364 -0.8794,-4.80974 -0.21177,-3.49 -0.32626,-4.07536 -0.99471,-5.08545 -0.84819,-1.2817 -2.34966,-2.50766 -3.47336,-2.83602 -1.27138,-0.37152 -3.59256,-1.41129 -3.59212,-1.60908 2.3e-4,-0.10322 0.77487,-0.41929 1.72142,-0.70239 2.10027,-0.62814 4.47366,-2.38652 5.37916,-3.98526 0.96938,-1.71152 0.97351,-5.50238 0.008,-7.067 -1.48512,-2.40591 -4.09676,-3.78425 -9.41689,-4.96995 l -3.52968,-0.78665 -21.10615,-0.0202 -21.10616,-0.0202 -0.0778,16.4658 c -0.0428,9.05618 -0.0133,16.63419 0.0654,16.84001 0.11057,0.2889 2.39056,0.37423 10.00006,0.37423 8.71198,0 9.87795,-0.055 10.03856,-0.47356 z m 88.64794,0.0435 c 4.78095,-0.51363 7.40804,-1.14188 10.32854,-2.47002 3.53461,-1.6074 5.23417,-3.63934 5.59545,-6.68973 0.14373,-1.21359 0.0316,-1.75581 -0.65216,-3.15335 -0.66744,-1.36419 -1.17251,-1.91188 -2.63454,-2.85683 -0.99483,-0.643 -2.59488,-1.45571 -3.55566,-1.80603 -0.96078,-0.35031 -1.74687,-0.6722 -1.74687,-0.7153 0,-0.0431 0.70728,-0.52903 1.57174,-1.07984 2.61352,-1.66528 4.03332,-3.14685 4.57315,-4.77212 0.45018,-1.35538 0.45104,-1.58984 0.0107,-2.91564 -0.76866,-2.31422 -2.82022,-4.00693 -6.15557,-5.07888 -5.1547,-1.65667 -5.23849,-1.66228 -26.73479,-1.79055 -15.28537,-0.0912 -20.10102,-0.0345 -20.43256,0.24066 -0.3689,0.30616 -0.43315,2.7383 -0.42968,16.26522 0.002,8.74787 0.0853,16.20835 0.18461,16.57883 l 0.18052,0.6736 18.00261,-0.006 c 13.31694,-0.004 19.01559,-0.11478 21.89453,-0.42407 l -1e-5,1e-5 z"
       style="opacity:1;fill:#0d0d0d;fill-opacity:1" />
    <path
       transform="translate(0,664.36216)"
       id="path4567"
       d="m 4.2107198,171.87002 0,-167.4671112 0.6736006,-0.180518 C 5.2548008,4.123106 67.687958,4.0400333 143.62467,4.037785 c 125.11953,-0.0037 138.11086,0.040029 138.5372,0.4663633 0.42656,0.4265597 0.47045,16.0679187 0.47045,167.6517117 l 0,167.18127 -8.04277,0 -8.04276,0 -0.72659,-1.42205 c -0.83085,-1.62613 -2.62535,-2.98067 -5.24939,-3.96245 -3.96432,-1.48324 -4.73817,-1.54811 -21.64769,-1.81459 -8.8092,-0.13879 -18.27329,-0.17265 -21.03131,-0.0752 l -5.01458,0.1772 -0.003,1.97682 c -0.001,1.08723 -0.0875,2.68408 -0.19138,3.54853 l -0.18879,1.57174 -6.33479,0 -6.33478,0 -0.37149,-1.02732 c -0.81925,-2.2656 -3.68255,-3.89883 -9.26075,-5.28229 l -3.51099,-0.87077 -21.181,-0.003 -21.181,-0.003 0,3.59253 0,3.59254 -6.36178,-0.003 -6.36179,-0.003 -0.71609,-1.05147 c -1.54575,-2.26968 -5.92972,-4.68174 -10.9622,-6.03139 -2.87982,-0.77231 -3.34125,-0.80677 -12.3887,-0.92526 -10.200797,-0.13358 -12.689452,0.0897 -17.931505,1.6088 -4.353427,1.26155 -7.81677,3.41871 -8.922843,5.55762 l -0.437373,0.8458 -5.231428,0 -5.231428,0 0,-3.59253 0,-3.59254 -24.698691,0 -24.69869,0 0,3.59254 0,3.59253 -8.083207,0 -8.083208,0 0,-167.46711 9.28e-5,0.003 z M 267.26354,315.88657 c 0.37252,-0.37257 0.74284,-224.810022 0.37154,-225.181331 -0.36505,-0.365053 -245.094528,-0.579788 -246.842618,-0.216588 -0.989896,0.205669 -1.175123,0.377171 -1.376118,1.27415 -0.254096,1.133954 0.25398,200.498349 0.548341,215.163929 l 0.181717,9.05346 15.159115,0.0923 c 33.586174,0.20459 231.726353,0.0458 231.958023,-0.18595 z m 0.59948,-239.203817 c 0.32613,-0.326184 0.32612,-58.152398 -2e-5,-58.478514 -0.32375,-0.323733 -246.642041,-0.47977 -247.887593,-0.157031 l -0.945473,0.244984 -0.08226,28.571587 c -0.04524,15.714373 -0.01053,28.868575 0.07713,29.231559 0.141275,0.584988 0.38873,0.672151 2.177902,0.767129 4.350352,0.230946 246.426062,0.05457 246.660312,-0.179714 z"
       style="opacity:1;fill:#0d0d0d;fill-opacity:1" />
    <path
       transform="translate(0,664.36216)"
       id="path4573"
       d="m 25.363832,365.52557 -4.966906,-0.0772 -0.160106,-0.96854 c -0.211853,-1.28157 -0.208271,-15.14656 0.0064,-24.66983 l 0.171237,-7.5974 24.633479,0 24.633479,0 0,3.60389 0,3.6039 -0.811688,0.16234 c -0.446428,0.0893 -4.274351,0.17793 -8.506493,0.19699 -4.232143,0.0191 -10.441559,0.10673 -13.798702,0.19481 l -6.103896,0.16014 -0.07601,1.86806 c -0.0691,1.69826 -0.02416,1.8958 0.494527,2.17339 0.395188,0.2115 4.161312,0.36855 12.25393,0.51101 9.300551,0.16373 11.731416,0.27669 11.918847,0.55388 0.344166,0.50899 0.151356,6.35889 -0.221886,6.73209 -0.221766,0.22173 -3.544244,0.34143 -12.077922,0.4351 -7.232547,0.0794 -11.897205,0.2291 -12.096681,0.38822 -0.447447,0.35694 -0.447447,4.50086 0,4.79046 0.178572,0.11557 7.045455,0.26857 15.259741,0.34 l 14.935065,0.12987 0,3.76624 0,3.76623 -20.259741,0.007 c -11.142857,0.004 -22.494848,-0.028 -25.226646,-0.0704 l 0,1e-5 z"
       style="opacity:1;fill:#fdfdfd;fill-opacity:1" />
    <path
       transform="translate(0,664.36216)"
       id="path4575"
       d="m 145.88246,365.54465 -1.59113,-0.10837 -0.12006,-3.0404 c -0.066,-1.67221 -0.0639,-9.14753 0.005,-16.61182 l 0.12478,-13.57142 21.23804,0 21.23805,0 3.50074,0.88177 c 5.9435,1.49706 8.57139,3.14953 9.38947,5.9043 0.4764,1.60422 0.50437,2.5901 0.12382,4.36452 -0.48933,2.2817 -3.20215,4.65565 -6.53808,5.72138 -0.53572,0.17114 -0.97403,0.4046 -0.97403,0.51878 0,0.22088 1.80154,1.03439 3.48147,1.57211 1.42824,0.45716 3.67321,2.70839 4.01296,4.02415 0.14755,0.57143 0.37863,2.59958 0.51351,4.50701 0.2035,2.87793 0.3386,3.59435 0.79397,4.21026 0.94244,1.27472 0.7732,1.448 -1.59412,1.63229 -1.17857,0.0917 -5.549,0.16751 -9.71205,0.16836 l -7.5692,0.002 -0.43562,-1.08871 c -0.23959,-0.59879 -0.53874,-2.35749 -0.66478,-3.90823 -0.37114,-4.56631 -1.47022,-5.83105 -5.57939,-6.42034 -2.41031,-0.34566 -10.15156,-0.3472 -10.79629,-0.002 -0.47152,0.25234 -0.50241,0.59476 -0.50241,5.56908 0,3.80185 -0.0869,5.35393 -0.30747,5.49024 -0.33429,0.2066 -15.44566,0.36212 -18.03691,0.18563 z m 32.96862,-19.80633 c 1.11312,-0.35042 2.40386,-1.44574 2.62534,-2.22785 0.22917,-0.80926 -0.71299,-2.07686 -2.01051,-2.70498 -1.50357,-0.72786 -4.54686,-1.04983 -9.97933,-1.05577 -5.36583,-0.006 -5.35297,-0.0141 -5.21972,3.35746 0.13475,3.40934 -0.34693,3.20506 7.2208,3.06236 3.88418,-0.0732 6.76157,-0.24175 7.36342,-0.43122 z"
       style="opacity:1;fill:#fdfdfd;fill-opacity:1" />
    <path
       transform="translate(0,664.36216)"
       id="path4579"
       d="m 212.94624,365.48868 c -0.10583,-0.17124 -0.20709,-7.61023 -0.22502,-16.53108 -0.0256,-12.74533 0.0376,-16.28989 0.29513,-16.54728 0.25856,-0.25842 4.00365,-0.31335 17.7444,-0.26028 20.2709,0.0783 24.53279,0.2656 27.83167,1.22314 4.0676,1.18066 6.19305,2.58415 7.33941,4.8464 0.34797,0.68668 0.63267,1.59336 0.63267,2.01484 0,1.95759 -1.82738,4.2953 -4.87013,6.23017 -0.75,0.47693 -1.36363,0.95337 -1.36363,1.05876 0,0.1054 0.80224,0.50638 1.78276,0.89108 0.98053,0.38469 2.5258,1.19725 3.43393,1.80567 2.80622,1.88009 3.7545,4.63979 2.67895,7.79635 -1.23942,3.63749 -7.18144,6.40323 -15.42811,7.18108 -4.54911,0.42909 -39.60847,0.68523 -39.85203,0.29115 z m 31.49551,-7.82492 c 1.04678,-0.13592 2.35557,-0.36893 2.90844,-0.5178 1.25216,-0.33717 2.59094,-1.63193 2.59094,-2.50575 0,-0.87751 -1.24246,-2.06625 -2.49143,-2.38372 -1.34333,-0.34145 -10.10441,-0.59061 -12.57351,-0.35758 l -1.94805,0.18386 -0.074,2.50484 c -0.10285,3.4813 -0.3224,3.34126 5.22243,3.33129 2.45408,-0.004 5.31842,-0.11922 6.36519,-0.25514 z m -0.93472,-12.70281 c 2.10427,-0.22086 3.47187,-0.93196 4.11945,-2.14196 0.36388,-0.67992 -0.30941,-1.70082 -1.53428,-2.32641 -0.96552,-0.49312 -8.99335,-0.87409 -11.60562,-0.55076 l -1.55844,0.19289 -0.0757,2.3157 c -0.0548,1.67739 0.0168,2.37435 0.25974,2.52849 0.42817,0.27164 7.75617,0.25899 10.39482,-0.0179 z"
       style="opacity:1;fill:#fdfdfd;fill-opacity:1" />
    <path
       transform="translate(0,664.36216)"
       id="path4581"
       d="m 144.97808,365.53666 c -0.6433,-0.0994 -0.68571,-0.20378 -0.84415,-2.0782 -0.21309,-2.52078 -0.21148,-9.14103 0.005,-21.46306 l 0.17203,-9.78276 21.36886,0 21.36886,0 3.02344,0.77956 c 6.01075,1.5498 8.65593,3.16443 9.56763,5.84012 1.45859,4.28075 -0.63203,8.00429 -5.60791,9.98808 -0.82143,0.32748 -1.49351,0.68098 -1.49351,0.78555 0,0.10457 0.43831,0.37626 0.97403,0.60375 0.53571,0.22749 1.52053,0.64392 2.18848,0.92539 1.64354,0.69259 3.47378,2.4312 3.95857,3.76038 0.21733,0.59587 0.51726,2.59845 0.66651,4.45018 0.19241,2.38731 0.42146,3.67686 0.78734,4.43266 0.28379,0.58623 0.51598,1.18801 0.51598,1.3373 0,0.46627 -2.44918,0.59893 -11.10041,0.60126 l -8.37314,0.002 -0.40328,-0.96519 c -0.22181,-0.53085 -0.52273,-2.19644 -0.66871,-3.7013 -0.42616,-4.39302 -1.44696,-5.84367 -4.60035,-6.53752 -1.62331,-0.35718 -11.55947,-0.48762 -11.89178,-0.15611 -0.10934,0.10908 -0.2654,2.62206 -0.3468,5.58442 l -0.148,5.38609 -1.42857,0.16912 c -1.52742,0.18082 -16.55689,0.21312 -17.69032,0.038 z m 30.44506,-19.54139 c 3.3342,-0.22815 4.38811,-0.53588 5.44089,-1.58865 1.13563,-1.13563 0.26021,-2.84104 -1.92745,-3.75489 -1.83175,-0.76517 -11.3641,-1.21978 -13.44676,-0.64129 -1.07379,0.29825 -1.27032,0.73358 -1.2287,2.72168 0.0423,2.02339 0.2918,2.80963 1.00602,3.17098 0.76244,0.38575 5.26803,0.42663 10.156,0.0922 z"
       style="opacity:1;fill:#fdfdfd;fill-opacity:1" />
    <path
       transform="translate(0,664.36216)"
       id="path4609"
       d="m -0.0657763,194.00523 0,-194.01544281 143.5328163,0.09549549 143.53282,0.09549544 0,193.82445188 0,193.82444 -143.53282,0.0955 -143.5328163,0.0955 0,-194.01545 z m 283.3976863,0 0,-190.3474891 -139.96139,0 -139.9613928,0 0,190.3474891 0,190.34749 139.9613928,0 139.96139,0 0,-190.34749 z"
       style="opacity:1;fill:#fdfdfd;fill-opacity:1;stroke:#fdfdfd;stroke-width:0.38610038;stroke-opacity:1" />
    <path
       transform="translate(0,664.36216)"
       id="path4626"
       d="m 57.222255,307.86672 c 7.66e-4,-0.91153 0.939474,-16.42653 1.605459,-26.53509 1.250812,-18.98529 2.098517,-32.28506 2.338934,-36.69591 0.09204,-1.68859 0.758643,-12.54386 1.481342,-24.1228 0.722699,-11.57895 1.574144,-25.52632 1.8921,-30.99416 0.317955,-5.46783 1.034176,-17.17836 1.591601,-26.02339 1.030904,-16.35804 2.35773,-38.09525 2.632546,-43.12865 0.08341,-1.52778 0.228358,-4.15936 0.322097,-5.84796 0.09374,-1.68859 0.258569,-3.15397 0.36629,-3.2564 0.171118,-0.1627 46.136436,-11.58328 56.312596,-13.991467 l 3.77755,-0.893958 0.90081,1.089789 c 0.97567,1.180353 7.6034,10.481876 12.98368,18.221626 4.23909,6.0981 10.88576,15.4305 12.5196,17.57841 l 1.24957,1.64274 -2.8383,2.89266 c -4.8793,4.97273 -7.49512,10.51053 -8.52083,18.03893 -1.752,12.85911 3.83085,30.11097 12.87099,39.77328 3.18769,3.40708 6.45231,5.804 10.64779,7.81772 5.54155,2.65981 7.45275,3.03761 15.35088,3.03455 6.14994,-0.002 6.78017,-0.0533 9.66471,-0.78027 5.3414,-1.34623 9.47355,-2.98357 9.82213,-3.89195 0.0912,-0.23764 -1.00461,-2.19371 -2.5247,-4.50675 l -2.68583,-4.08687 1.12208,-0.94363 c 3.72338,-3.13124 5.88977,-6.17144 7.40857,-10.39677 0.61632,-1.71461 0.64317,-2.14016 0.5074,-8.04094 -0.13854,-6.02123 -0.17852,-6.35905 -1.1904,-10.05674 -2.78214,-10.16676 -5.78339,-16.06707 -10.54717,-20.73518 -2.60237,-2.55012 -4.66235,-3.90485 -7.70499,-5.06716 -1.80421,-0.68922 -2.35519,-0.75403 -6.50338,-0.76502 -4.98439,-0.0132 -6.96327,0.35177 -10.49237,1.93517 -2.17211,0.97456 -5.26533,3.10025 -6.15241,4.22799 -0.33368,0.4242 -0.60668,1.126 -0.60668,1.55955 0,0.97907 1.06578,2.54379 17.45605,25.62778 15.74669,22.17758 15.82749,22.29724 15.28316,22.63365 -0.22833,0.14112 -1.66833,0.68056 -3.19999,1.19875 -2.43963,0.82539 -3.26738,0.95837 -6.67758,1.07283 -4.69437,0.15756 -6.66331,-0.17754 -9.89037,-1.68327 -4.16557,-1.94363 -9.12966,-7.42158 -11.79953,-13.02098 -2.07182,-4.34512 -4.10133,-10.93207 -5.00004,-16.22807 -0.20468,-1.20614 -0.36171,-4.10087 -0.34897,-6.43274 0.0202,-3.69716 0.12273,-4.5751 0.80103,-6.85993 0.42781,-1.44109 1.2543,-3.49138 1.83663,-4.5562 l 1.05878,-1.93603 -2.65517,-3.77714 c -1.46033,-2.07743 -2.93603,-4.25691 -3.27933,-4.84329 l -0.62418,-1.06615 1.10747,-0.92047 c 2.57901,-2.14351 10.29149,-5.34834 15.87356,-6.59608 2.94604,-0.65851 12.00212,-0.92478 15.2585,-0.44864 13.46647,1.96906 24.28262,12.3364 29.60063,28.37235 2.23802,6.74854 2.63536,9.32283 2.61761,16.95906 -0.0146,6.29329 -0.0498,6.69321 -0.80942,9.21053 -1.06568,3.53141 -2.70804,7.1987 -4.25713,9.5059 -1.7811,2.65273 -5.83762,6.58632 -8.79709,8.53048 -3.46871,2.2787 -3.47283,2.28545 -2.42424,3.97199 0.47308,0.76089 8.42922,12.04134 17.68031,25.06765 23.46057,33.03448 23.29065,32.79061 23.01124,33.02656 -0.59798,0.50497 -56.43686,14.48806 -57.85539,14.48806 -0.55494,0 -2.04154,-2.20345 -9.90618,-14.68295 l -4.29061,-6.80828 -1.303,0.0865 c -0.71666,0.0476 -4.13196,0.7536 -7.58956,1.5689 -8.75443,2.06428 -48.80974,12.10883 -49.73694,12.47239 l -0.76034,0.29812 -0.21423,12.66782 c -0.14657,8.6667 -0.31563,12.73049 -0.53526,12.86622 -0.60547,0.3742 -55.743268,13.98739 -56.653436,13.98739 -0.437223,0 -0.579159,-0.19723 -0.578649,-0.80409 z M 133.58628,223.8711 c 9.16165,-2.25388 17.10912,-4.28664 17.66104,-4.51725 0.55193,-0.2306 1.0035,-0.57891 1.0035,-0.77401 0,-0.45912 -0.86921,-1.94308 -4.69083,-8.00844 -1.72257,-2.73392 -6.61397,-10.49708 -10.86979,-17.25147 -4.25582,-6.75438 -10.53362,-16.72124 -13.95066,-22.14858 -6.7161,-10.66725 -7.15665,-11.30783 -7.52496,-10.94177 -0.13445,0.13363 -0.28421,2.76521 -0.33279,5.84795 -0.13439,8.52763 0.44121,60.79668 0.67593,61.37983 0.11328,0.28143 0.4681,0.5117 0.78848,0.5117 0.32039,0 8.07843,-1.84409 17.24008,-4.09796 z"
       style="opacity:1;fill:#0d0d0d;fill-opacity:1;stroke:#fdfdfd;stroke-width:0.29239765;stroke-opacity:1" />
  </g>
  <g
     inkscape:groupmode="layer"
     id="layer3"
     inkscape:label="Layer 1">
    <g
       style=""
       id="layer2">
      <text
         transform="matrix(1.0418021,0,0,0.9598752,0,-664.36216)"
         id="text4611"
         y="1013.471"
         x="223.51721"
         style="font-style:normal;font-weight:normal;font-size:16.81687927px;line-height:125%;font-family:sans-serif;letter-spacing:0px;word-spacing:0px;fill:#000000;fill-opacity:1;stroke:none;stroke-width:1px;stroke-linecap:butt;stroke-linejoin:miter;stroke-opacity:1"
         xml:space="preserve"><tspan
           style="font-style:normal;font-variant:normal;font-weight:normal;font-stretch:condensed;font-size:33.63375854px;font-family:Impact;-inkscape-font-specification:'Impact Condensed'"
           y="1013.471"
           x="223.51721"
           id="tspan4613"></tspan></text>
    </g>
  </g>
</svg>
