<?xml version="1.0" encoding="UTF-8" standalone="no"?>
<svg
   xmlns:dc="http://purl.org/dc/elements/1.1/"
   xmlns:cc="http://creativecommons.org/ns#"
   xmlns:rdf="http://www.w3.org/1999/02/22-rdf-syntax-ns#"
   xmlns:svg="http://www.w3.org/2000/svg"
   xmlns="http://www.w3.org/2000/svg"
   version="1.1"
   id="svg2"
   viewBox="0 0 165 248"
   height="248"
   width="165">
  <defs
     id="defs4" />
  <metadata
     id="metadata7">
    <rdf:RDF>
      <cc:Work
         rdf:about="">
        <dc:format>image/svg+xml</dc:format>
        <dc:type
           rdf:resource="http://purl.org/dc/dcmitype/StillImage" />
        <dc:title></dc:title>
      </cc:Work>
    </rdf:RDF>
  </metadata>
  <g
     transform="translate(0,-804.36216)"
     id="layer1">
    <path
       transform="translate(0,804.36216)"
       id="path4173"
       d="m 40.641775,195.48759 c -0.41258,-0.49713 -1.118637,-2.73781 -1.695454,-5.38056 -0.174823,-0.80097 -0.446506,-1.74757 -0.60374,-2.10356 -0.157234,-0.35598 -0.432548,-1.30259 -0.611809,-2.10356 -0.301738,-1.34821 -0.53679,-2.24492 -1.866285,-7.11974 -0.266991,-0.97896 -0.676346,-2.50809 -0.909679,-3.39806 -0.233333,-0.88996 -0.745557,-2.78317 -1.138275,-4.20712 -1.357831,-4.92333 -1.693429,-6.15288 -1.943285,-7.11974 -0.137991,-0.53398 -0.575314,-2.13592 -0.971828,-3.55987 -0.396514,-1.42395 -0.92046,-3.35422 -1.164325,-4.28949 -0.243864,-0.93527 -0.672262,-2.53721 -0.951995,-3.55987 -0.279733,-1.02266 -0.711876,-2.66035 -0.960318,-3.63931 -0.248443,-0.97896 -0.670423,-2.58091 -0.937736,-3.55987 -0.267312,-0.97897 -0.929674,-3.43128 -1.471916,-5.44958 -0.542242,-2.01831 -1.061856,-3.79256 -1.154697,-3.94278 -0.09284,-0.15022 -0.304214,-0.90179 -0.469716,-1.67016 -0.165501,-0.76836 -0.529836,-2.23375 -0.809633,-3.2564 -0.279797,-1.02266 -0.708247,-2.6246 -0.952112,-3.55987 -0.243864,-0.93528 -0.76781,-2.86555 -1.164324,-4.2895 -0.396514,-1.42394 -0.832415,-3.02589 -0.968669,-3.55987 -0.136254,-0.53398 -0.572155,-2.13592 -0.968669,-3.55987 -0.396514,-1.42394 -0.911843,-3.31715 -1.145176,-4.20712 -0.233333,-0.88996 -0.637597,-2.41909 -0.898364,-3.39805 -0.260767,-0.97897 -0.927562,-3.48328 -1.481766,-5.56513 -0.554204,-2.08186 -1.007643,-4.003076 -1.007643,-4.269368 0,-0.321501 0.788286,-0.717223 2.346278,-1.17784 1.290453,-0.381519 2.855987,-0.851294 3.478965,-1.043944 0.622977,-0.192649 1.642394,-0.452933 2.265372,-0.578408 0.622977,-0.125475 2.297734,-0.553968 3.721683,-0.952207 2.694088,-0.753462 4.904923,-1.341499 7.928802,-2.1089 0.978965,-0.248442 2.653722,-0.689202 3.721683,-0.979467 1.067961,-0.290264 2.669903,-0.718969 3.559871,-0.952677 0.889967,-0.233708 3.074433,-0.830753 4.854368,-1.326768 2.721793,-0.758482 3.853589,-0.901275 7.119742,-0.898266 4.28109,0.0039 6.214009,0.472672 10.163226,2.464556 3.777855,1.905452 8.807667,7.437247 10.80813,11.886799 3.459521,7.69487 4.927119,15.27744 4.124032,21.30744 -0.39277,2.94912 -1.814935,7.29325 -2.771583,8.46602 -1.158602,1.42036 -1.297935,2.91262 -0.271951,2.91262 1.804883,0 6.48077,3.73598 8.478071,6.77388 1.028078,1.56371 1.493696,2.42377 2.640088,4.87661 0.201815,0.43181 0.49697,1.43075 2.103657,7.11974 1.050116,3.71827 4.503527,14.57653 4.991964,15.69579 0.155349,0.35599 0.606948,1.44472 1.003557,2.41941 0.838187,2.0599 1.24943,2.74747 3.134945,5.24146 1.509543,1.9967 1.5432,2.7353 0.139456,3.0603 -0.469851,0.10879 -2.237767,0.56094 -3.928706,1.0048 -1.690938,0.44385 -3.802589,0.99774 -4.692556,1.23087 -2.748133,0.71988 -9.292152,2.45336 -11.165049,2.95757 -3.305443,0.88987 -3.136667,0.90047 -4.210993,-0.26443 -1.319398,-1.43065 -3.552405,-5.16757 -4.420415,-7.39755 -1.239281,-3.1838 -1.682611,-4.6316 -3.171106,-10.35599 -2.650583,-10.19349 -3.408379,-12.217 -5.379787,-14.36546 l -1.486505,-1.62001 -2.840511,0.031 c -2.364421,0.0258 -2.946909,0.13741 -3.475343,0.66584 -0.669087,0.66909 -0.61801,1.17595 0.464479,4.60901 0.196434,0.62298 0.459812,1.6424 0.585288,2.26538 0.125476,0.62297 0.554961,2.29773 0.954411,3.72168 0.399453,1.42395 0.837757,3.02589 0.97401,3.55987 0.136252,0.53398 0.570042,2.13592 0.963971,3.55987 1.061258,3.83614 1.640129,5.95935 2.117589,7.76699 0.566974,2.14654 1.20177,4.52823 2.191679,8.22297 0.448702,1.67474 0.741395,3.23895 0.650424,3.47601 -0.09097,0.23706 -0.696447,0.57552 -1.345502,0.75213 -0.649058,0.1766 -1.762627,0.48138 -2.474601,0.6773 -0.711975,0.19591 -2.09547,0.55189 -3.074434,0.79107 -1.792848,0.43801 -4.160314,1.07024 -7.443366,1.98772 -0.978964,0.27359 -2.580906,0.69331 -3.55987,0.93273 -0.978965,0.23943 -2.081371,0.52696 -2.449792,0.63896 -0.413857,0.12582 -0.825171,0.0165 -1.076257,-0.28603 l 0,0 z m 9.674916,-61.37762 c 2.133563,-0.54499 4.242048,-1.65557 4.896317,-2.57899 0.315285,-0.44498 0.830337,-1.79573 1.144557,-3.00166 0.546518,-2.09745 0.546307,-2.34324 -0.0048,-5.66344 -1.056958,-6.36765 -2.774544,-10.74797 -5.00433,-12.76245 -1.791223,-1.61826 -2.973615,-1.7821 -6.446419,-0.89327 -3.666776,0.93847 -4.049998,1.14282 -3.812718,2.03309 0.103851,0.38964 0.391763,1.4366 0.639805,2.32657 0.248042,0.88996 0.66067,2.41909 0.916951,3.39805 0.627581,2.39729 1.50957,5.66798 2.007213,7.44337 0.224512,0.80097 0.661405,2.40291 0.970873,3.55987 0.309469,1.15696 0.750816,2.7589 0.980771,3.55987 0.229954,0.80097 0.510553,1.87249 0.62355,2.38115 0.167848,0.75557 0.336,0.89236 0.918689,0.74734 0.392279,-0.0976 1.368576,-0.34491 2.169547,-0.5495 l -1.6e-5,0 z"
       style="opacity:1;fill:#171717;fill-opacity:1;stroke:#fdfdfd;stroke-width:0.32362458;stroke-opacity:1" />
    <path
       transform="translate(0,804.36216)"
       id="path4177"
       d="m 108.0908,179.43894 c -0.25557,-0.41352 -0.6792,-1.74198 -1.31993,-4.1392 -0.44281,-1.6567 -0.89393,-3.31746 -1.93399,-7.11974 -0.27973,-1.02266 -0.70436,-2.66035 -0.94362,-3.63931 -0.23926,-0.97896 -0.82264,-3.16343 -1.29641,-4.85437 -1.33265,-4.75637 -1.71351,-6.144 -2.30943,-8.41424 -0.3037,-1.15696 -0.734274,-2.7589 -0.956835,-3.55987 -0.22256,-0.80097 -0.655228,-2.40291 -0.961483,-3.55987 -0.306256,-1.15696 -0.74052,-2.7589 -0.965032,-3.55987 -0.224512,-0.80097 -0.660077,-2.40291 -0.967922,-3.55987 -1.189829,-4.47167 -2.088592,-7.78844 -3.025454,-11.16505 -0.345699,-1.24595 -1.089077,-4.01294 -1.651953,-6.14887 -1.129961,-4.28781 -1.839576,-6.85811 -2.367704,-8.57605 -0.191515,-0.62298 -0.461664,-1.64239 -0.600331,-2.26537 -0.138667,-0.62298 -0.775529,-3.02589 -1.415249,-5.33981 -0.63972,-2.31391 -1.298743,-4.828129 -1.464496,-5.587147 -0.165753,-0.759016 -0.451009,-1.659637 -0.633903,-2.001378 -0.182895,-0.341741 -0.332535,-0.905459 -0.332535,-1.252708 0,-0.347249 -0.211869,-1.339833 -0.470819,-2.205742 -0.258951,-0.865909 -0.776135,-2.666613 -1.149299,-4.001564 -0.373164,-1.334952 -0.894841,-3.165791 -1.159282,-4.068533 -0.264441,-0.902741 -0.39899,-1.854544 -0.298998,-2.115118 0.19047,-0.496357 1.930602,-1.048386 9.55089,-3.029867 1.156957,-0.30084 2.831715,-0.746796 3.721682,-0.991013 0.889968,-0.244216 2.49191,-0.67441 3.559871,-0.955987 1.067961,-0.281576 2.669902,-0.706345 3.559872,-0.943931 0.88997,-0.237586 2.56472,-0.678969 3.72168,-0.98085 1.15696,-0.30188 2.60435,-0.704435 3.21642,-0.894564 3.67917,-1.142867 9.87079,-2.257338 12.803,-2.304499 10.93079,-0.17581 19.08818,6.500231 24.04976,19.68242 4.5926,12.201881 4.5269,24.720821 -0.16684,31.792241 -1.56695,2.36071 -4.80968,5.6294 -6.73082,6.78469 -1.53336,0.9221 -7.26154,3.65594 -7.65719,3.65448 -0.23838,-9.7e-4 -1.08876,0.20794 -1.88973,0.46405 -1.37852,0.44078 -3.72956,1.07496 -6.64431,1.79227 -2.11756,0.52113 -2.56032,0.99198 -2.16433,2.30162 0.42644,1.41032 1.16143,4.08336 1.86166,6.77052 0.30148,1.15696 0.7404,2.7589 0.97537,3.55987 0.23497,0.80097 0.67004,2.40291 0.96681,3.55987 0.29678,1.15696 0.7217,2.7589 0.94426,3.55987 0.4267,1.53564 1.25168,4.57565 1.97603,7.28155 0.23823,0.88997 0.73805,2.71036 1.11069,4.04531 0.37264,1.33495 0.81191,2.9369 0.97616,3.55987 0.16424,0.62298 0.37983,1.4398 0.47907,1.81515 0.28285,1.06975 -0.20075,1.28927 -6.30666,2.86271 -1.15695,0.29814 -2.61326,0.70275 -3.23624,0.89914 -0.62298,0.19638 -1.6424,0.4627 -2.26537,0.59183 -0.62298,0.12912 -2.29774,0.55223 -3.72169,0.94023 -1.42395,0.38801 -3.17152,0.83005 -3.88349,0.98233 -0.71198,0.15228 -1.53462,0.36996 -1.82811,0.48374 -0.29348,0.11377 -0.63268,0.0466 -0.75377,-0.14937 z m 10.99612,-62.02167 c 0.71197,-0.24199 1.56981,-0.44209 1.9063,-0.44469 1.12482,-0.009 3.43197,-1.40495 4.04875,-2.45033 0.89306,-1.51362 1.65013,-4.37678 1.65013,-6.24064 0,-3.24274 -2.01896,-9.767327 -3.95689,-12.787329 -1.54838,-2.412946 -3.17465,-3.448022 -5.39588,-3.434323 -1.99981,0.01233 -7.13951,1.248666 -7.93477,1.908678 -0.533,0.442348 -0.49338,0.91785 0.29844,3.581763 0.23808,0.800971 0.64376,2.257282 0.90152,3.236251 0.67585,2.56683 1.53884,5.76277 2.00991,7.44336 0.22451,0.80097 0.65951,2.40291 0.96666,3.55987 0.30715,1.15696 0.8401,3.09207 1.18433,4.30025 l 0.62587,2.19668 1.20056,-0.21478 c 0.66031,-0.11813 1.78309,-0.41277 2.49507,-0.65476 z"
       style="opacity:1;fill:#171717;fill-opacity:1;stroke:#fdfdfd;stroke-width:0.32362458;stroke-opacity:1" />
    <path
       transform="translate(0,804.36216)"
       id="path4181"
       d="m 133.05671,231.96248 c -0.2697,-0.2697 -0.28315,-2.46828 -0.0193,-3.15584 0.16134,-0.42046 0.75391,-0.50725 3.31715,-0.48586 3.67253,0.0306 5.78842,0.51649 6.4175,1.47356 0.9936,1.51163 -1.27811,2.37934 -6.23637,2.38209 -1.79477,9.9e-4 -3.36031,-0.0953 -3.47897,-0.21395 z"
       style="opacity:1;fill:#171717;fill-opacity:1;stroke:#fdfdfd;stroke-width:0.32362458;stroke-opacity:1" />
    <path
       transform="translate(0,804.36216)"
       id="path4183"
       d="m 133.24549,224.69452 c -0.55759,-0.56889 -0.50856,-2.38306 0.0775,-2.86948 0.67791,-0.56261 7.00013,-0.3184 7.74423,0.29914 0.78834,0.65427 0.49725,1.72217 -0.62112,2.27863 -1.29867,0.64617 -6.64109,0.8626 -7.20065,0.29171 z"
       style="opacity:1;fill:#171717;fill-opacity:1;stroke:#fdfdfd;stroke-width:0.32362458;stroke-opacity:1" />
    <path
       transform="translate(0,804.36216)"
       id="path4185"
       d="m 94.086917,225.34703 c -0.515743,-0.5329 -0.527043,-2.9492 -0.01618,-3.46006 0.465896,-0.4659 5.309606,-0.51488 7.216823,-0.073 1.62711,0.377 2.56107,1.41876 2.07919,2.31917 -0.49463,0.92422 -1.39143,1.16108 -5.335246,1.40917 -2.705832,0.1702 -3.635383,0.12418 -3.944586,-0.1953 z"
       style="opacity:1;fill:#171717;fill-opacity:1;stroke:#fdfdfd;stroke-width:0.32362458;stroke-opacity:1" />
    <path
       transform="translate(0,804.36216)"
       id="path4191"
       d="m 47.311625,134.55584 c -0.308063,-0.49845 -6.380047,-23.04495 -6.380047,-23.69039 0,-0.37049 0.353979,-0.75439 0.889967,-0.96519 1.68999,-0.66466 4.871479,-1.34662 6.282269,-1.34662 3.410255,0 6.034398,3.67911 7.730368,10.83816 1.056185,4.45839 1.272139,6.74323 0.817317,8.64743 -0.822438,3.44328 -1.201481,3.96649 -3.796598,5.24058 -2.375805,1.16643 -5.208076,1.8184 -5.543276,1.27603 z"
       style="opacity:1;fill:#fefefe;fill-opacity:1;stroke:#fdfdfd;stroke-width:0.32362458;stroke-opacity:1" />
    <path
       transform="translate(0,804.36216)"
       id="path4193"
       d="m 115.22669,118.30002 c -0.30703,-0.49679 -6.33395,-22.997566 -6.33395,-23.647046 0,-0.887072 1.42958,-1.507135 5.33981,-2.316085 4.46633,-0.923996 6.28148,-0.33657 8.37072,2.708968 1.4114,2.057435 2.5384,4.773775 3.47591,8.377823 0.92453,3.55415 0.92911,6.32807 0.0149,9.04835 -0.96758,2.87918 -2.46771,4.21506 -5.40801,4.81587 -0.87955,0.17973 -2.43613,0.53209 -3.45909,0.78303 -1.02295,0.25094 -1.92309,0.35403 -2.00031,0.22909 z"
       style="opacity:1;fill:#fefefe;fill-opacity:1;stroke:#fdfdfd;stroke-width:0.32362458;stroke-opacity:1" />
    <path
       transform="translate(0,804.36216)"
       id="path4195"
       d="M 10.198627,208.25129 C 9.8354626,207.57271 9.5582545,61.113896 9.9198988,60.171466 10.098205,59.706809 16.87015,60.009946 81.912723,60.009946 l 71.656237,0 0.31561,0.830129 c 0.20167,0.530441 0.31562,27.102421 0.31562,73.603525 0,46.50111 -0.11395,73.07309 -0.31562,73.60353 l -0.31561,0.83013 -71.517664,0 c -70.376196,0 -71.523005,-0.01 -71.852669,-0.62597 z m 41.011478,-15.20813 c 11.222437,-2.99147 10.819728,-2.85731 10.629065,-3.54079 -0.08101,-0.29041 -0.246013,-1.03773 -0.366667,-1.66071 -0.214162,-1.1058 -6.952475,-26.33954 -8.271492,-30.9752 -1.19733,-4.208 -0.638039,-4.93434 3.805673,-4.94236 l 2.644683,-0.005 1.19812,1.37541 c 1.754534,2.01415 2.861638,4.60723 4.525084,10.5987 2.978088,10.72662 3.759165,13.16288 5.135916,16.01942 1.546942,3.20967 3.610861,6.20528 4.469974,6.48781 0.605479,0.19913 22.823201,-5.54906 23.468589,-6.07181 0.477272,-0.38658 0.191191,-1.01428 -1.439217,-3.15784 -2.311553,-3.03908 -4.247524,-8.16732 -8.372165,-22.17725 -2.319964,-7.88008 -3.543796,-10.71388 -5.859336,-13.56734 -1.922816,-2.3695 -5.179819,-4.90277 -6.898447,-5.36555 -1.64079,-0.44182 -1.643896,-0.82606 -0.03304,-4.08655 2.068702,-4.18721 2.467935,-6.06606 2.432262,-11.44658 -0.02744,-4.13686 -0.148375,-5.13901 -1.021327,-8.4626 -1.761621,-6.707 -3.797501,-10.98854 -7.145233,-15.026715 -4.834369,-5.831431 -11.381738,-8.668708 -18.663168,-8.087627 -1.781592,0.142177 -7.48388,1.510476 -18.28479,4.387549 -17.672239,4.707411 -18.244945,4.882152 -18.387635,5.610343 -0.09241,0.471605 6.904097,27.02427 10.461306,39.70201 0.774112,2.7589 1.866456,6.76376 2.427432,8.89968 0.560977,2.13592 2.600952,9.70874 4.533279,16.82848 1.932327,7.11974 4.171561,15.42071 4.976075,18.4466 3.24616,12.20926 3.430009,12.78317 4.094993,12.78317 0.173627,0 4.646657,-1.15447 9.940068,-2.56549 z m 61.987125,-14.7677 c 5.61341,-1.40721 14.71734,-3.89163 15.879,-4.33329 0.46866,-0.17819 0.85211,-0.45242 0.85211,-0.60942 0,-0.15699 -2.11165,-8.07591 -4.69256,-17.59758 -2.5809,-9.52167 -4.69255,-17.54881 -4.69255,-17.83808 0,-0.87118 1.21866,-1.39894 6.47249,-2.80303 7.17416,-1.9173 11.92533,-4.26286 15.18012,-7.49413 5.15601,-5.11877 6.88264,-9.6343 6.9116,-18.07542 0.0226,-6.57143 -1.11187,-12.173159 -3.80119,-18.770227 -4.53811,-11.13224 -10.90282,-16.868355 -20.14288,-18.153529 -4.72106,-0.65664 -8.04587,-0.02239 -28.082925,5.357213 -13.769353,3.696831 -15.048544,4.103179 -15.048544,4.780318 0,0.237197 0.501253,2.17424 1.113897,4.304539 0.612644,2.130299 1.476929,5.256766 1.920637,6.947705 2.056893,7.838681 4.748767,17.907421 5.494081,20.550161 0.726453,2.57588 11.146374,41.11719 15.442734,57.11974 1.56935,5.84532 2.17794,7.76699 2.45978,7.76699 0.0765,0 2.20685,-0.51838 4.7342,-1.15196 z"
       style="opacity:1;fill:#fefefe;fill-opacity:1;stroke:#fdfdfd;stroke-width:0.32362458;stroke-opacity:1" />
    <path
       transform="translate(0,804.36216)"
       id="path4197"
       d="M 10.060053,51.407425 C 9.7281447,50.542487 9.8442764,11.997967 10.180393,11.466257 10.45165,11.037148 18.784489,10.98082 81.993128,10.98082 c 39.328232,0 71.627232,0.121288 71.775562,0.26953 0.30618,0.306008 0.56225,37.999599 0.26913,39.617201 l -0.19059,1.05178 -71.795368,0 c -65.169449,0 -71.813501,-0.04724 -71.991809,-0.511906 z m 6.955922,-13.242139 c 0.106936,-2.491909 0.216159,-4.567152 0.242718,-4.611651 0.210741,-0.353087 1.686776,0.05226 2.182597,0.599382 0.511607,0.56454 0.635298,1.294127 0.726975,4.288026 0.06076,1.984256 0.260631,3.789777 0.444157,4.012269 0.183526,0.222492 0.752744,0.404531 1.264931,0.404531 l 0.931247,0 0,-4.208293 c 0,-3.564703 -0.09723,-4.389708 -0.635783,-5.394526 -0.34968,-0.652429 -0.822981,-1.310008 -1.05178,-1.461288 -0.3301,-0.21826 -0.311883,-0.357313 0.08822,-0.673435 1.573676,-1.243351 2.142862,-6.433399 0.971442,-8.85796 -0.959549,-1.986036 -1.210318,-2.094553 -4.598408,-1.98989 l -3.026122,0.09348 -0.08528,10.981433 c -0.09139,11.767946 -0.113498,11.604001 1.541593,11.432499 l 0.809061,-0.08384 0.19443,-4.530744 z m 9.803308,4.180651 c 0.108041,-0.281548 0.196437,-1.1275 0.196437,-1.879893 0,-2.108901 0.469867,-2.517497 2.759845,-2.399959 l 1.932712,0.0992 0.29778,2.346278 0.297779,2.346279 1.239437,0 1.239437,0 -0.0018,-1.375405 c -10e-4,-0.756472 -0.1437,-1.88614 -0.317127,-2.510372 -0.173427,-0.624232 -0.451302,-2.226174 -0.617501,-3.55987 -0.354932,-2.848289 -0.873036,-6.032557 -1.514979,-9.311124 -0.253661,-1.295512 -0.461202,-2.87062 -0.461202,-3.50024 0,-1.910792 -0.450842,-2.396711 -2.2237,-2.396711 l -1.553678,0 -0.538495,1.936861 c -0.296173,1.065274 -0.54197,2.485177 -0.546217,3.15534 -0.0042,0.670163 -0.163217,1.801003 -0.353268,2.512977 -0.190051,0.711974 -0.465204,2.341451 -0.611451,3.621059 -0.146247,1.279609 -0.413805,2.808735 -0.594573,3.398058 -0.180768,0.589324 -0.483334,2.163731 -0.672368,3.498682 -0.189034,1.334952 -0.434375,2.900486 -0.545201,3.478965 -0.20023,1.04514 -0.193317,1.05178 1.095104,1.05178 0.883794,0 1.359146,-0.16298 1.493041,-0.511906 z m 13.141421,-8.692296 c 0,-7.014026 0.09626,-9.263803 0.404531,-9.454674 0.222492,-0.13776 0.987055,-0.328394 1.699029,-0.423631 l 1.294498,-0.173157 0,-1.618123 0,-1.618123 -4.368932,0 -4.368932,0 0,1.618123 0,1.618123 1.294498,0.173157 c 0.711975,0.09524 1.476538,0.285871 1.69903,0.423631 0.307902,0.190643 0.40453,2.397498 0.40453,9.238924 0,4.943649 0.09709,9.08554 0.21575,9.204202 0.118662,0.118662 0.555555,0.21575 0.970874,0.21575 l 0.755124,0 0,-9.204202 z m 7.76699,-2.122659 0,-11.326861 -1.294498,0 -1.294499,0 0,11.326861 0,11.326861 1.294499,0 1.294498,0 0,-11.326861 z m 5.177994,4.31419 c 0.18877,-7.992264 0.487537,-9.084272 1.268873,-4.637815 0.39891,2.270111 0.9497,4.729569 1.354424,6.04794 0.174208,0.567468 0.451055,1.857023 0.615217,2.865679 0.389359,2.392303 0.748622,2.792792 2.396932,2.671982 l 1.322483,-0.09693 0.08512,-11.266773 0.08512,-11.266774 -1.055996,0.101725 -1.055997,0.101725 -0.161812,6.472492 -0.161813,6.472492 -0.745297,-1.617105 C 56.443034,30.804403 56.022432,29.420908 55.91827,28.619378 55.814112,27.817847 55.619846,27.016419 55.486568,26.838425 55.353286,26.660432 55.15051,25.859461 55.03595,25.05849 54.92139,24.257519 54.583503,22.837616 54.285092,21.90315 l -0.542566,-1.699029 -1.712919,0 -1.712916,0 0,11.346396 0,11.346397 1.213592,-0.100442 1.213592,-0.100442 0.161813,-6.850858 z m 18.446602,6.696354 c 0.400055,-0.252513 0.485437,-1.262 0.485437,-5.739381 l 0,-5.432976 -2.10356,0 -2.10356,0 -0.09993,1.031858 c -0.0786,0.811684 0.07677,1.147632 0.728156,1.574437 0.754042,0.494068 0.82808,0.73943 0.82808,2.744263 0,2.718778 -0.183381,3.225494 -1.16731,3.225494 -2.057531,0 -2.524887,-1.980714 -2.346065,-9.942898 0.09518,-4.237852 0.215531,-5.287499 0.68912,-6.010089 0.315592,-0.48152 0.763508,-0.875492 0.995369,-0.875492 0.742692,0 1.777327,1.420537 1.885673,2.588997 0.09519,1.026579 0.207955,1.142514 1.203777,1.2376 1.780433,0.170004 1.926776,-0.61806 0.781378,-4.207766 -0.6262,-1.96253 -1.278223,-2.514426 -3.211149,-2.718035 -2.029912,-0.213825 -2.972369,0.288799 -4.007349,2.137172 -0.803754,1.435427 -0.810499,1.513737 -0.810499,9.412839 l 0,7.96537 1.132687,1.661836 1.132686,1.661836 2.750809,-0.0043 c 1.512945,-0.0024 2.969255,-0.142212 3.236246,-0.310735 z m 9.637304,-4.144775 c 0.101773,-4.841488 -0.127288,-4.447258 3.056395,-5.260238 1.214857,-0.310224 1.672848,-0.631331 2.231113,-1.564285 0.613052,-1.024506 0.703392,-1.65837 0.709754,-4.979803 0.0072,-3.75867 -0.0049,-3.820881 -0.972298,-5.016181 l -0.979586,-1.210311 -3.03875,0 -3.038754,0 -0.08537,10.839124 c -0.04695,5.961517 -0.01136,11.03195 0.07906,11.267628 0.09636,0.251095 0.533657,0.386035 1.056239,0.325925 l 0.891809,-0.10258 0.09038,-4.299279 z m 15.093508,4.264655 c 0.612427,-0.23501 0.698249,-2.076766 0.123557,-2.65146 -0.213593,-0.213592 -1.155072,-0.388349 -2.092175,-0.388349 -1.353304,0 -1.772745,-0.128779 -2.038835,-0.625974 -0.471068,-0.880201 -0.429638,-5.622439 0.05334,-6.105418 0.213592,-0.213592 1.071799,-0.388349 1.907123,-0.388349 1.677129,0 1.911647,-0.261309 1.911647,-2.130029 l 0,-1.106217 -1.71521,0 c -0.943366,0 -1.889968,-0.174758 -2.10356,-0.38835 -0.513664,-0.513663 -0.50145,-4.193225 0.01618,-4.875544 0.258741,-0.341061 0.987686,-0.567457 2.022654,-0.628197 l 1.618123,-0.09496 0.09864,-1.537217 0.09864,-1.537217 -3.41579,0 -3.41579,0 0,11.111111 c 0,6.111111 0.09709,11.208199 0.215751,11.326861 0.269712,0.269711 6.020088,0.286248 6.715709,0.01931 z m 4.719028,-5.583638 c 0,-5.922778 0.21673,-8.783032 0.66552,-8.783032 0.13966,0 0.35179,0.473301 0.47141,1.05178 0.11961,0.578479 0.4114,1.707119 0.64841,2.50809 0.60248,2.036086 1.45267,5.860018 1.47503,6.634305 0.0103,0.355987 0.27917,1.44822 0.59754,2.427184 0.49786,1.530904 0.70409,1.79479 1.474,1.886111 0.49234,0.0584 1.24355,0.01873 1.66936,-0.08814 l 0.7742,-0.194312 -0.0851,-11.076912 -0.0851,-11.076913 -1.01009,-0.0983 -1.0101,-0.0983 -0.14252,6.493634 c -0.0927,4.224836 -0.27064,6.62175 -0.50921,6.860322 -0.27317,0.273168 -0.40504,0.16904 -0.51706,-0.408278 -0.15132,-0.779772 -0.49144,-2.29938 -1.35076,-6.034892 -0.25604,-1.113024 -0.66506,-2.97758 -0.90894,-4.143458 -0.24388,-1.165878 -0.59063,-2.266989 -0.77055,-2.446914 -0.17993,-0.179925 -0.96586,-0.281388 -1.74652,-0.225474 l -1.419367,0.101662 -0.08537,10.839124 c -0.04695,5.961517 -0.01511,11.022197 0.07075,11.245954 0.08586,0.223757 0.524764,0.406832 0.975337,0.406832 l 0.81922,0 0,-5.780075 z m 16.5379,5.039898 c 0.6048,-0.407098 1.45829,-1.390107 1.89664,-2.184466 0.78271,-1.418397 0.7966,-1.57483 0.77481,-8.725843 -0.0206,-6.767126 -0.0704,-7.37045 -0.70401,-8.539863 -1.0573,-1.951283 -2.18119,-2.463373 -5.40637,-2.463373 l -2.74299,0 0,11.111111 c 0,6.111111 0.0971,11.208199 0.21576,11.326861 0.11866,0.118662 1.26217,0.21575 2.54113,0.21575 1.88643,0 2.53297,-0.139723 3.42503,-0.740177 z m 7.98088,-10.687377 0.0851,-11.265742 -1.21781,0.100693 -1.21781,0.100693 -0.0854,10.839124 c -0.047,5.961517 -0.0116,11.031499 0.0787,11.266624 0.10178,0.265229 0.56413,0.388945 1.21805,0.325926 l 1.054,-0.101577 0.0851,-11.265741 z m 4.74277,11.231117 c 0.44314,-0.170049 0.51191,-1.064443 0.51191,-6.658034 0,-5.979202 0.0423,-6.453552 0.56634,-6.353842 0.41851,0.07963 0.66751,0.656042 0.9539,2.208195 0.51663,2.799981 1.03439,5.093705 1.45564,6.448518 0.19013,0.611507 0.43572,1.849371 0.54575,2.750809 l 0.20005,1.638978 1.77994,0 1.77993,0 0,-11.165048 0,-11.165049 -1.13268,0 -1.13269,0 -0.0882,5.906149 c -0.072,4.825013 -0.17173,5.906149 -0.54453,5.906149 -0.50454,0 -0.71511,-0.51444 -1.15318,-2.817239 -0.63252,-3.324996 -1.06484,-5.160347 -1.49141,-6.331705 -0.2444,-0.671077 -0.44435,-1.588539 -0.44435,-2.038804 0,-0.792136 -0.0603,-0.815517 -1.86084,-0.721606 l -1.86084,0.09706 -0.0854,10.839124 c -0.047,5.961517 -0.0151,11.022197 0.0708,11.245954 0.16636,0.433534 1.08688,0.53389 1.92989,0.210395 z m 18.94681,-0.274904 c 0.34652,-0.417532 0.45416,-3.517518 0.35164,-10.127365 l -0.0163,-1.05178 -2.10356,0 -2.10356,0 0,1.27684 c 0,1.074099 0.14131,1.344346 0.88997,1.701988 0.811,0.387427 0.89849,0.603715 0.98612,2.437615 0.11023,2.306821 -0.2948,3.323562 -1.32113,3.316466 -1.02936,-0.0071 -1.38654,-0.320648 -1.9749,-1.733596 -0.40954,-0.983506 -0.52181,-2.422519 -0.52181,-6.68838 0,-4.683418 0.0879,-5.640425 0.63575,-6.918407 0.97372,-2.271602 2.57809,-1.824639 3.05748,0.851785 0.2536,1.415859 0.58016,1.683327 1.70926,1.399941 0.81483,-0.204508 0.82995,-0.257623 0.62669,-2.202297 -0.28677,-2.743653 -1.33697,-4.306344 -3.0935,-4.603108 -2.11374,-0.357114 -3.1796,0.04452 -4.13513,1.558169 -0.72986,1.156185 -0.8932,1.908616 -1.1763,5.418717 -0.2157,2.674477 -0.22254,5.63298 -0.0199,8.603711 0.30262,4.43611 0.3305,4.554931 1.37944,5.879327 l 1.07057,1.351715 2.68399,0 c 1.95528,0 2.79019,-0.127969 3.07516,-0.471341 z"
       style="opacity:1;fill:#fefefe;fill-opacity:1;stroke:#fdfdfd;stroke-width:0.32362458;stroke-opacity:1" />
    <path
       transform="translate(0,804.36216)"
       id="path4199"
       d="m 81.458547,29.883272 c -0.268809,-0.156566 -0.303293,-0.491245 -0.303293,-2.943551 l 0,-2.766899 0.563259,-0.345817 c 0.59638,-0.366153 1.283623,-0.336474 1.95078,0.08425 1.076273,0.678716 0.977585,5.116259 -0.131051,5.892778 -0.429364,0.300738 -1.621427,0.34616 -2.079695,0.07924 z"
       style="opacity:1;fill:#fefefe;fill-opacity:1;stroke:#fdfdfd;stroke-width:0.17331022;stroke-opacity:1" />
    <path
       transform="translate(0,804.36216)"
       id="path4201"
       d="m 114.10103,38.940745 c -0.12908,-0.241199 -0.19014,-2.628401 -0.19014,-7.433842 0,-7.917594 -0.01,-7.848917 1.13046,-7.848917 0.71499,0 1.78039,0.479916 1.89694,0.854485 0.67661,2.174635 0.86578,9.234451 0.32642,12.182509 -0.36925,2.018315 -0.68202,2.411026 -2.00779,2.52097 -0.84204,0.06983 -0.9901,0.03458 -1.15589,-0.275205 z"
       style="opacity:1;fill:#fefefe;fill-opacity:1;stroke:#fdfdfd;stroke-width:0.17331022;stroke-opacity:1" />
    <path
       transform="translate(0,804.36216)"
       id="path4203"
       d="m 17.698391,29.875031 c -0.252229,-0.09244 -0.50463,-0.339746 -0.560892,-0.549575 -0.207312,-0.77317 -0.115809,-4.895971 0.115691,-5.212565 0.34651,-0.473882 1.489382,-0.540647 2.150893,-0.125653 0.68283,0.428369 0.815343,1.013011 0.71331,3.14711 -0.07328,1.532675 -0.08342,1.563071 -0.749225,2.244914 -0.700872,0.717758 -0.901506,0.777328 -1.669777,0.495769 z"
       style="opacity:1;fill:#fefefe;fill-opacity:1;stroke:#fdfdfd;stroke-width:0.17331022;stroke-opacity:1" />
    <path
       transform="translate(0,804.36216)"
       id="path4207"
       d="m 28.902422,34.564954 c -0.285851,-0.08515 -0.617307,-0.28827 -0.736568,-0.451369 -0.374957,-0.512785 -0.210091,-2.281433 0.38496,-4.129776 0.122749,-0.381282 0.277559,-1.291 0.344021,-2.021596 0.1256,-1.38066 0.441825,-2.110902 0.773039,-1.785139 0.225172,0.221466 0.534174,1.795482 0.534174,2.721009 0,0.377697 0.111074,0.932477 0.246831,1.232844 0.318633,0.704986 0.61972,2.195388 0.61972,3.067652 0,0.709714 -0.455383,1.377951 -0.939031,1.377951 -0.135185,0 -0.349657,0.03223 -0.476604,0.07163 -0.126946,0.03939 -0.46469,0.002 -0.750542,-0.0832 z"
       style="opacity:1;fill:#fefefe;fill-opacity:1;stroke:#fdfdfd;stroke-width:0.17331022;stroke-opacity:1" />
    <path
       transform="translate(0,804.36216)"
       id="path4213"
       d="m 24.284742,42.466674 c 0,-0.494776 1.054751,-6.771189 1.296454,-7.714695 0.134605,-0.52544 0.372025,-1.89122 0.5276,-3.035067 0.155575,-1.143848 0.397532,-2.62565 0.537682,-3.292895 0.14015,-0.667244 0.362281,-2.110052 0.493625,-3.206239 0.131343,-1.096187 0.413071,-2.636482 0.626062,-3.422877 l 0.387256,-1.429809 1.339355,0 c 1.924381,0 2.070377,0.151384 2.265834,2.34946 0.08428,0.947832 0.305796,2.542221 0.492252,3.543088 0.505148,2.711555 1.163752,6.75417 1.476408,9.062428 0.152227,1.123851 0.428399,2.761632 0.613716,3.639516 0.185316,0.877882 0.338161,2.083584 0.339654,2.679338 l 0.0027,1.083189 -1.126517,0 c -0.619584,0 -1.131927,-0.0195 -1.138541,-0.04333 -0.0066,-0.02383 -0.143096,-1.057192 -0.303293,-2.29636 L 31.823737,38.12939 30.52391,37.987087 c -1.598005,-0.174947 -2.605409,-0.03956 -3.09422,0.415835 -0.204591,0.190607 -0.375771,0.363016 -0.380399,0.383133 -0.0046,0.02012 -0.07063,0.808749 -0.14666,1.752517 -0.162033,2.011206 -0.296031,2.183539 -1.697807,2.183539 -0.695061,0 -0.920082,-0.06247 -0.920082,-0.255437 z m 6.455806,-8.26476 c 0.381935,-0.449598 0.401291,-1.790353 0.04471,-3.097147 -0.37102,-1.359723 -0.571944,-2.368138 -0.694295,-3.484592 -0.119891,-1.094004 -0.466682,-1.737555 -0.773563,-1.435523 -0.104489,0.102838 -0.271851,0.68776 -0.371916,1.299827 -0.100066,0.612067 -0.370778,1.93805 -0.601584,2.94663 -0.419139,1.831562 -0.519529,2.990233 -0.307054,3.543933 0.298417,0.777663 2.106886,0.929414 2.703698,0.226872 z"
       style="opacity:1;fill:#171717;fill-opacity:1;stroke:#fdfdfd;stroke-width:0.17331022;stroke-opacity:1" />
    <path
       transform="translate(0,804.36216)"
       id="path4215"
       d="m 14.88876,42.332163 c -0.174762,-0.30596 -0.222735,-2.673132 -0.222735,-10.990668 0,-5.830396 0.06477,-10.665751 0.143934,-10.745234 0.07916,-0.07948 1.296948,-0.169467 2.706186,-0.199966 3.2239,-0.06977 3.533009,0.03547 4.290781,1.460905 0.709351,1.334348 0.984798,2.885077 0.838766,4.722139 -0.145442,1.829654 -0.6144,3.348172 -1.295897,4.196204 -0.637507,0.793292 -0.64398,0.861706 -0.127431,1.346978 0.590587,0.554827 1.14787,1.773577 1.335873,2.921487 0.09059,0.553112 0.165157,2.506959 0.16571,4.341881 l 0.001,3.336222 -0.679066,0 c -0.910849,0 -1.223696,-0.141144 -1.412283,-0.637165 -0.08711,-0.229119 -0.240729,-1.867417 -0.341373,-3.640662 -0.109356,-1.926722 -0.278543,-3.452771 -0.42045,-3.792402 -0.301736,-0.722155 -0.932234,-1.135166 -1.899344,-1.244173 l -0.761381,-0.08582 -0.103515,1.103923 c -0.05693,0.607158 -0.167289,2.650562 -0.245234,4.540898 -0.154319,3.742552 -0.155989,3.747804 -1.193648,3.752747 -0.397985,0.0019 -0.620794,-0.108751 -0.779896,-0.387295 z m 4.113066,-12.539596 c 0.892895,-0.585048 1.123471,-1.250508 1.123471,-3.242427 0,-1.658837 -0.03759,-1.876661 -0.395667,-2.292953 -0.490752,-0.570534 -1.749232,-0.772174 -2.290642,-0.367018 -0.314449,0.235314 -0.352071,0.499696 -0.405348,2.848529 l -0.05873,2.58914 0.472048,0.371314 c 0.563304,0.443094 0.982728,0.468293 1.554865,0.09341 z"
       style="opacity:1;fill:#171717;fill-opacity:1;stroke:#fdfdfd;stroke-width:0.17331022;stroke-opacity:1" />
    <path
       transform="translate(0,804.36216)"
       id="path4217"
       d="m 38.378554,42.505473 c -0.07595,-0.119151 -0.183527,-4.155112 -0.239069,-8.968804 -0.07071,-6.128049 -0.161196,-8.86364 -0.301803,-9.12396 -0.19468,-0.360433 -0.802155,-0.56389 -2.504413,-0.838786 l -0.649913,-0.104953 0,-1.465284 0,-1.465284 4.2461,0 4.246101,0 0,1.461458 c 0,1.638737 0.08061,1.545846 -1.51753,1.748655 -0.501018,0.06358 -1.08594,0.257249 -1.299826,0.430375 l -0.388883,0.314775 -0.05444,9.114223 -0.05444,9.114223 -0.671896,0 c -0.369542,0 -0.734033,-0.09749 -0.809979,-0.216638 z"
       style="opacity:1;fill:#171717;fill-opacity:1;stroke:#fdfdfd;stroke-width:0.17331022;stroke-opacity:1" />
    <path
       transform="translate(0,804.36216)"
       id="path4219"
       d="m 45.25528,31.543601 0,-11.178509 1.213171,0 1.213172,0 0,11.178509 0,11.17851 -1.213172,0 -1.213171,0 0,-11.17851 z"
       style="opacity:1;fill:#171717;fill-opacity:1;stroke:#fdfdfd;stroke-width:0.17331022;stroke-opacity:1" />
    <path
       transform="translate(0,804.36216)"
       id="path4221"
       d="m 50.454586,31.543601 0,-11.178509 1.619642,0 1.619641,0 0.446774,1.516464 c 0.245725,0.834056 0.536192,1.984402 0.645482,2.556326 0.10929,0.571924 0.383553,1.741768 0.609474,2.599654 0.225921,0.857885 0.53551,2.057094 0.687974,2.664908 0.316451,1.261559 1.308155,3.660915 1.513133,3.660915 0.0753,0 0.14122,-0.52643 0.146488,-1.169844 0.0294,-3.590614 0.307138,-11.466515 0.410242,-11.633342 0.06631,-0.107294 0.517828,-0.195081 1.00337,-0.195081 l 0.882802,0 -0.112346,1.94974 c -0.06179,1.072357 -0.112702,6.058913 -0.113135,11.081235 l -7.88e-4,9.131495 -0.77874,0.116779 c -1.798094,0.269642 -2.289883,-0.113625 -2.679996,-2.088608 -0.11297,-0.571924 -0.546114,-2.482669 -0.962541,-4.2461 -0.416427,-1.763432 -0.926019,-4.118925 -1.132427,-5.234428 -0.349222,-1.887329 -0.683891,-2.797186 -0.936108,-2.54497 -0.240595,0.240596 -0.438274,3.282777 -0.550799,8.476535 -0.13507,6.234322 0.01067,5.707859 -1.581573,5.712975 l -0.736569,0.0024 0,-11.17851 z"
       style="opacity:1;fill:#171717;fill-opacity:1;stroke:#fdfdfd;stroke-width:0.17331022;stroke-opacity:1" />
    <path
       transform="translate(0,804.36216)"
       id="path4227"
       d="m 64.354788,41.163374 -1.091133,-1.589672 0.05127,-8.087841 c 0.05665,-8.935824 -0.02897,-8.22576 1.210331,-10.037355 0.642854,-0.939713 1.363828,-1.310053 2.56711,-1.318635 2.438098,-0.01739 3.218985,0.552141 3.966937,2.89324 0.649821,2.033948 0.822061,3.153581 0.537822,3.496068 -0.265501,0.31991 -1.790016,0.351232 -2.032181,0.04175 -0.09324,-0.11915 -0.263311,-0.606585 -0.377946,-1.083188 -0.252706,-1.050634 -0.844285,-1.995158 -1.453988,-2.321461 -0.396954,-0.212443 -0.506977,-0.205427 -0.908963,0.05796 -0.93777,0.614451 -1.138613,1.498327 -1.316731,5.794728 -0.194909,4.701422 0.0063,8.46716 0.513027,9.599526 0.449307,1.004135 0.921356,1.381126 1.756806,1.403033 1.177714,0.03088 1.298818,-0.22812 1.368591,-2.926955 L 69.20605,34.75192 68.409175,33.977446 C 67.765372,33.351742 67.6123,33.087933 67.6123,32.604096 c 0,-1.142937 0.008,-1.147157 2.18492,-1.147157 l 1.974525,0 -0.0089,4.202773 c -0.0096,4.53578 -0.144801,6.418813 -0.48531,6.759466 -0.149639,0.149702 -1.080391,0.234368 -3.023896,0.275066 l -2.807717,0.0588 -1.091133,-1.589673 z"
       style="opacity:1;fill:#171717;fill-opacity:1;stroke:#fdfdfd;stroke-width:0.17331022;stroke-opacity:1" />
    <path
       transform="translate(0,804.36216)"
       id="path4229"
       d="m 79.267411,42.607331 c -0.170114,-0.06864 -0.216637,-2.447728 -0.216637,-11.078172 l 0,-10.990757 2.996895,0 2.996895,0 0.81189,1.060191 c 0.44654,0.583106 0.860117,1.317262 0.919061,1.631459 0.05894,0.314196 0.08026,2.042644 0.04737,3.840994 -0.05684,3.10795 -0.08175,3.312348 -0.503353,4.131107 -0.49262,0.956673 -1.241682,1.54841 -2.312263,1.826621 -0.390715,0.101535 -1.001609,0.260019 -1.357542,0.352188 -0.355932,0.09217 -0.862865,0.353094 -1.126516,0.579834 l -0.479367,0.412255 -0.15421,4.044547 c -0.09948,2.609198 -0.222493,4.089735 -0.34662,4.171877 -0.214656,0.14205 -0.942563,0.152239 -1.2756,0.01786 z m 4.341043,-12.886888 c 0.596118,-0.468906 0.884865,-1.810988 0.779866,-3.624778 -0.09346,-1.614415 -0.428882,-2.247439 -1.327416,-2.505135 -0.414113,-0.118766 -0.71562,-0.08107 -1.238862,0.154876 l -0.691546,0.311843 0,2.671381 c 0,1.510022 0.078,2.817118 0.179408,3.006608 0.255657,0.477699 1.684135,0.468504 2.29855,-0.01479 z"
       style="opacity:1;fill:#171717;fill-opacity:1;stroke:#fdfdfd;stroke-width:0.17331022;stroke-opacity:1" />
    <path
       transform="translate(0,804.36216)"
       id="path4231"
       d="M 89.622697,42.552549 C 89.397042,42.409972 89.355359,40.934988 89.306866,31.376693 l -0.05586,-11.011601 3.325794,0 3.325794,0 -0.124387,1.343154 c -0.06841,0.738735 -0.140399,1.360484 -0.15997,1.381665 -0.01957,0.02118 -0.675241,0.110075 -1.457045,0.197543 -1.645636,0.184113 -2.193738,0.475194 -2.348101,1.24701 -0.168456,0.842279 -0.132,3.550912 0.05439,4.041156 0.209942,0.55219 1.055114,0.799343 2.737889,0.800637 l 1.256499,9.67e-4 -0.0026,0.996533 c -0.004,1.575157 -0.219277,1.841145 -1.600856,1.978314 -2.016159,0.200172 -2.180542,0.26812 -2.397073,0.990836 -0.117672,0.392755 -0.169889,1.610452 -0.133013,3.101898 0.07753,3.135867 0.08105,3.140587 2.476395,3.321753 1.908357,0.144335 2.163928,0.296903 2.202919,1.31508 0.04003,1.045423 -0.138129,1.411622 -0.74592,1.53318 -0.849781,0.169957 -5.751515,0.119414 -6.039066,-0.06227 z"
       style="opacity:1;fill:#171717;fill-opacity:1;stroke:#fdfdfd;stroke-width:0.17331022;stroke-opacity:1" />
    <path
       transform="translate(0,804.36216)"
       id="path4233"
       d="M 99.32807,42.552624 C 99.108435,42.413915 99.060902,41.601 99.021676,37.312643 c -0.02554,-2.79169 0.01346,-7.727447 0.08666,-10.968348 l 0.133083,-5.892548 1.166581,-0.05117 c 0.64161,-0.02814 1.31028,0.02574 1.48592,0.119735 0.39248,0.210049 0.69672,1.232692 1.60377,5.390709 0.38469,1.763432 0.80515,3.635182 0.93437,4.159446 0.12921,0.524263 0.36482,1.557625 0.52357,2.29636 0.30733,1.430193 0.64246,1.740407 0.96466,0.892953 0.20529,-0.539952 0.50437,-6.560866 0.50969,-10.260762 l 0.004,-2.652038 0.90988,0.05238 0.90988,0.05239 0.10836,10.918544 c 0.0596,6.0052 0.0473,10.98544 -0.0273,11.067201 -0.0746,0.08176 -0.63033,0.188239 -1.23488,0.236619 -0.90262,0.07223 -1.1697,0.03015 -1.49357,-0.235312 -0.50867,-0.416946 -1.17106,-2.391009 -1.51087,-4.502787 -0.2853,-1.772951 -2.05913,-8.89896 -2.35084,-9.444028 -0.71492,-1.335852 -1.02269,1.305911 -1.02685,8.814182 l -0.003,5.415945 -0.56326,-0.0027 c -0.309785,-0.0015 -0.680235,-0.07654 -0.823216,-0.166834 z"
       style="opacity:1;fill:#171717;fill-opacity:1;stroke:#fdfdfd;stroke-width:0.17331022;stroke-opacity:1" />
    <path
       transform="translate(0,804.36216)"
       id="path4235"
       d="m 111.6331,42.552553 c -0.22568,-0.142588 -0.26721,-1.618608 -0.31489,-11.19163 l -0.0549,-11.027379 2.65457,0.0591 c 3.24692,0.07229 3.96555,0.331523 4.90781,1.770397 0.98748,1.507953 1.01841,1.787209 1.02952,9.297014 l 0.0101,6.848864 -0.56042,1.13891 c -0.67874,1.379366 -2.11742,2.81286 -3.0956,3.084453 -0.83162,0.230897 -4.2191,0.245902 -4.57621,0.02027 z m 4.85172,-3.729054 c 0.54788,-0.495818 0.86149,-1.86642 1.04388,-4.562055 0.22975,-3.395597 -0.13362,-9.140002 -0.62886,-9.941305 -0.36828,-0.595891 -2.28402,-0.863595 -2.6892,-0.375786 -0.30908,0.372113 -0.45324,14.083845 -0.15629,14.8649 0.17846,0.469378 0.22381,0.485809 1.13267,0.41044 0.5841,-0.04844 1.08124,-0.200204 1.2978,-0.396194 z"
       style="opacity:1;fill:#171717;fill-opacity:1;stroke:#fdfdfd;stroke-width:0.17331022;stroke-opacity:1" />
    <path
       transform="translate(0,804.36216)"
       id="path4237"
       d="m 123.25825,42.5709 c -0.20947,-0.141212 -0.24162,-1.802772 -0.21352,-11.034309 0.0182,-5.977435 0.0753,-10.936337 0.12684,-11.019781 0.0516,-0.08345 0.55615,-0.151718 1.12128,-0.151718 l 1.02752,0 -0.1086,11.048527 c -0.0597,6.07669 -0.13291,11.07717 -0.16263,11.112178 -0.13413,0.157997 -1.5698,0.194153 -1.79089,0.0451 z"
       style="opacity:1;fill:#171717;fill-opacity:1;stroke:#fdfdfd;stroke-width:0.17331022;stroke-opacity:1" />
    <path
       transform="translate(0,804.36216)"
       id="path4239"
       d="m 128.33626,42.514381 c -0.20657,-0.334239 -0.26477,-7.998732 -0.1162,-15.303535 l 0.13747,-6.759099 1.63764,0 1.63763,0 0.19741,1.039861 c 0.10858,0.571924 0.36617,1.585789 0.57242,2.253033 0.20626,0.667245 0.68389,2.684697 1.0614,4.483228 0.37751,1.798531 0.80809,3.45581 0.95685,3.682842 0.31918,0.487126 0.69313,0.533863 0.87607,0.109494 0.12715,-0.294959 0.38368,-6.389832 0.41213,-9.792028 l 0.0141,-1.689775 1.03986,0 1.03986,0 0,11.005199 0,11.0052 -1.71072,0 -1.71071,0 -0.11586,-1.083189 c -0.0637,-0.595754 -0.42079,-2.331023 -0.79348,-3.856153 -0.37269,-1.52513 -0.87652,-3.780975 -1.11963,-5.012989 -0.24311,-1.232015 -0.56083,-2.421356 -0.70604,-2.642981 -0.33841,-0.51648 -0.87658,-0.523388 -1.01335,-0.01301 -0.0575,0.214471 -0.11339,2.339688 -0.12424,4.722703 -0.0254,5.567472 -0.16002,7.671571 -0.50493,7.88942 -0.37103,0.234348 -1.51547,0.208116 -1.66772,-0.03822 z"
       style="opacity:1;fill:#171717;fill-opacity:1;stroke:#fdfdfd;stroke-width:0.17331022;stroke-opacity:1" />
    <path
       transform="translate(0,804.36216)"
       id="path4241"
       d="m 142.51611,41.768121 c -1.01726,-1.303076 -1.22865,-1.888483 -1.42547,-3.947492 -0.4511,-4.719257 -0.36611,-10.680857 0.19804,-13.891758 0.49461,-2.815112 2.14838,-4.214334 4.51592,-3.820839 1.99686,0.331886 2.89001,1.573858 3.28948,4.574196 0.20452,1.536138 0.19842,1.629374 -0.12198,1.863897 -0.1855,0.13578 -0.61023,0.223904 -0.94386,0.195831 -0.55422,-0.04663 -0.62702,-0.118358 -0.84339,-0.830937 -0.50156,-1.65178 -0.81962,-2.316357 -1.26862,-2.650746 -0.4094,-0.304895 -0.52944,-0.320267 -0.995,-0.127424 -0.64687,0.267941 -1.10046,0.97723 -1.49169,2.332563 -0.2497,0.865035 -0.29576,1.810593 -0.2913,5.979203 0.005,5.132002 0.093,5.982997 0.76169,7.405539 0.64901,1.380707 2.24616,1.670324 2.87483,0.521304 0.23534,-0.430137 0.29985,-0.973931 0.29831,-2.514538 l -0.002,-1.96571 -0.60462,-0.502545 c -0.33254,-0.276399 -0.74111,-0.620165 -0.90792,-0.763925 -0.22611,-0.194863 -0.30329,-0.526012 -0.30329,-1.301243 l 0,-1.039861 2.00629,0 2.00628,0 -0.0565,5.366654 c -0.0514,4.873703 -0.0849,5.39506 -0.36573,5.675909 -0.26523,0.265305 -0.68395,0.315539 -2.94627,0.35346 l -2.6371,0.0442 -0.7461,-0.95574 z"
       style="opacity:1;fill:#171717;fill-opacity:1;stroke:#fdfdfd;stroke-width:0.17331022;stroke-opacity:1" />
    <path
       transform="translate(0,804.36216)"
       id="path4265"
       d="m 56.95372,237.15346 c -2.778862,-0.15931 -4.59672,-0.43553 -5.682235,-0.8634 -0.456352,-0.17988 -1.002653,-0.32705 -1.214004,-0.32705 -0.21135,0 -1.044394,-0.32019 -1.85121,-0.71154 -1.862786,-0.90355 -3.990853,-2.90894 -3.990853,-3.76078 0,-1.13469 -0.31019,-1.07361 5.452002,-1.07361 l 5.241607,0 0.849036,0.44982 c 0.46697,0.2474 0.98521,0.59476 1.151645,0.77192 0.444263,0.47287 1.319951,0.5997 4.030147,0.58369 2.88326,-0.017 3.839686,-0.25678 3.768752,-0.94472 -0.07287,-0.70672 -0.758319,-1.15579 -1.980625,-1.29761 -0.602188,-0.0699 -1.679808,-0.23527 -2.394713,-0.36755 -0.714904,-0.13229 -2.508665,-0.39342 -3.986135,-0.5803 -1.47747,-0.18688 -3.072578,-0.45972 -3.544685,-0.60632 -0.472107,-0.1466 -1.368988,-0.34617 -1.993068,-0.4435 -0.62408,-0.0973 -1.332746,-0.32046 -1.574813,-0.49585 -0.242067,-0.1754 -0.700958,-0.37619 -1.019756,-0.44621 -0.704471,-0.15473 -2.013126,-1.11315 -2.641673,-1.93469 -1.111774,-1.45313 -1.000011,-3.61015 0.262835,-5.07272 1.736861,-2.01155 5.872417,-3.28449 11.874263,-3.65494 4.187961,-0.25849 10.295557,0.35829 11.978221,1.20964 0.335582,0.16979 0.883113,0.36732 1.216735,0.43895 0.333622,0.0716 0.827042,0.31512 1.096487,0.54108 0.269444,0.22596 0.565246,0.41084 0.657338,0.41084 0.259563,0 1.889509,1.58281 2.136036,2.07427 0.385737,0.76897 0.459928,1.52162 0.161286,1.63622 -0.146669,0.0563 -2.607438,0.10234 -5.468378,0.10234 -4.803513,0 -5.23692,-0.0248 -5.661734,-0.3244 -0.253016,-0.17842 -0.879328,-0.53568 -1.391803,-0.79391 -0.884116,-0.4455 -1.037828,-0.46658 -3.005291,-0.41217 -1.948641,0.0539 -2.093887,0.0825 -2.411728,0.47548 -0.422952,0.5229 -0.359497,0.89662 0.197505,1.16321 0.781481,0.37402 3.697877,0.94239 6.158958,1.2003 1.33027,0.13941 3.042589,0.40303 3.805154,0.58583 0.762565,0.1828 1.756706,0.38202 2.209201,0.44272 1.027167,0.13779 4.057919,1.1956 4.454926,1.55489 0.162566,0.14712 0.370674,0.26749 0.462459,0.26749 0.216983,0 1.378104,1.09606 1.59336,1.50408 0.0916,0.17362 0.293579,0.69263 0.448851,1.15336 0.275307,0.81688 0.271269,0.8685 -0.162667,2.07972 -0.351913,0.98227 -0.63097,1.41872 -1.334243,2.08677 -0.811509,0.77086 -3.331526,2.1882 -3.890603,2.1882 -0.122754,0 -0.887776,0.19259 -1.70005,0.42798 -2.15035,0.62315 -8.199498,0.99793 -12.306537,0.76247 z"
       style="opacity:1;fill:#fefefe;fill-opacity:1;stroke:#fdfdfd;stroke-width:0.17331022;stroke-opacity:1" />
    <path
       transform="translate(0,804.36216)"
       id="path4267"
       d="m 82.223913,236.61293 c -0.07712,-0.11916 -0.16237,-4.46708 -0.189453,-9.66205 -0.03726,-7.14779 0.0019,-9.54098 0.160843,-9.8383 l 0.210086,-0.39289 9.197909,0.0663 c 9.259702,0.0668 15.614692,0.30379 16.736902,0.62426 0.33362,0.0953 1.15737,0.32391 1.83056,0.50808 2.08571,0.57059 3.6235,1.86321 4.12005,3.46318 0.37845,1.2194 0.36882,1.37908 -0.16321,2.70806 -0.48767,1.21818 -0.78617,1.52103 -2.56399,2.60133 -0.62747,0.38128 -1.14149,0.74898 -1.14227,0.81712 -0.002,0.19062 0.54327,0.43913 1.25825,0.57326 1.79627,0.33698 2.89162,2.21127 2.8969,4.95698 0.003,1.59994 0.3201,2.82495 0.82699,3.19559 0.16602,0.12141 0.2371,0.2856 0.15794,0.36489 -0.1614,0.16166 -10.72914,0.30056 -11.33514,0.14898 -0.73819,-0.18464 -0.99018,-0.87307 -1.10897,-3.02953 -0.0606,-1.10071 -0.16087,-2.12323 -0.22277,-2.27225 -0.0619,-0.14903 -0.59721,-0.51951 -1.18959,-0.82329 l -1.07705,-0.55234 -3.214908,7e-5 c -2.269322,4e-5 -3.276075,0.0612 -3.422877,0.20804 -0.145695,0.14569 -0.207972,1.10398 -0.207972,3.20014 0,2.78089 -0.02367,3.00484 -0.335227,3.17158 -0.518567,0.27752 -11.04188,0.24261 -11.223003,-0.0372 z m 17.934207,-11.40592 c 0.92562,-0.10124 1.95551,-0.31572 2.28864,-0.4766 1.27234,-0.61449 1.03747,-1.81785 -0.49033,-2.5122 -0.68708,-0.31226 -1.22016,-0.3777 -3.547083,-0.43542 -3.548042,-0.088 -4.237293,0.0104 -4.40733,0.62922 -0.186038,0.67704 -0.12248,2.16677 0.111061,2.60315 0.189266,0.35365 0.324501,0.37593 2.281647,0.37593 1.14425,0 2.83778,-0.0828 3.763395,-0.18408 z"
       style="opacity:1;fill:#fefefe;fill-opacity:1;stroke:#fdfdfd;stroke-width:0.17331022;stroke-opacity:1" />
    <path
       transform="translate(0,804.36216)"
       id="path4269"
       d="m 121.65955,236.71918 c -0.15703,-0.0448 -0.33144,-0.25279 -0.38758,-0.46216 -0.0562,-0.20936 -0.10314,-4.56305 -0.10445,-9.67487 -0.002,-8.43471 0.0241,-9.3162 0.28416,-9.53206 0.23505,-0.19513 1.90851,-0.23641 9.31542,-0.22979 8.7878,0.008 14.81607,0.22762 16.04797,0.58506 0.33362,0.0968 1.15251,0.3235 1.81976,0.50378 2.47221,0.66793 4.1612,2.29748 4.09854,3.95427 -0.0479,1.26557 -0.80128,2.41041 -2.1488,3.26521 -0.36268,0.23007 -0.4766,0.43914 -0.4766,0.87465 0,0.52468 0.0685,0.59756 0.82322,0.87551 0.95355,0.3512 1.39331,0.70461 2.31955,1.86409 0.63091,0.78979 0.67005,0.90809 0.67005,2.02512 0,0.65248 -0.0687,1.36705 -0.1527,1.58795 -0.2458,0.64651 -2.09215,2.36495 -2.77534,2.58307 -0.34365,0.10972 -0.85879,0.33971 -1.14475,0.51108 -0.28596,0.17138 -1.06586,0.3942 -1.7331,0.49516 -0.66725,0.10096 -1.7591,0.3124 -2.42634,0.46986 -1.05003,0.24778 -2.72816,0.29296 -12.47834,0.33592 -6.19584,0.0273 -11.39364,0.013 -11.55067,-0.0318 z m 18.82022,-4.99975 c 2.11796,-0.37737 2.87205,-1.18092 1.92869,-2.0552 -0.79341,-0.73531 -2.14841,-1.00311 -5.55873,-1.09864 -3.86495,-0.10826 -3.79503,-0.14044 -3.80549,1.75173 -0.006,0.99543 0.0574,1.3663 0.25263,1.48981 0.40287,0.25483 5.61782,0.19117 7.1829,-0.0877 z m -0.99982,-7.19543 c 1.09842,-0.24001 1.78919,-0.83061 1.78919,-1.52976 0,-0.67904 -0.24369,-0.84375 -1.56573,-1.05824 -1.2024,-0.19508 -5.37377,-0.24747 -6.01526,-0.0755 -0.46603,0.1249 -0.79295,1.13229 -0.63072,1.94348 0.11715,0.58573 0.31013,0.80336 0.84603,0.95412 0.54353,0.1529 4.58105,-0.0166 5.57649,-0.23406 z"
       style="opacity:1;fill:#fefefe;fill-opacity:1;stroke:#fdfdfd;stroke-width:0.17331022;stroke-opacity:1" />
    <path
       transform="translate(0,804.36216)"
       id="path4271"
       d="m 10.540814,236.61293 c -0.267003,-0.19811 -0.294258,-1.02934 -0.318606,-9.717 -0.02436,-8.69353 -0.0019,-9.52513 0.264983,-9.79203 0.267636,-0.26769 1.432999,-0.29556 14.17552,-0.33903 12.793907,-0.0437 13.909142,-0.0245 14.20531,0.2435 0.277016,0.25069 0.321401,0.56239 0.321401,2.25707 0,2.93622 0.8798,2.65944 -8.453638,2.65944 -8.515961,0 -8.53382,0.002 -8.52811,1.00637 0.0069,1.20738 0.246417,1.24667 7.601153,1.24667 4.851333,0 6.439274,0.0521 6.667019,0.21859 0.259338,0.18964 0.292432,0.49291 0.249763,2.28884 -0.04853,2.0428 -0.05493,2.07183 -0.482461,2.19047 -0.238302,0.0661 -3.294317,0.12801 -6.791144,0.13751 -3.665376,0.01 -6.546134,0.0889 -6.802426,0.18629 -0.414749,0.15769 -0.444558,0.24514 -0.444558,1.30412 0,1.05898 0.02981,1.14643 0.444558,1.30412 0.266134,0.10118 3.739066,0.16902 8.653131,0.16902 7.475572,0 8.234728,0.0262 8.501467,0.29289 0.249592,0.24959 0.282015,0.57708 0.219313,2.21518 -0.04047,1.05725 -0.132306,2.01731 -0.204086,2.13345 -0.192735,0.31185 -28.858126,0.30649 -29.278589,-0.005 l 0,10e-6 z"
       style="opacity:1;fill:#fefefe;fill-opacity:1;stroke:#fdfdfd;stroke-width:0.17331022;stroke-opacity:1" />
    <path
       transform="translate(0,804.36216)"
       id="path4307"
       d="M 1.5514496,246.40369 C 0.59288537,193.10567 1.4857599,42.354839 1.515628,1.2413335 c 0.3867872,-0.093452 0,0 81.804324,0.1396665 77.913378,0.1330234 80.186318,-0.2726659 80.637088,0.3438083 0.39348,0.5381383 -0.58246,18.7295127 -0.58246,122.2399417 0,82.40782 0.31501,122.32232 0.0865,122.74923 -54.1283,0.12009 -101.063226,-0.13055 -161.9096704,-0.31029 z m 67.6295864,-9.9489 c 5.248035,-1.20448 8.238235,-4.34344 6.988003,-7.33567 -0.979081,-2.34327 -3.723368,-3.60087 -10.068065,-4.6138 -7.902745,-1.26168 -9.016712,-1.53797 -9.016712,-2.23633 0,-0.57673 0.246551,-0.65519 2.324425,-0.73965 1.835626,-0.0746 2.596065,0.0441 3.616181,0.56451 1.146126,0.58471 1.891123,0.65901 6.608148,0.65901 3.089065,0 5.397468,-0.13118 5.509907,-0.31311 0.311939,-0.50472 -0.711236,-2.16654 -1.885271,-3.06203 -2.951987,-2.25158 -8.166594,-3.2815 -15.124629,-2.98719 -7.266778,0.30736 -11.479103,1.81211 -12.818584,4.57911 -0.847432,1.75056 -0.666965,3.1132 0.594148,4.48619 1.70561,1.85694 4.97302,2.84945 13.404068,4.07163 4.396968,0.6374 5.352252,0.95488 5.352252,1.77877 0,0.64156 -0.794858,0.80147 -3.983758,0.80147 -2.629268,0 -3.097013,-0.0909 -4.150052,-0.80645 -1.151458,-0.78244 -1.350926,-0.80645 -6.69791,-0.80645 -6.090109,0 -6.537735,0.15989 -5.263132,1.88002 1.639539,2.21264 5.074755,3.85506 9.610981,4.59515 2.693368,0.43942 12.274448,0.11035 15,-0.51518 z m -29.347829,-0.15354 c 0.461087,-0.72985 0.392874,-3.86489 -0.08765,-4.02853 -0.579474,-0.19733 -7.378197,-0.44767 -12.741936,-0.46917 l -4.596774,-0.0184 0,-1.24121 0,-1.24121 6.961808,-0.18296 c 3.828995,-0.10064 7.046905,-0.26806 7.150912,-0.37207 0.104006,-0.10401 0.253125,-0.96115 0.331377,-1.90476 0.231023,-2.78583 0.197219,-2.79884 -7.289719,-2.80467 -3.491359,-0.003 -6.543661,-0.12898 -6.782892,-0.28059 -0.239231,-0.1516 -0.382673,-0.54857 -0.318759,-0.88215 0.108921,-0.56849 0.611377,-0.61687 8.01561,-0.77168 4.344673,-0.0909 8.080857,-0.28087 8.302631,-0.42227 0.52741,-0.33627 0.540568,-4.14619 0.01613,-4.67063 -0.288671,-0.28867 -3.631077,-0.38237 -13.145161,-0.3685 -7.016936,0.0102 -13.33871,0.12156 -14.048387,0.2474 l -1.290323,0.22882 0,9.65741 0,9.6574 0.806452,0.22935 c 0.443548,0.12613 7.017473,0.20526 14.608723,0.17583 11.878002,-0.0461 13.84489,-0.12097 14.107964,-0.53738 z m 53.425745,0.39828 c 0.204758,-0.13178 0.472403,-1.63328 0.602877,-3.38215 l 0.234639,-3.14517 3.438248,0 c 3.296374,0 3.882364,0.13557 5.183674,1.19921 0.0826,0.0676 0.24497,1.15607 0.36072,2.41892 0.15398,1.67988 0.36828,2.41151 0.79849,2.72609 0.62013,0.45345 8.15733,0.61776 10.50753,0.22907 1.15009,-0.19021 1.1636,-0.2096 0.72779,-1.04484 -0.24422,-0.46806 -0.44493,-1.51888 -0.44603,-2.33515 -9.6e-4,-0.81626 -0.16725,-1.97755 -0.36925,-2.58064 -0.3675,-1.09722 -1.46418,-2.54814 -1.92603,-2.54814 -0.13494,0 -0.64307,-0.15121 -1.12917,-0.33603 l -0.88382,-0.33603 1.63776,-1.10293 c 3.02296,-2.03578 3.38289,-5.12192 0.84166,-7.21662 -1.86888,-1.54049 -4.05995,-1.97559 -11.72152,-2.32765 -3.814516,-0.17528 -9.620968,-0.27677 -12.903226,-0.22552 l -5.967742,0.0932 -0.08546,9.81669 c -0.0665,7.63877 0.0051,9.87416 0.32258,10.07571 0.511126,0.32444 10.275381,0.34439 10.776281,0.022 z m 53.825308,-0.5239 c 3.18346,-0.67765 4.39696,-1.25994 5.75244,-2.7603 0.94297,-1.04375 1.18305,-1.56887 1.18305,-2.58766 0,-1.48049 -1.29799,-3.21635 -2.90175,-3.88065 -1.29066,-0.53461 -1.22234,-1.076 0.3211,-2.54423 1.70625,-1.62312 1.77973,-3.06178 0.24194,-4.73691 -1.76418,-1.92173 -3.81193,-2.40052 -11.85484,-2.77178 -7.4487,-0.34384 -17.64767,-0.25508 -18.30645,0.15932 -0.30769,0.19354 -0.40323,2.50019 -0.40323,9.73471 0,8.67848 0.0478,9.51129 0.56452,9.83817 0.87804,0.55543 22.47682,0.17226 25.40322,-0.45067 z m 7.0823,-176.36119 -72.012238,0.09824 c -39.33694,0.05366 -71.983463,-0.06463 -72.2052373,0.07891 -0.320543,0.207458 -0.1229176,14.913841 -0.1229176,70.63289 0,38.55038 0.094484,71.8488 0.2099639,73.99649 0.209261,3.89181 0.212771,3.90532 1.048387,4.03457 0.461133,0.0713 32.742172,0.15144 71.735643,0.17802 67.243849,0.0458 71.039209,0.27928 71.259069,-0.2561 0.17723,-51.52789 0.28818,-103.89479 0.0873,-148.76302 z m 0.0307,-10.529322 c 0.0364,-3.971143 0.27124,-37.650041 -0.1211,-38.053948 C 153.68847,10.83205 10.525417,10.588446 10.126293,10.987272 9.978406,11.135047 9.9874474,20.540287 9.9874474,31.569931 l 0.1300386,20.444015 c 54.275254,-0.01535 54.281687,-0.0013 77.502294,0.02468 l 66.55224,-10e-4 z"
       style="opacity:1;fill:#171717;fill-opacity:1;stroke:#fdfdfd;stroke-width:0.32258064;stroke-opacity:1" />
    <path
       transform="translate(0,804.36216)"
       id="path4317"
       d="M 0.3846393,247.81437 C 0.25737107,247.6871 0.15324249,191.86498 0.15324249,123.76521 l 0,-123.81776513 82.35341851,0 82.353419,0 -0.087,123.96193513 -0.087,123.96194 -82.035034,0.0872 c -45.119273,0.048 -82.13916846,-0.0169 -82.2664367,-0.14417 z M 163.47504,124.1689 163.345,1.5280391 82.994584,1.3662445 1.5373255,1.267961 l 0,122.900939 0,122.49135 81.0909585,0.004 80.846756,-0.004 z"
       style="opacity:1;fill:#fefefe;fill-opacity:1;stroke:#fdfdfd;stroke-width:0.34602076;stroke-opacity:1" />
  </g>
  <g
     style="display:inline"
     id="layer2">
    <text
       transform="scale(1.0284585,0.97232899)"
       id="text4319"
       y="209.42506"
       x="127.83275"
       style="font-style:normal;font-weight:normal;font-size:34.29939651px;line-height:125%;font-family:sans-serif;letter-spacing:0px;word-spacing:0px;fill:#000000;fill-opacity:1;stroke:none;stroke-width:1px;stroke-linecap:butt;stroke-linejoin:miter;stroke-opacity:1"
       xml:space="preserve"><tspan
         style="font-size:19.59965515px"
         y="209.42506"
         x="127.83275"
         id="tspan4321"></tspan></text>
  </g>
</svg>
