<?xml version="1.0" standalone="no"?>
<!DOCTYPE svg PUBLIC "-//W3C//DTD SVG 20010904//EN"
 "http://www.w3.org/TR/2001/REC-SVG-20010904/DTD/svg10.dtd">
<svg version="1.0" xmlns="http://www.w3.org/2000/svg"
 width="439.000000pt" height="439.000000pt" viewBox="0 0 439.000000 439.000000"
 preserveAspectRatio="xMidYMid meet">
<metadata>
Created by potrace 1.11, written by Peter Selinger 2001-2013
</metadata>
<g transform="translate(0.000000,439.000000) scale(0.100000,-0.100000)"
fill="#000000" stroke="none">
<path d="M111 3697 c-85 -43 -129 -146 -100 -234 6 -21 58 -101 114 -178 146
-201 232 -320 705 -980 233 -324 475 -662 539 -750 64 -88 134 -186 156 -217
138 -198 409 -569 432 -593 50 -50 101 -69 183 -69 64 -1 82 3 120 26 25 14
57 39 71 55 23 24 187 247 229 310 8 12 69 96 134 185 66 90 146 199 178 243
32 44 61 85 66 90 4 6 34 46 65 90 31 44 99 137 150 207 50 70 99 136 107 148
8 12 49 68 90 124 155 209 278 382 294 414 19 38 23 114 7 154 -16 43 -79 106
-119 119 -43 15 -1149 20 -1241 6 -72 -11 -143 -50 -196 -109 -123 -137 -95
-343 59 -433 59 -34 86 -37 331 -39 142 -1 219 -5 216 -11 -3 -9 -259 -335
-389 -495 -29 -36 -78 -98 -108 -137 -31 -40 -59 -73 -64 -73 -10 0 -1060
1525 -1060 1540 0 7 -53 89 -118 183 -65 95 -125 182 -132 193 -8 12 -51 74
-95 138 l-80 116 -250 0 c-239 -1 -252 -2 -294 -23z"/>
<path d="M761 3648 c28 -40 82 -120 122 -178 209 -305 251 -366 260 -371 11
-7 34 -8 1532 -9 1293 -1 1211 -4 1331 50 110 50 308 230 356 325 44 84 9 193
-75 234 l-43 21 -1767 0 -1766 0 50 -72z"/>
</g>
</svg>
