<?xml version="1.0" encoding="UTF-8" standalone="no"?>
<svg
   xmlns:dc="http://purl.org/dc/elements/1.1/"
   xmlns:cc="http://creativecommons.org/ns#"
   xmlns:rdf="http://www.w3.org/1999/02/22-rdf-syntax-ns#"
   xmlns:svg="http://www.w3.org/2000/svg"
   xmlns="http://www.w3.org/2000/svg"
   viewBox="0 0 563.84003 97.559998"
   height="97.559998"
   width="563.84003"
   xml:space="preserve"
   id="svg2"
   version="1.1"><metadata
     id="metadata8"><rdf:RDF><cc:Work
         rdf:about=""><dc:format>image/svg+xml</dc:format><dc:type
           rdf:resource="http://purl.org/dc/dcmitype/StillImage" /></cc:Work></rdf:RDF></metadata><defs
     id="defs6" /><g
     transform="matrix(1.3333333,0,0,-1.3333333,0,97.56)"
     id="g10"><g
       transform="scale(0.1)"
       id="g12"><path
         id="path14"
         style="fill:#100f0d;fill-opacity:1;fill-rule:nonzero;stroke:none"
         d="m 1416.1,370.945 h 189.89 v -259.07 c -31.06,-10.117 -60.89,-17.293 -89.47,-21.5312 -28.59,-4.2344 -59.48,-6.3516 -92.65,-6.3516 -78.13,0 -138.36,23.1168 -180.72,69.3558 -42.35,46.238 -63.53,111.472 -63.53,195.711 0,83.062 23.88,148.066 71.65,195.007 47.77,46.946 113.53,70.414 197.3,70.414 53.89,0 104.95,-10.351 153.18,-31.058 l -29.64,-70.238 c -41.89,19.296 -83.77,28.941 -125.66,28.941 -55.06,0 -98.59,-17.293 -130.59,-51.883 -32,-34.59 -48,-81.887 -48,-141.887 0,-63.062 14.41,-111.003 43.24,-143.828 28.82,-32.828 70.29,-49.238 124.41,-49.238 27.3,0 56.48,3.41 87.54,10.234 V 298.59 H 1416.1 v 72.355" /><path
         id="path16"
         style="fill:#100f0d;fill-opacity:1;fill-rule:nonzero;stroke:none"
         d="m 1841.76,147.523 c 30.12,0 54.3,8.415 72.54,25.239 18.23,16.824 27.35,40.41 27.35,70.765 v 33.883 l -50.12,-2.117 c -39.06,-1.41 -67.47,-7.941 -85.24,-19.59 -17.76,-11.644 -26.65,-29.473 -26.65,-53.473 0,-17.41 5.18,-30.882 15.53,-40.414 10.36,-9.527 25.89,-14.293 46.59,-14.293 z m 123.54,-56.4722 -16.59,54.3552 h -2.83 c -18.82,-23.765 -37.76,-39.941 -56.82,-48.531 -19.06,-8.5898 -43.53,-12.8828 -73.42,-12.8828 -38.35,0 -68.29,10.3516 -89.82,31.0588 -21.53,20.707 -32.3,50.004 -32.3,87.887 0,40.238 14.94,70.589 44.83,91.062 29.88,20.473 75.41,31.648 136.59,33.531 l 67.41,2.117 v 20.825 c 0,24.941 -5.82,43.59 -17.47,55.945 -11.64,12.352 -29.7,18.527 -54.17,18.527 -20.01,0 -39.18,-2.941 -57.54,-8.824 -18.35,-5.883 -36,-12.824 -52.94,-20.824 l -26.82,59.297 c 21.17,11.058 44.35,19.472 69.53,25.234 25.18,5.766 48.94,8.649 71.29,8.649 49.65,0 87.13,-10.825 112.42,-32.469 25.3,-21.649 37.94,-55.653 37.94,-102.004 V 91.0508 h -59.29" /><path
         id="path18"
         style="fill:#100f0d;fill-opacity:1;fill-rule:nonzero;stroke:none"
         d="m 2469.32,91.0508 h -83.3 V 331.766 c 0,29.882 -5.65,52.179 -16.94,66.886 -11.3,14.703 -28.95,22.059 -52.95,22.059 -32,0 -55.47,-10.414 -70.41,-31.238 C 2230.78,368.648 2223.31,334 2223.31,285.527 V 91.0508 h -82.95 V 481.418 h 64.95 l 11.64,-51.18 h 4.24 c 10.82,18.59 26.53,32.946 47.12,43.063 20.59,10.117 43.23,15.176 67.94,15.176 60,0 99.77,-20.469 119.3,-61.414 h 5.65 c 11.53,19.296 27.76,34.355 48.71,45.179 20.94,10.824 44.94,16.235 72,16.235 46.59,0 80.53,-11.766 101.83,-35.293 21.29,-23.532 31.94,-59.414 31.94,-107.653 V 91.0508 h -82.95 V 331.766 c 0,29.882 -5.7,52.179 -17.12,66.886 -11.41,14.703 -29.11,22.059 -53.11,22.059 -32.24,0 -55.83,-10.059 -70.77,-30.18 -14.94,-20.117 -22.41,-51 -22.41,-92.648 V 91.0508" /><path
         id="path20"
         style="fill:#100f0d;fill-opacity:1;fill-rule:nonzero;stroke:none"
         d="m 2986.75,425.652 c -26.36,0 -47.48,-8.355 -63.36,-25.058 -15.88,-16.707 -25.35,-41.063 -28.41,-73.063 h 177.18 c -0.47,32.235 -8.23,56.649 -23.29,73.239 -15.06,16.585 -35.77,24.882 -62.12,24.882 z m 15.17,-341.6598 c -60.71,0 -108.18,17.7068 -142.41,53.1208 -34.24,35.41 -51.36,84.18 -51.36,146.297 0,63.77 15.88,113.887 47.65,150.36 31.77,36.472 75.41,54.707 130.95,54.707 51.53,0 92.23,-15.649 122.12,-46.942 29.88,-31.297 44.82,-74.355 44.82,-129.183 v -44.825 h -260.12 c 1.17,-37.882 11.41,-67 30.7,-87.355 19.3,-20.356 46.48,-30.531 81.54,-30.531 23.06,0 44.53,2.175 64.41,6.531 19.88,4.351 41.24,11.59 64.06,21.707 v -67.414 c -20.24,-9.649 -40.71,-16.4728 -61.41,-20.4728 -20.71,-4 -44.36,-6 -70.95,-6" /><path
         id="path22"
         style="fill:#100f0d;fill-opacity:1;fill-rule:nonzero;stroke:none"
         d="m 3550.77,607.07 h 87.53 L 3457.59,91.0508 h -88.95 l -180,516.0192 h 86.82 l 107.65,-320.836 c 5.65,-15.293 11.65,-35 18,-59.121 6.36,-24.117 10.48,-42.058 12.36,-53.824 3.06,17.883 7.76,38.59 14.12,62.121 6.35,23.531 11.53,40.942 15.53,52.235 l 107.65,319.425" /><path
         id="path24"
         style="fill:#100f0d;fill-opacity:1;fill-rule:nonzero;stroke:none"
         d="M 3780.54,91.0508 H 3697.6 V 481.418 h 82.94 z m -87.89,493.7852 c 0,14.82 4.06,26.234 12.18,34.234 8.12,8 19.71,12 34.77,12 14.59,0 25.94,-4 34.06,-12 8.12,-8 12.17,-19.414 12.17,-34.234 0,-14.121 -4.05,-25.238 -12.17,-33.356 -8.12,-8.117 -19.47,-12.175 -34.06,-12.175 -15.06,0 -26.65,4.058 -34.77,12.175 -8.12,8.118 -12.18,19.235 -12.18,33.356" /><path
         id="path26"
         style="fill:#100f0d;fill-opacity:1;fill-rule:nonzero;stroke:none"
         d="m 3985.96,290.469 -130.95,190.949 h 94.59 l 88.95,-136.594 89.65,136.594 h 93.89 l -131.3,-190.949 138,-199.4182 h -93.88 l -96.36,146.1252 -96,-146.1252 h -93.89 l 137.3,199.4182" /><path
         id="path28"
         style="fill:#f9a72d;fill-opacity:1;fill-rule:nonzero;stroke:none"
         d="M 830.594,523.867 H 562.828 c -30.39,0 -58.191,-17.105 -71.887,-44.234 -22.386,-44.34 9.84,-96.711 59.508,-96.711 H 651.633 L 513.273,209.012 257.566,580.277 h 1.653 l -0.817,1.172 1.977,-0.011 -103.293,150.238 H 47.9219 c -39.09768,0 -61.6836,-44.356 -38.68752,-75.969 L 64.0898,580.277 462.438,25.8867 c 25.101,-34.51561 76.57,-34.51561 101.671,0 L 869.996,446.484 c 23.422,32.204 0.422,77.383 -39.402,77.383" /><path
         id="path30"
         style="fill:#dc1e25;fill-opacity:1;fill-rule:nonzero;stroke:none"
         d="M 1010.23,731.676 H 170.773 l 103.344,-150.309 204.211,-1.09 H 926.68 c 46.742,9.309 89.33,46.246 117.42,84.875 v 0 c 20.14,27.684 0.36,66.524 -33.87,66.524" /></g></g></svg>