<?xml version="1.0" encoding="UTF-8" standalone="no"?>
<svg
   xmlns:dc="http://purl.org/dc/elements/1.1/"
   xmlns:cc="http://creativecommons.org/ns#"
   xmlns:rdf="http://www.w3.org/1999/02/22-rdf-syntax-ns#"
   xmlns:svg="http://www.w3.org/2000/svg"
   xmlns="http://www.w3.org/2000/svg"
   viewBox="0 0 563.84003 97.559998"
   height="97.559998"
   width="563.84003"
   xml:space="preserve"
   id="svg2"
   version="1.1"><metadata
     id="metadata8"><rdf:RDF><cc:Work
         rdf:about=""><dc:format>image/svg+xml</dc:format><dc:type
           rdf:resource="http://purl.org/dc/dcmitype/StillImage" /></cc:Work></rdf:RDF></metadata><defs
     id="defs6" /><g
     transform="matrix(1.3333333,0,0,-1.3333333,0,97.56)"
     id="g10"><g
       transform="scale(0.1)"
       id="g12"><path
         id="path14"
         style="fill:#ececec;fill-opacity:1;fill-rule:nonzero;stroke:none"
         d="m 1416.1,329.852 h 189.89 V 70.7813 c -31.06,-10.1172 -60.89,-17.293 -89.47,-21.5274 -28.59,-4.2383 -59.48,-6.3555 -92.65,-6.3555 -78.13,0 -138.36,23.1172 -180.72,69.3556 -42.35,46.238 -63.53,111.476 -63.53,195.715 0,83.058 23.88,148.062 71.65,195.004 47.77,46.945 113.53,70.418 197.3,70.418 53.89,0 104.95,-10.356 153.18,-31.063 l -29.64,-70.238 c -41.89,19.297 -83.77,28.941 -125.66,28.941 -55.06,0 -98.59,-17.293 -130.59,-51.883 -32,-34.589 -48,-81.886 -48,-141.886 0,-63.063 14.41,-111.004 43.24,-143.828 28.82,-32.825 70.29,-49.239 124.41,-49.239 27.3,0 56.48,3.41 87.54,10.235 V 257.496 H 1416.1 v 72.356" /><path
         id="path16"
         style="fill:#ececec;fill-opacity:1;fill-rule:nonzero;stroke:none"
         d="m 1841.76,106.43 c 30.12,0 54.3,8.414 72.54,25.238 18.23,16.824 27.35,40.414 27.35,70.766 v 33.882 l -50.12,-2.117 c -39.06,-1.41 -67.47,-7.941 -85.24,-19.59 -17.76,-11.644 -26.65,-29.468 -26.65,-53.472 0,-17.41 5.18,-30.883 15.53,-40.41 10.36,-9.532 25.89,-14.297 46.59,-14.297 z m 123.54,-56.473 -16.59,54.356 h -2.83 c -18.82,-23.7661 -37.76,-39.9419 -56.82,-48.5317 -19.06,-8.5899 -43.53,-12.8829 -73.42,-12.8829 -38.35,0 -68.29,10.3555 -89.82,31.0625 -21.53,20.7032 -32.3,50.0001 -32.3,87.8831 0,40.238 14.94,70.59 44.83,91.062 29.88,20.473 75.41,31.649 136.59,33.532 l 67.41,2.117 v 20.824 c 0,24.941 -5.82,43.59 -17.47,55.941 -11.64,12.356 -29.7,18.532 -54.17,18.532 -20.01,0 -39.18,-2.942 -57.54,-8.825 -18.35,-5.882 -36,-12.824 -52.94,-20.824 l -26.82,59.297 c 21.17,11.059 44.35,19.473 69.53,25.238 25.18,5.766 48.94,8.645 71.29,8.645 49.65,0 87.13,-10.824 112.42,-32.473 25.3,-21.644 37.94,-55.648 37.94,-102.004 V 49.957 h -59.29" /><path
         id="path18"
         style="fill:#ececec;fill-opacity:1;fill-rule:nonzero;stroke:none"
         d="m 2469.32,49.957 h -83.3 v 240.715 c 0,29.883 -5.65,52.18 -16.94,66.887 -11.3,14.707 -28.95,22.058 -52.95,22.058 -32,0 -55.47,-10.414 -70.41,-31.238 -14.94,-20.824 -22.41,-55.473 -22.41,-103.945 V 49.957 h -82.95 v 390.367 h 64.95 l 11.64,-51.176 h 4.24 c 10.82,18.586 26.53,32.942 47.12,43.059 20.59,10.117 43.23,15.176 67.94,15.176 60,0 99.77,-20.469 119.3,-61.414 h 5.65 c 11.53,19.297 27.76,34.355 48.71,45.179 20.94,10.825 44.94,16.235 72,16.235 46.59,0 80.53,-11.766 101.83,-35.293 21.29,-23.531 31.94,-59.414 31.94,-107.652 V 49.957 h -82.95 v 240.715 c 0,29.883 -5.7,52.18 -17.12,66.887 -11.41,14.707 -29.11,22.058 -53.11,22.058 -32.24,0 -55.83,-10.058 -70.77,-30.179 -14.94,-20.118 -22.41,-51 -22.41,-92.649 V 49.957" /><path
         id="path20"
         style="fill:#ececec;fill-opacity:1;fill-rule:nonzero;stroke:none"
         d="m 2986.75,384.559 c -26.36,0 -47.48,-8.356 -63.36,-25.059 -15.88,-16.707 -25.35,-41.062 -28.41,-73.062 h 177.18 c -0.47,32.234 -8.23,56.648 -23.29,73.238 -15.06,16.59 -35.77,24.883 -62.12,24.883 z m 15.17,-341.6606 c -60.71,0 -108.18,17.7071 -142.41,53.1211 -34.24,35.4105 -51.36,84.1795 -51.36,146.2965 0,63.77 15.88,113.887 47.65,150.36 31.77,36.472 75.41,54.707 130.95,54.707 51.53,0 92.23,-15.649 122.12,-46.942 29.88,-31.296 44.82,-74.355 44.82,-129.179 v -44.828 h -260.12 c 1.17,-37.883 11.41,-67 30.7,-87.356 19.3,-20.351 46.48,-30.531 81.54,-30.531 23.06,0 44.53,2.18 64.41,6.531 19.88,4.352 41.24,11.59 64.06,21.707 V 69.3711 c -20.24,-9.6484 -40.71,-16.4727 -61.41,-20.4727 -20.71,-4 -44.36,-6 -70.95,-6" /><path
         id="path22"
         style="fill:#ececec;fill-opacity:1;fill-rule:nonzero;stroke:none"
         d="m 3550.77,565.977 h 87.53 L 3457.59,49.957 h -88.95 l -180,516.02 h 86.82 l 107.65,-320.836 c 5.65,-15.293 11.65,-35 18,-59.118 6.36,-24.121 10.48,-42.062 12.36,-53.828 3.06,17.883 7.76,38.59 14.12,62.121 6.35,23.532 11.53,40.942 15.53,52.239 l 107.65,319.422" /><path
         id="path24"
         style="fill:#ececec;fill-opacity:1;fill-rule:nonzero;stroke:none"
         d="m 3780.54,49.957 h -82.94 v 390.367 h 82.94 z m -87.89,493.781 c 0,14.828 4.06,26.239 12.18,34.239 8.12,8 19.71,12 34.77,12 14.59,0 25.94,-4 34.06,-12 8.12,-8 12.17,-19.411 12.17,-34.239 0,-14.117 -4.05,-25.234 -12.17,-33.351 -8.12,-8.117 -19.47,-12.176 -34.06,-12.176 -15.06,0 -26.65,4.059 -34.77,12.176 -8.12,8.117 -12.18,19.234 -12.18,33.351" /><path
         id="path26"
         style="fill:#ececec;fill-opacity:1;fill-rule:nonzero;stroke:none"
         d="m 3985.96,249.379 -130.95,190.945 h 94.59 l 88.95,-136.594 89.65,136.594 h 93.89 l -131.3,-190.945 138,-199.422 h -93.88 l -96.36,146.125 -96,-146.125 h -93.89 l 137.3,199.422" /><path
         id="path28"
         style="fill:#f9a72d;fill-opacity:1;fill-rule:nonzero;stroke:none"
         d="M 830.594,523.867 H 562.828 c -30.39,0 -58.191,-17.105 -71.887,-44.234 -22.386,-44.34 9.84,-96.711 59.508,-96.711 H 651.633 L 513.273,209.012 257.566,580.277 h 1.653 l -0.817,1.172 1.977,-0.011 -103.293,150.238 H 47.9219 c -39.09768,0 -61.6836,-44.356 -38.68752,-75.969 L 64.0898,580.277 462.438,25.8867 c 25.101,-34.51561 76.57,-34.51561 101.671,0 L 869.996,446.484 c 23.422,32.204 0.422,77.383 -39.402,77.383" /><path
         id="path30"
         style="fill:#dc1e25;fill-opacity:1;fill-rule:nonzero;stroke:none"
         d="M 1010.23,731.676 H 170.773 l 103.344,-150.309 204.211,-1.09 H 926.68 c 46.742,9.309 89.33,46.246 117.42,84.875 v 0 c 20.14,27.684 0.36,66.524 -33.87,66.524" /></g></g></svg>