<?xml version="1.0" encoding="utf-8"?>
<!-- Generator: Adobe Illustrator 21.1.0, SVG Export Plug-In . SVG Version: 6.00 Build 0)  -->
<svg version="1.1"
	 id="svg3336" inkscape:version="0.91 r13725" sodipodi:docname="Nintendo_Switch_Logo_Red.svg" xmlns:cc="http://creativecommons.org/ns#" xmlns:dc="http://purl.org/dc/elements/1.1/" xmlns:inkscape="http://www.inkscape.org/namespaces/inkscape" xmlns:rdf="http://www.w3.org/1999/02/22-rdf-syntax-ns#" xmlns:sodipodi="http://sodipodi.sourceforge.net/DTD/sodipodi-0.dtd" xmlns:svg="http://www.w3.org/2000/svg"
	 xmlns="http://www.w3.org/2000/svg" xmlns:xlink="http://www.w3.org/1999/xlink" x="0px" y="0px" viewBox="0 0 400 87"
	 style="enable-background:new 0 0 400 87;" xml:space="preserve">
<style type="text/css">
	.st0{fill:#E60012;}
</style>
<sodipodi:namedview  bordercolor="#666666" borderopacity="1" fit-margin-bottom="0" fit-margin-left="0" fit-margin-right="0" fit-margin-top="0" gridtolerance="10" guidetolerance="10" id="namedview3350" inkscape:current-layer="svg3336" inkscape:cx="151.35" inkscape:cy="154.10001" inkscape:pageopacity="0" inkscape:pageshadow="2" inkscape:window-height="706" inkscape:window-maximized="1" inkscape:window-width="1366" inkscape:window-x="-8" inkscape:window-y="-8" inkscape:zoom="1.7488644" objecttolerance="10" pagecolor="#ffffff" showgrid="false">
	</sodipodi:namedview>
<path id="path3348" inkscape:connector-curvature="0" class="st0" d="M330.9,20.4h-5.3V6.3h5.3c3.8,0,7,3.1,7,7
	S334.7,20.4,330.9,20.4 M330.6,1.2h-10v24.3h10c6.9,0,12.5-5.5,12.5-12.2S337.5,1.2,330.6,1.2 M34.9,78.7H22.6
	c-4,0-7.7-1.6-10.5-4.4c-2.8-2.8-4.4-6.5-4.4-10.5V22.6c0-4,1.6-7.7,4.4-10.5c2.8-2.8,6.5-4.3,10.5-4.3h12.3L34.9,78.7z M41.1,1
	H22.6C10.7,1,1,10.7,1,22.6v41.2c0,12,9.7,21.6,21.6,21.6h18.5c0.3,0,0.7-0.3,0.7-0.6V1.6C41.8,1.3,41.5,1,41.1,1 M300,25.5V1.2
	h-4.9v15.9L283.2,1.2h-4.9v24.3h4.9V9.2l12,16.3H300z M241.3,47.6H256v36.1h9.8V47.6h14.4v-9.7h-38.9L241.3,47.6z M312,46.6
	c5.2,0,10,2.7,12.6,7.1l7.4-6.5c-4.5-6.8-12.1-10.8-20.3-10.8c-13.4,0-24.4,10.9-24.4,24.4s11,24.5,24.4,24.5
	c8.2,0,15.8-4,20.3-10.8l-7.4-6.5c-2.6,4.3-7.4,7.1-12.6,7.1c-8,0-14.5-6.4-14.5-14.3C297.5,53,304,46.6,312,46.6 M397.1,77.8
	l-1.5,4.3l-1.5-4.3h-1.6v5.8h1.1v-4.5l1.5,4.5h1l1.6-4.5v4.5h1v-5.8H397.1z M386.7,79h1.9v4.7h1.2V79h1.8v-1.2h-4.9V79z M373.4,55.9
	H352v-18h-9.5v45.8h9.5V65.4h21.4v18.3h9.5V37.9h-9.5V55.9z M371.7,20.9c-4.1,0-7.5-3.4-7.5-7.6c0-4.2,3.4-7.5,7.5-7.5
	c4.2,0,7.6,3.3,7.6,7.5S375.9,20.9,371.7,20.9 M371.7,0.4c-7.1,0-12.9,5.8-12.9,12.9c0,7.2,5.8,13,12.9,13c7.2,0,13-5.8,13-13
	C384.7,6.2,378.9,0.4,371.7,0.4 M258.1,21h-13.9v-5.7h12.9v-4.4h-12.9V5.6h13.9V1.2h-18.9v24.3l18.9-0.1V21z M14.1,26.3
	c0,4.4,3.6,8,8,8c4.4,0,8-3.6,8-8c0-4.4-3.6-8-8-8S14.1,22,14.1,26.3 M117.3,55.9H117c-5.6-1-10.4-1.9-10.8-5.1
	c-0.1-0.6-0.1-1.6,0.8-2.6c1.5-1.8,5-2.7,10.3-2.7c5.9,0,11.9,2.3,14,3.2l3.3-7.9c-2.3-1-9.7-3.6-17.8-3.6
	c-9.9,0-20.4,4.9-20.4,13.8c0,7.3,5.1,11,18.3,13.2c9.2,1.6,14.3,2.5,14.2,6.5c-0.1,2.2-1.8,5.9-12.2,5.9c-8.4,0-14.4-3.1-16.4-4.3
	L96,80.1c2.3,1.2,10,4.9,20,4.9c14.6,0,22.3-5.1,22.3-14.7C138.3,63.5,134.8,59,117.3,55.9 M102.9,9.2L115,25.5h4.8V1.2h-4.9v15.9
	l-12-15.9H98v24.3h4.9V9.2z M143.5,1.2h-5.4v24.3h5.4V1.2z M66.9,38.9c4.7,0,8.5,3.8,8.5,8.5c0,4.7-3.8,8.6-8.5,8.6
	c-4.7,0-8.6-3.8-8.6-8.6C58.4,42.8,62.2,38.9,66.9,38.9 M50.8,85.5h13c12,0,21.6-9.7,21.6-21.6V22.6c0-12-9.7-21.6-21.6-21.6H50.8
	c-0.3,0-0.6,0.2-0.6,0.5v83.4C50.2,85.2,50.5,85.5,50.8,85.5 M189.8,71.1l-9.7-33.2h-8.2L162.3,71l-8.8-33.1h-10l13,45.8h11
	l8.5-30.2l8.5,30.2h11.1l13-45.8h-10L189.8,71.1z M221.5,1.2h-20.6v5.1h7.8v19.2h5.2V6.3h7.6V1.2z M166.7,9.2l12.1,16.3h4.8V1.2
	h-4.9v15.9l-12-15.9h-4.9v24.3h4.9V9.2z M220,83.7h10.2V37.9H220V83.7z"/>
</svg>
