<?xml version="1.0" encoding="UTF-8" standalone="no"?>
<!-- Generator: Adobe Illustrator 15.0.2, SVG Export Plug-In  -->

<svg
   xmlns:dc="http://purl.org/dc/elements/1.1/"
   xmlns:cc="http://creativecommons.org/ns#"
   xmlns:rdf="http://www.w3.org/1999/02/22-rdf-syntax-ns#"
   xmlns:svg="http://www.w3.org/2000/svg"
   xmlns="http://www.w3.org/2000/svg"
   xmlns:xlink="http://www.w3.org/1999/xlink"
   xmlns:sodipodi="http://sodipodi.sourceforge.net/DTD/sodipodi-0.dtd"
   xmlns:inkscape="http://www.inkscape.org/namespaces/inkscape"
   enable-background="new 6.9335938 -0.1396484 175 36"
   xml:space="preserve"
   height="36px"
   width="175px"
   version="1.1"
   y="0px"
   x="0px"
   viewBox="6.9335938 -0.1396484 175 36"
   id="svg3009"
   inkscape:version="0.48.4 r9939"
   sodipodi:docname="Xbox_One_logo.svg"><sodipodi:namedview
   pagecolor="#ffffff"
   bordercolor="#666666"
   borderopacity="1"
   objecttolerance="10"
   gridtolerance="10"
   guidetolerance="10"
   inkscape:pageopacity="0"
   inkscape:pageshadow="2"
   inkscape:window-width="1600"
   inkscape:window-height="838"
   id="namedview3031"
   showgrid="false"
   inkscape:zoom="1.4142136"
   inkscape:cx="26.487741"
   inkscape:cy="13.184416"
   inkscape:window-x="-8"
   inkscape:window-y="-8"
   inkscape:window-maximized="1"
   inkscape:current-layer="svg3009" /><metadata
   id="metadata3011"><rdf:RDF><cc:Work
       rdf:about=""><dc:format>image/svg+xml</dc:format><dc:type
         rdf:resource="http://purl.org/dc/dcmitype/StillImage" /><dc:title /></cc:Work></rdf:RDF></metadata>
<defs
   id="defs3013"><linearGradient
   inkscape:collect="always"
   id="linearGradient4002"><stop
     style="stop-color:#97ca43;stop-opacity:1;"
     offset="0"
     id="stop4004" /><stop
     style="stop-color:#97ca43;stop-opacity:0;"
     offset="1"
     id="stop4006" /></linearGradient><linearGradient
   inkscape:collect="always"
   id="linearGradient3992"><stop
     style="stop-color:#97ca43;stop-opacity:1;"
     offset="0"
     id="stop3994" /><stop
     style="stop-color:#97ca43;stop-opacity:0;"
     offset="1"
     id="stop3996" /></linearGradient><linearGradient
   inkscape:collect="always"
   id="linearGradient3909"><stop
     style="stop-color:#97ca43;stop-opacity:1;"
     offset="0"
     id="stop3911" /><stop
     style="stop-color:#97ca43;stop-opacity:0;"
     offset="1"
     id="stop3913" /></linearGradient><linearGradient
   inkscape:collect="always"
   id="linearGradient3864"><stop
     style="stop-color:#97c949;stop-opacity:1;"
     offset="0"
     id="stop3866" /><stop
     style="stop-color:#97c949;stop-opacity:0;"
     offset="1"
     id="stop3868" /></linearGradient><linearGradient
   inkscape:collect="always"
   id="linearGradient3079"><stop
     style="stop-color:#ffffff;stop-opacity:1;"
     offset="0"
     id="stop3081" /><stop
     style="stop-color:#ffffff;stop-opacity:0;"
     offset="1"
     id="stop3083" /></linearGradient><linearGradient
   inkscape:collect="always"
   id="linearGradient3037"><stop
     style="stop-color:#ffffff;stop-opacity:1;"
     offset="0"
     id="stop3039" /><stop
     style="stop-color:#ffffff;stop-opacity:0;"
     offset="1"
     id="stop3041" /></linearGradient>
<radialGradient
   inkscape:collect="always"
   xlink:href="#linearGradient3037"
   id="radialGradient3043"
   cx="24.528753"
   cy="11.820745"
   fx="24.528753"
   fy="11.820745"
   r="14.35"
   gradientTransform="matrix(0,1.4985192,-1.279154,0,38.156167,-20.965255)"
   gradientUnits="userSpaceOnUse" /><radialGradient
   inkscape:collect="always"
   xlink:href="#linearGradient3037"
   id="radialGradient3051"
   gradientUnits="userSpaceOnUse"
   gradientTransform="matrix(0,1.4985192,-1.279154,0,38.156167,-20.965255)"
   cx="24.528753"
   cy="11.820745"
   fx="24.528753"
   fy="11.820745"
   r="14.35" /><radialGradient
   inkscape:collect="always"
   xlink:href="#linearGradient3037"
   id="radialGradient3053"
   gradientUnits="userSpaceOnUse"
   gradientTransform="matrix(0,1.4985192,-1.279154,0,38.156167,-20.965255)"
   cx="24.528753"
   cy="11.820745"
   fx="24.528753"
   fy="11.820745"
   r="14.35" /><radialGradient
   inkscape:collect="always"
   xlink:href="#linearGradient3037"
   id="radialGradient3061"
   gradientUnits="userSpaceOnUse"
   gradientTransform="matrix(0,1.4985192,-1.279154,0,38.156167,-20.965255)"
   cx="24.528753"
   cy="11.820745"
   fx="24.528753"
   fy="11.820745"
   r="14.35" /><radialGradient
   inkscape:collect="always"
   xlink:href="#linearGradient3037"
   id="radialGradient3063"
   gradientUnits="userSpaceOnUse"
   gradientTransform="matrix(0,1.4985192,-1.279154,0,38.156167,-20.965255)"
   cx="24.528753"
   cy="11.820745"
   fx="24.528753"
   fy="11.820745"
   r="14.35" /><radialGradient
   inkscape:collect="always"
   xlink:href="#linearGradient3037"
   id="radialGradient3065"
   gradientUnits="userSpaceOnUse"
   gradientTransform="matrix(0,1.4985192,-1.279154,0,38.156167,-20.965255)"
   cx="24.528753"
   cy="11.820745"
   fx="24.528753"
   fy="11.820745"
   r="14.35" /><radialGradient
   inkscape:collect="always"
   xlink:href="#linearGradient3079"
   id="radialGradient3085"
   cx="23.531815"
   cy="17.843363"
   fx="23.531815"
   fy="17.843363"
   r="14.35"
   gradientTransform="matrix(0,0.80572268,-1.0856049,0,42.902657,-1.1039015)"
   gradientUnits="userSpaceOnUse" /><linearGradient
   inkscape:collect="always"
   xlink:href="#linearGradient3864"
   id="linearGradient3870"
   x1="19.01528"
   y1="11.952477"
   x2="22.067625"
   y2="7.7451916"
   gradientUnits="userSpaceOnUse" /><linearGradient
   inkscape:collect="always"
   xlink:href="#linearGradient3864"
   id="linearGradient3874"
   gradientUnits="userSpaceOnUse"
   x1="19.01528"
   y1="11.952477"
   x2="22.067625"
   y2="7.7451916"
   gradientTransform="matrix(-1,0,0,1,41.029427,-1.0729817)" /><linearGradient
   inkscape:collect="always"
   xlink:href="#linearGradient3864"
   id="linearGradient3886"
   gradientUnits="userSpaceOnUse"
   x1="19.01528"
   y1="11.952477"
   x2="22.067625"
   y2="7.7451916" /><linearGradient
   inkscape:collect="always"
   xlink:href="#linearGradient3864"
   id="linearGradient3896"
   gradientUnits="userSpaceOnUse"
   x1="19.01528"
   y1="11.952477"
   x2="22.067625"
   y2="7.7451916" /><linearGradient
   inkscape:collect="always"
   xlink:href="#linearGradient3864"
   id="linearGradient3898"
   gradientUnits="userSpaceOnUse"
   x1="19.01528"
   y1="11.952477"
   x2="22.067625"
   y2="7.7451916" /><linearGradient
   inkscape:collect="always"
   xlink:href="#linearGradient3909"
   id="linearGradient3915"
   x1="16.799999"
   y1="19.9"
   x2="10.849999"
   y2="16.866667"
   gradientUnits="userSpaceOnUse" /><linearGradient
   inkscape:collect="always"
   xlink:href="#linearGradient3909"
   id="linearGradient3921"
   gradientUnits="userSpaceOnUse"
   x1="16.158333"
   y1="20.512499"
   x2="12.891666"
   y2="16.079166" /><linearGradient
   inkscape:collect="always"
   xlink:href="#linearGradient3909"
   id="linearGradient3929"
   gradientUnits="userSpaceOnUse"
   x1="16.799999"
   y1="19.9"
   x2="10.849999"
   y2="16.866667" /><linearGradient
   inkscape:collect="always"
   xlink:href="#linearGradient3909"
   id="linearGradient3976"
   gradientUnits="userSpaceOnUse"
   x1="16.158333"
   y1="20.512499"
   x2="12.891666"
   y2="16.079166" /><linearGradient
   inkscape:collect="always"
   xlink:href="#linearGradient3864"
   id="linearGradient3978"
   gradientUnits="userSpaceOnUse"
   x1="19.01528"
   y1="11.952477"
   x2="22.067625"
   y2="7.7451916" /><linearGradient
   inkscape:collect="always"
   xlink:href="#linearGradient3864"
   id="linearGradient3980"
   gradientUnits="userSpaceOnUse"
   x1="19.01528"
   y1="11.952477"
   x2="22.067625"
   y2="7.7451916"
   gradientTransform="translate(17.63776,-0.7229817)" /><linearGradient
   inkscape:collect="always"
   xlink:href="#linearGradient3909"
   id="linearGradient3984"
   gradientUnits="userSpaceOnUse"
   x1="16.158333"
   y1="20.512499"
   x2="12.891666"
   y2="16.079166"
   gradientTransform="translate(7.4294271,-1.1896484)" /><linearGradient
   inkscape:collect="always"
   xlink:href="#linearGradient3992"
   id="linearGradient3998"
   x1="17.160885"
   y1="21.540094"
   x2="13.205508"
   y2="16.899706"
   gradientUnits="userSpaceOnUse" /><linearGradient
   inkscape:collect="always"
   xlink:href="#linearGradient4002"
   id="linearGradient4008"
   x1="19.663462"
   y1="13.089741"
   x2="23.287384"
   y2="5.046401"
   gradientUnits="userSpaceOnUse" /><linearGradient
   inkscape:collect="always"
   xlink:href="#linearGradient3992"
   id="linearGradient4041"
   gradientUnits="userSpaceOnUse"
   x1="17.160885"
   y1="21.540094"
   x2="13.205508"
   y2="16.899706" /><linearGradient
   inkscape:collect="always"
   xlink:href="#linearGradient4002"
   id="linearGradient4043"
   gradientUnits="userSpaceOnUse"
   x1="17.550945"
   y1="12.030865"
   x2="20.646738"
   y2="6.9876728" /><linearGradient
   inkscape:collect="always"
   xlink:href="#linearGradient3992"
   id="linearGradient4045"
   gradientUnits="userSpaceOnUse"
   x1="17.160885"
   y1="21.540094"
   x2="13.205508"
   y2="16.899706" /><linearGradient
   inkscape:collect="always"
   xlink:href="#linearGradient4002"
   id="linearGradient4047"
   gradientUnits="userSpaceOnUse"
   x1="19.663462"
   y1="13.089741"
   x2="23.287384"
   y2="5.046401" /><linearGradient
   inkscape:collect="always"
   xlink:href="#linearGradient3992"
   id="linearGradient4148"
   gradientUnits="userSpaceOnUse"
   x1="17.160885"
   y1="21.540094"
   x2="13.205508"
   y2="16.899706" /><linearGradient
   inkscape:collect="always"
   xlink:href="#linearGradient4002"
   id="linearGradient4150"
   gradientUnits="userSpaceOnUse"
   x1="19.663462"
   y1="13.089741"
   x2="23.287384"
   y2="5.046401" /><linearGradient
   inkscape:collect="always"
   xlink:href="#linearGradient3992"
   id="linearGradient4152"
   gradientUnits="userSpaceOnUse"
   x1="17.160885"
   y1="21.540094"
   x2="13.205508"
   y2="16.899706" /><linearGradient
   inkscape:collect="always"
   xlink:href="#linearGradient4002"
   id="linearGradient4154"
   gradientUnits="userSpaceOnUse"
   x1="17.550945"
   y1="12.030865"
   x2="20.646738"
   y2="6.9876728" /><radialGradient
   inkscape:collect="always"
   xlink:href="#linearGradient3079"
   id="radialGradient4156"
   gradientUnits="userSpaceOnUse"
   gradientTransform="matrix(0,0.80572268,-1.0856049,0,42.902657,-1.1039015)"
   cx="23.531815"
   cy="17.843363"
   fx="23.531815"
   fy="17.843363"
   r="14.35" /><radialGradient
   inkscape:collect="always"
   xlink:href="#linearGradient3037"
   id="radialGradient4158"
   gradientUnits="userSpaceOnUse"
   gradientTransform="matrix(0,1.4985192,-1.279154,0,38.156167,-20.965255)"
   cx="24.528753"
   cy="11.820745"
   fx="24.528753"
   fy="11.820745"
   r="14.35" /><radialGradient
   inkscape:collect="always"
   xlink:href="#linearGradient3037"
   id="radialGradient4187"
   gradientUnits="userSpaceOnUse"
   gradientTransform="matrix(0,1.4985192,-1.279154,0,38.156167,-20.965255)"
   cx="24.528753"
   cy="11.820745"
   fx="24.528753"
   fy="11.820745"
   r="14.35" /><radialGradient
   inkscape:collect="always"
   xlink:href="#linearGradient3037"
   id="radialGradient4189"
   gradientUnits="userSpaceOnUse"
   gradientTransform="matrix(0,1.4985192,-1.279154,0,38.156167,-20.965255)"
   cx="24.528753"
   cy="11.820745"
   fx="24.528753"
   fy="11.820745"
   r="14.35" /><radialGradient
   inkscape:collect="always"
   xlink:href="#linearGradient3037"
   id="radialGradient4191"
   gradientUnits="userSpaceOnUse"
   gradientTransform="matrix(0,1.4985192,-1.279154,0,38.156167,-20.965255)"
   cx="24.528753"
   cy="11.820745"
   fx="24.528753"
   fy="11.820745"
   r="14.35" /><linearGradient
   inkscape:collect="always"
   xlink:href="#linearGradient3992"
   id="linearGradient4193"
   gradientUnits="userSpaceOnUse"
   x1="17.160885"
   y1="21.540094"
   x2="13.205508"
   y2="16.899706" /><linearGradient
   inkscape:collect="always"
   xlink:href="#linearGradient4002"
   id="linearGradient4195"
   gradientUnits="userSpaceOnUse"
   x1="19.663462"
   y1="13.089741"
   x2="23.287384"
   y2="5.046401" /><linearGradient
   inkscape:collect="always"
   xlink:href="#linearGradient3992"
   id="linearGradient4197"
   gradientUnits="userSpaceOnUse"
   x1="17.160885"
   y1="21.540094"
   x2="13.205508"
   y2="16.899706" /><linearGradient
   inkscape:collect="always"
   xlink:href="#linearGradient4002"
   id="linearGradient4199"
   gradientUnits="userSpaceOnUse"
   x1="17.550945"
   y1="12.030865"
   x2="20.646738"
   y2="6.9876728" /></defs>








<g
   id="g4201"><polygon
     id="polygon3015"
     fill="#6B6B6B"
     points="161.8979,7.912109,161.8979,24.92969,149.3628,7.899414,147.3081,7.895508,147.3081,28.61523,149.6128,28.61523,149.6128,11.97412,161.896,28.62891,164.2065,28.63086,164.2065,7.912109" /><path
     id="path3017"
     fill="#6B6B6B"
     d="M135.3237,7.431152c-5.826172,0-9.898438,4.456055-9.898438,10.83496,0,6.38916,4.072266,10.84424,9.898438,10.84424,5.820312,0,9.878906-4.455078,9.878906-10.84424,0-6.3789-4.0586-10.83496-9.8789-10.83496m0,19.48389c-4.4375,0-7.548828-3.556641-7.548828-8.648926,0-5.087891,3.111328-8.64502,7.548828-8.64502,4.431641,0,7.523438,3.557129,7.523438,8.64502,0.0001,5.09229-3.0917,8.64893-7.5234,8.64893" /><polygon
     id="polygon3019"
     fill="#6B6B6B"
     points="169.1226,26.60449,169.1226,18.9375,180.5288,18.9375,180.5288,16.90918,169.1226,16.90918,169.1226,9.925293,181.3042,9.925293,181.3042,7.898438,166.7983,7.898438,166.7983,28.63281,181.4468,28.63281,181.4468,26.60449" /><polygon
     id="polygon3021"
     fill="#177D3E"
     points="118.9312,28.65039,112.3081,19.65771,105.6885,28.65039,102.96,28.65039,110.9253,17.78564,103.6523,7.911621,106.3789,7.911621,112.3081,15.96582,118.2319,7.911621,120.9565,7.911621,113.687,17.78564,121.6558,28.65039" /><path
     id="path3023"
     fill="#177D3E"
     d="M82.4668,18.57031c-0.4326172-0.3686523-0.9023438-0.6538086-1.358398-0.8647461,1.504883-0.8168945,2.492188-2.36084,2.492188-4.151856,0-1.327148-0.4892578-5.641113-6.741211-5.641113h-8.420898v8.939941h-2.805664c-0.3652344,0.4741211-1.19043,1.612793-1.505859,2.081055h4.311523v9.714844l8.420898,0.0009766c4.561523,0,7.396484-2.317383,7.396484-6.053711,0-1.6328-0.61719-3.02098-1.78906-4.02538m-11.7002-8.49463h6.092773c1.650391,0,4.411133,0.4106445,4.411133,3.295898,0,2.181152-1.609375,3.480957-4.411133,3.480957h-6.092773v-6.776856zm6.09278,16.41065h-6.092773v-7.549805h6.092773c2.310547,0,5.074219,0.6381836,5.074219,3.614258-0.00001,3.42187-3.17774,3.93554-5.07422,3.93554" /><path
     id="path3025"
     fill="#177D3E"
     d="M95.20898,7.432617c-5.824219,0-9.895508,4.456055-9.895508,10.83496,0,6.388672,4.071289,10.8418,9.895508,10.8418,5.820312,0,9.878906-4.453125,9.878906-10.8418,0-6.37891-4.0586-10.83496-9.87892-10.83496m0,19.4834c-4.4375,0-7.545898-3.556641-7.545898-8.648438,0-5.087891,3.108398-8.643555,7.545898-8.643555,4.430664,0,7.523438,3.555664,7.523438,8.643555,0,5.0918-3.09275,8.64844-7.52342,8.64844" /><polygon
     id="polygon3027"
     fill="#177D3E"
     points="67.30566,28.64844,59.33398,17.78516,66.6084,7.912109,63.88281,7.912109,57.95312,15.96826,52.02832,7.912109,49.31055,7.912109,56.58008,17.78516,48.60938,28.64844,51.33984,28.64844,57.95703,19.6582,64.57812,28.64844" /><g
     transform="translate(-1.2833333,0.93333333)"
     id="g3055"><g
       id="g3923"
       transform="matrix(-1,0,0,1,61.715049,-34.927083)" /><g
       id="g4049"><g
         transform="translate(-2.125,35.625)"
         id="g4160"><path
           sodipodi:type="arc"
           style="fill:#666666;fill-opacity:1;stroke:none"
           id="path3033"
           sodipodi:cx="23.333334"
           sodipodi:cy="17.391666"
           sodipodi:rx="14.35"
           sodipodi:ry="14.758333"
           d="m 37.683334,17.391666 c 0,8.150803 -6.424714,14.758334 -14.35,14.758334 -7.925286,0 -14.3500004,-6.607531 -14.3500004,-14.758334 0,-8.150802 6.4247144,-14.7583328 14.3500004,-14.7583328 7.925286,0 14.35,6.6075308 14.35,14.7583328 z"
           transform="matrix(1.1755978,0,0,1.1301272,4.1196441,-37.63611)" /><path
           transform="matrix(1.1755978,0,0,1.1301272,4.1196441,-37.63611)"
           d="m 37.683334,17.391666 c 0,8.150803 -6.424714,14.758334 -14.35,14.758334 -7.925286,0 -14.3500004,-6.607531 -14.3500004,-14.758334 0,-8.150802 6.4247144,-14.7583328 14.3500004,-14.7583328 7.925286,0 14.35,6.6075308 14.35,14.7583328 z"
           sodipodi:ry="14.758333"
           sodipodi:rx="14.35"
           sodipodi:cy="17.391666"
           sodipodi:cx="23.333334"
           id="path3035"
           style="fill:url(#radialGradient4187);fill-opacity:1;stroke:none"
           sodipodi:type="arc" /><path
           sodipodi:type="arc"
           style="fill:url(#radialGradient4189);fill-opacity:1;stroke:none"
           id="path3045"
           sodipodi:cx="23.333334"
           sodipodi:cy="17.391666"
           sodipodi:rx="14.35"
           sodipodi:ry="14.758333"
           d="m 37.683334,17.391666 c 0,8.150803 -6.424714,14.758334 -14.35,14.758334 -7.925286,0 -14.3500004,-6.607531 -14.3500004,-14.758334 0,-8.150802 6.4247144,-14.7583328 14.3500004,-14.7583328 7.925286,0 14.35,6.6075308 14.35,14.7583328 z"
           transform="matrix(1.1755978,0,0,1.1301272,4.1196441,-37.63611)" /><path
           transform="matrix(1.1755978,0,0,1.1301272,4.1196441,-37.63611)"
           d="m 37.683334,17.391666 c 0,8.150803 -6.424714,14.758334 -14.35,14.758334 -7.925286,0 -14.3500004,-6.607531 -14.3500004,-14.758334 0,-8.150802 6.4247144,-14.7583328 14.3500004,-14.7583328 7.925286,0 14.35,6.6075308 14.35,14.7583328 z"
           sodipodi:ry="14.758333"
           sodipodi:rx="14.35"
           sodipodi:cy="17.391666"
           sodipodi:cx="23.333334"
           id="path3047"
           style="fill:url(#radialGradient4191);fill-opacity:1;stroke:none"
           sodipodi:type="arc" /><g
           id="g4126"
           transform="translate(3.7995054e-7,0.05177686)"><g
             id="g4010"
             transform="matrix(1.0075011,0,0,1.0008426,-0.23709798,0.02715301)"><g
               id="g3951"><g
                 id="g3917"
                 transform="translate(1.334375,-34.927083)"><path
                   id="path3900"
                   transform="translate(8.2169271,-1.0729817)"
                   d="m 17.75,10.65625 c -1.847688,2.256035 -9.5926641,11.425091 -8.90625,17.625 0.4783172,0.610018 1.0047273,1.180327 1.5625,1.71875 -0.08129,-4.745696 5.4515,-9.824588 9.769368,-13.658449 z"
                   style="fill:#00a54d;fill-opacity:1;stroke:none"
                   inkscape:connector-curvature="0"
                   sodipodi:nodetypes="ccccc" /></g><g
                 style="fill:#97ca43;fill-opacity:1"
                 transform="translate(1.334375,-34.927083)"
                 id="g3988"><path
                   sodipodi:nodetypes="ccccc"
                   inkscape:connector-curvature="0"
                   style="fill:url(#linearGradient4193);fill-opacity:1;stroke:none"
                   d="m 17.75,10.65625 c -1.847688,2.256035 -9.5926641,11.425091 -8.90625,17.625 0.4783172,0.610018 1.0047273,1.180327 1.5625,1.71875 -0.08129,-4.745696 5.4515,-9.824588 9.769368,-13.658449 z"
                   transform="translate(8.2169271,-1.0729817)"
                   id="path3990" /></g><g
                 id="g3888"
                 transform="translate(1.196189,-34.89572)"><g
                   id="g3876"><path
                     style="fill:#02a74d;fill-opacity:1;stroke:none"
                     d="m 13.34375,3.75 c -0.965665,0.5849225 -1.862933,1.2722918 -2.6875,2.03125 2.656255,0.5079752 5.32084,2.8624365 6.78125,4.8125 1.272411,2.001434 1.963367,3.836737 2.861547,5.731248 0.608132,-0.518349 1.226492,-1.046358 1.896265,-1.586717 l -0.0039,-8.2265622 C 20.212403,5.2739256 16.941625,3.6447553 13.375,3.75 c -0.0076,0.00461 -0.02361,-0.00463 -0.03125,0 z"
                     id="path3089"
                     transform="translate(8.2169271,-1.0729817)"
                     inkscape:connector-curvature="0"
                     sodipodi:nodetypes="cccccccc" /><path
                     sodipodi:nodetypes="cccccccc"
                     inkscape:connector-curvature="0"
                     transform="translate(8.2169271,-1.0729817)"
                     id="path4000"
                     d="m 13.34375,3.75 c -0.965665,0.5849225 -1.862933,1.2722918 -2.6875,2.03125 2.656255,0.5079752 5.32084,2.8624365 6.78125,4.8125 1.272411,2.001434 1.963367,3.836737 2.861547,5.731248 0.608132,-0.518349 1.226492,-1.046358 1.896265,-1.586717 l -0.0039,-8.2265622 C 20.212403,5.2739256 16.941625,3.6447553 13.375,3.75 c -0.0076,0.00461 -0.02361,-0.00463 -0.03125,0 z"
                     style="fill:url(#linearGradient4195);fill-opacity:1;stroke:none" /></g></g></g></g><g
             id="g4021"
             transform="matrix(-1.0041673,0,0,1.0016853,63.252358,0.05430602)"><g
               id="g4023"><g
                 transform="translate(1.334375,-34.927083)"
                 id="g4025"><path
                   sodipodi:nodetypes="ccccc"
                   inkscape:connector-curvature="0"
                   style="fill:#00a54d;fill-opacity:1;stroke:none"
                   d="m 17.75,10.65625 c -1.847688,2.256035 -9.5926641,11.425091 -8.90625,17.625 0.4783172,0.610018 1.0047273,1.180327 1.5625,1.71875 -0.08129,-4.745696 5.4515,-9.824588 9.769368,-13.658449 z"
                   transform="translate(8.2169271,-1.0729817)"
                   id="path4027" /></g><g
                 id="g4029"
                 transform="translate(1.334375,-34.927083)"
                 style="fill:#97ca43;fill-opacity:1"><path
                   id="path4031"
                   transform="translate(8.2169271,-1.0729817)"
                   d="m 17.75,10.65625 c -1.847688,2.256035 -9.5926641,11.425091 -8.90625,17.625 0.4783172,0.610018 1.0047273,1.180327 1.5625,1.71875 -0.08129,-4.745696 5.4515,-9.824588 9.769368,-13.658449 z"
                   style="fill:url(#linearGradient4197);fill-opacity:1;stroke:none"
                   inkscape:connector-curvature="0"
                   sodipodi:nodetypes="ccccc" /></g><g
                 transform="translate(1.196189,-34.89572)"
                 id="g4033"><g
                   id="g4035"><path
                     sodipodi:nodetypes="cccccccc"
                     inkscape:connector-curvature="0"
                     transform="translate(8.2169271,-1.0729817)"
                     id="path4037"
                     d="m 13.34375,3.75 c -0.965665,0.5849225 -1.862933,1.2722918 -2.6875,2.03125 2.656255,0.5079752 5.32084,2.8624365 6.78125,4.8125 1.272411,2.001434 1.963367,3.836737 2.861547,5.731248 0.608132,-0.518349 1.226492,-1.046358 1.896265,-1.586717 l -0.0039,-8.2265622 C 20.212403,5.2739256 16.941625,3.6447553 13.375,3.75 c -0.0076,0.00461 -0.02361,-0.00463 -0.03125,0 z"
                     style="fill:#02a74d;fill-opacity:1;stroke:none" /><path
                     style="fill:url(#linearGradient4199);fill-opacity:1;stroke:none"
                     d="m 13.34375,3.75 c -0.965665,0.5849225 -1.862933,1.2722918 -2.6875,2.03125 2.656255,0.5079752 5.32084,2.8624365 6.78125,4.8125 1.272411,2.001434 1.963367,3.836737 2.861547,5.731248 0.608132,-0.518349 1.226492,-1.046358 1.896265,-1.586717 l -0.0039,-8.2265622 C 20.212403,5.2739256 16.941625,3.6447553 13.375,3.75 c -0.0076,0.00461 -0.02361,-0.00463 -0.03125,0 z"
                     id="path4039"
                     transform="translate(8.2169271,-1.0729817)"
                     inkscape:connector-curvature="0"
                     sodipodi:nodetypes="cccccccc" /></g></g></g></g></g></g></g></g></g></svg>